B612-Italic.sfdir
StartChar: exclam
Encoding: 257 33 257
GlifName: exclam
Width: 700
VWidth: 0
Flags: W
LayerCount: 2
Fore
SplineSet
644 1500 m 257
 459 450 l 257
 245 429 l 257
 434 1500 l 257
 644 1500 l 257
167 120 m 257
 167 148 167 148 180.5 174 c 128
 194 200 194 200 216 219 c 128
 238 238 238 238 265.5 247.5 c 128
 293 257 293 257 321 252 c 257
 375 242 375 242 403 204.5 c 128
 431 167 431 167 430 120 c 257
 429 91 429 91 415.5 65.5 c 128
 402 40 402 40 380.5 21 c 128
 359 2 359 2 331.5 -7.5 c 128
 304 -17 304 -17 276 -14 c 257
 221 -7 221 -7 193.5 30 c 128
 166 67 166 67 167 120 c 257
EndSplineSet
EndChar
StartChar: ampersand
Encoding: 111 38 111
GlifName: ampersand
Width: 1400
VWidth: 0
Flags: W
LayerCount: 2
Fore
SplineSet
1431 713 m 257
 1428 626 1428 626 1403.5 544.5 c 128
 1379 463 1379 463 1337.5 390 c 128
 1296 317 1296 317 1239.5 254.5 c 128
 1183 192 1183 192 1116 141 c 257
 1200 157 l 257
 1302 -20 l 257
 1079 -20 l 257
 1024 77 l 257
 987 48 987 48 944.5 29 c 128
 902 10 902 10 856.5 -1 c 128
 811 -12 811 -12 763.5 -16.5 c 128
 716 -21 716 -21 668 -20 c 257
 610 -19 610 -19 551 -5 c 128
 492 9 492 9 438 37 c 128
 384 65 384 65 338 106 c 128
 292 147 292 147 260 201.5 c 128
 228 256 228 256 212 324 c 128
 196 392 196 392 203 474 c 257
 208 535 208 535 228 589.5 c 128
 248 644 248 644 277.5 690 c 128
 307 736 307 736 342.5 774 c 128
 378 812 378 812 415 840 c 128
 452 868 452 868 487.5 885.5 c 128
 523 903 523 903 551 909 c 257
 523 966 523 966 516 1034 c 128
 509 1102 509 1102 511 1176 c 257
 513 1257 513 1257 550 1324.5 c 128
 587 1392 587 1392 647 1438.5 c 128
 707 1485 707 1485 784 1507 c 128
 861 1529 861 1529 944 1520 c 257
 1011 1512 1011 1512 1063.5 1493.5 c 128
 1116 1475 1116 1475 1156 1449.5 c 128
 1196 1424 1196 1424 1224.5 1395 c 128
 1253 1366 1253 1366 1273 1338 c 257
 1173 1220 l 257
 1137 1281 1137 1281 1075.5 1319 c 128
 1014 1357 1014 1357 915 1359 c 257
 867 1360 867 1360 825 1348 c 128
 783 1336 783 1336 752.5 1312.5 c 128
 722 1289 722 1289 704 1254.5 c 128
 686 1220 686 1220 686 1175 c 257
 686 1161 686 1161 684.5 1145.5 c 128
 683 1130 683 1130 685 1112 c 257
 686 1097 686 1097 690.5 1080 c 128
 695 1063 695 1063 708.5 1033.5 c 128
 722 1004 722 1004 748 955 c 128
 774 906 774 906 818.5 827 c 128
 863 748 863 748 929 632.5 c 128
 995 517 995 517 1089 355 c 257
 1147 406 1147 406 1183.5 488 c 128
 1220 570 1220 570 1234 692 c 257
 1431 713 l 257
698 149 m 257
 761 149 761 149 821 164.5 c 128
 881 180 881 180 944 217 c 257
 597 828 l 257
 583 745 l 257
 483 698 483 698 431.5 633.5 c 128
 380 569 380 569 372 475 c 257
 366 406 366 406 391.5 348.5 c 128
 417 291 417 291 462.5 248.5 c 128
 508 206 508 206 569.5 180 c 128
 631 154 631 154 698 149 c 257
EndSplineSet
EndChar
StartChar: quotesingle
Encoding: 446 39 446
GlifName: quotesingle
Width: 400
VWidth: 0
Flags: W
LayerCount: 2
Fore
SplineSet
414 1500 m 257
 589 1500 l 257
 571 1400 l 257
 558 1326 558 1326 507.5 1240.5 c 128
 457 1155 457 1155 372 1067 c 257
 328 1067 l 257
 343 1143 343 1143 358 1209 c 257
 364 1237 364 1237 369.5 1266 c 128
 375 1295 375 1295 380.5 1320.5 c 128
 386 1346 386 1346 390 1367 c 128
 394 1388 394 1388 396 1400 c 257
 414 1500 l 257
EndSplineSet
EndChar
StartChar: asterisk
Encoding: 137 42 137
GlifName: asterisk
Width: 1100
VWidth: 0
Flags: W
LayerCount: 2
Fore
SplineSet
806 994 m 257
 912 802 l 257
 797 712 l 257
 684 918 l 257
 673 990 l 257
 636 918 l 257
 463 726 l 257
 358 793 l 257
 542 996 l 257
 615 1041 l 257
 535 1045 l 257
 325 1118 l 257
 375 1249 l 257
 599 1172 l 257
 656 1120 l 257
 648 1202 l 257
 690 1436 l 257
 825 1450 l 257
 781 1198 l 257
 741 1118 l 257
 815 1168 l 257
 1053 1240 l 257
 1086 1118 l 257
 830 1040 l 257
 750 1037 l 257
 806 994 l 257
EndSplineSet
EndChar
StartChar: plus
Encoding: 425 43 425
GlifName: plus
Width: 1200
VWidth: 0
Flags: W
LayerCount: 2
Fore
SplineSet
223 700 m 257
 596 700 l 257
 671 1123 l 257
 826 1123 l 257
 751 700 l 257
 1123 700 l 257
 1096 545 l 257
 724 545 l 257
 649 122 l 257
 494 122 l 257
 569 545 l 257
 196 545 l 257
 223 700 l 257
EndSplineSet
EndChar
StartChar: comma
Encoding: 203 44 203
GlifName: comma
Width: 500
VWidth: 0
Flags: W
LayerCount: 2
Fore
SplineSet
125 133 m 257
 125 164 125 164 141 192 c 128
 157 220 157 220 181.5 240.5 c 128
 206 261 206 261 237 271 c 128
 268 281 268 281 298 277 c 257
 323 274 323 274 345.5 263 c 128
 368 252 368 252 384.5 232.5 c 128
 401 213 401 213 410.5 184.5 c 128
 420 156 420 156 418 116 c 257
 415 63 415 63 400 9.5 c 128
 385 -44 385 -44 353.5 -96.5 c 128
 322 -149 322 -149 272.5 -200.5 c 128
 223 -252 223 -252 152 -301 c 257
 104 -278 l 257
 153 -226 153 -226 189.5 -157.5 c 128
 226 -89 226 -89 233 -11 c 257
 188 -9 188 -9 156.5 25.5 c 128
 125 60 125 60 125 133 c 257
EndSplineSet
EndChar
StartChar: hyphen
Encoding: 309 45 309
GlifName: hyphen
Width: 900
VWidth: 0
Flags: W
LayerCount: 2
Fore
SplineSet
305 600 m 257
 805 600 l 257
 778 445 l 257
 278 445 l 257
 305 600 l 257
EndSplineSet
EndChar
StartChar: zero
Encoding: 587 48 587
GlifName: zero
Width: 1300
VWidth: 0
Flags: W
LayerCount: 2
Fore
SplineSet
599 -17 m 257
 514 -7 514 -7 452 29.5 c 128
 390 66 390 66 346.5 122 c 128
 303 178 303 178 276.5 250 c 128
 250 322 250 322 237.5 403.5 c 128
 225 485 225 485 224.5 573.5 c 128
 224 662 224 662 232 750 c 257
 240 841 240 841 265 936 c 128
 290 1031 290 1031 330 1119 c 128
 370 1207 370 1207 425 1284 c 128
 480 1361 480 1361 548 1416 c 128
 616 1471 616 1471 696.5 1498.5 c 128
 777 1526 777 1526 869 1517 c 257
 952 1508 952 1508 1014 1472.5 c 128
 1076 1437 1076 1437 1120.5 1381 c 128
 1165 1325 1165 1325 1192 1252 c 128
 1219 1179 1219 1179 1232.5 1096.5 c 128
 1246 1014 1246 1014 1246 925.5 c 128
 1246 837 1246 837 1236 750 c 257
 1225 658 1225 658 1198.5 563 c 128
 1172 468 1172 468 1130.5 379 c 128
 1089 290 1089 290 1033.5 213 c 128
 978 136 978 136 911 81 c 128
 844 26 844 26 765.5 -1 c 128
 687 -28 687 -28 599 -17 c 257
438 793 m 257
 430 735 430 735 423 667.5 c 128
 416 600 416 600 415.5 531.5 c 128
 415 463 415 463 424 399 c 128
 433 335 433 335 458 283.5 c 128
 483 232 483 232 526 198.5 c 128
 569 165 569 165 637 158 c 257
 695 152 695 152 745.5 173 c 128
 796 194 796 194 838 234 c 128
 880 274 880 274 913.5 329.5 c 128
 947 385 947 385 971 448 c 128
 995 511 995 511 1009.5 577.5 c 128
 1024 644 1024 644 1029 707 c 257
 1033 765 1033 765 1038.5 833 c 128
 1044 901 1044 901 1044 969.5 c 128
 1044 1038 1044 1038 1035.5 1102 c 128
 1027 1166 1027 1166 1003.5 1217 c 128
 980 1268 980 1268 938 1301 c 128
 896 1334 896 1334 830 1341 c 257
 769 1347 769 1347 719 1326.5 c 128
 669 1306 669 1306 628.5 1266 c 128
 588 1226 588 1226 556 1170.5 c 128
 524 1115 524 1115 501 1052 c 128
 478 989 478 989 462.5 922.5 c 128
 447 856 447 856 438 793 c 257
EndSplineSet
EndChar
StartChar: one
Encoding: 383 49 383
GlifName: one
Width: 1300
VWidth: 0
Flags: W
LayerCount: 2
Fore
SplineSet
350 0 m 257
 378 160 l 257
 623 160 l 257
 793 1126 l 257
 891 1353 l 257
 722 1167 l 257
 477 979 l 257
 390 1100 l 257
 923 1520 l 257
 1059 1500 l 257
 823 160 l 257
 1068 160 l 257
 1040 0 l 257
 350 0 l 257
EndSplineSet
EndChar
StartChar: four
Encoding: 281 52 281
GlifName: four
Width: 1300
VWidth: 0
Flags: W
LayerCount: 2
Fore
SplineSet
1127 300 m 257
 947 300 l 257
 895 0 l 257
 695 0 l 257
 747 300 l 257
 152 300 l 257
 183 471 l 257
 852 1520 l 257
 1037 1500 l 257
 463 600 l 257
 346 460 l 257
 776 460 l 257
 847 867 l 257
 1044 850 l 257
 976 460 l 257
 1171 460 l 257
 1127 300 l 257
EndSplineSet
EndChar
StartChar: seven
Encoding: 471 55 471
GlifName: seven
Width: 1300
VWidth: 0
Flags: W
LayerCount: 2
Fore
SplineSet
464 1500 m 257
 1357 1500 l 257
 1334 1370 l 257
 1326 1328 1326 1328 1282.5 1265.5 c 128
 1239 1203 1239 1203 1175 1124.5 c 128
 1111 1046 1111 1046 1035 953.5 c 128
 959 861 959 861 887.5 759 c 128
 816 657 816 657 757.5 548.5 c 128
 699 440 699 440 669 329 c 257
 658 288 658 288 647.5 244 c 128
 637 200 637 200 628 157.5 c 128
 619 115 619 115 611.5 74.5 c 128
 604 34 604 34 598 0 c 257
 400 0 l 257
 405 30 405 30 415 80 c 128
 425 130 425 130 437.5 186 c 128
 450 242 450 242 464 297 c 128
 478 352 478 352 491 392 c 257
 526 501 526 501 582 605.5 c 128
 638 710 638 710 703.5 805.5 c 128
 769 901 769 901 836.5 985 c 128
 904 1069 904 1069 962 1138 c 128
 1020 1207 1020 1207 1061.5 1258.5 c 128
 1103 1310 1103 1310 1115 1340 c 257
 436 1340 l 257
 464 1500 l 257
EndSplineSet
EndChar
StartChar: nine
Encoding: 361 57 361
GlifName: nine
Width: 1300
VWidth: 0
Flags: W
LayerCount: 2
Fore
SplineSet
964 663 m 257
 931 640 931 640 899.5 623 c 128
 868 606 868 606 836.5 594.5 c 128
 805 583 805 583 771.5 577.5 c 128
 738 572 738 572 701 573 c 257
 614 575 614 575 542.5 605.5 c 128
 471 636 471 636 420.5 694 c 128
 370 752 370 752 343.5 836.5 c 128
 317 921 317 921 320 1031 c 257
 323 1142 323 1142 370 1236.5 c 128
 417 1331 417 1331 495 1397.5 c 128
 573 1464 573 1464 675 1497 c 128
 777 1530 777 1530 890 1517 c 257
 988 1506 988 1506 1056 1471.5 c 128
 1124 1437 1124 1437 1168 1387 c 128
 1212 1337 1212 1337 1235 1274.5 c 128
 1258 1212 1258 1212 1267.5 1145 c 128
 1277 1078 1277 1078 1276 1010 c 128
 1275 942 1275 942 1271 880 c 257
 1262 761 1262 761 1223.5 648.5 c 128
 1185 536 1185 536 1122 436 c 128
 1059 336 1059 336 975.5 253 c 128
 892 170 892 170 793.5 110 c 128
 695 50 695 50 584.5 16.5 c 128
 474 -17 474 -17 358 -17 c 257
 356 150 l 257
 482 153 482 153 599.5 198.5 c 128
 717 244 717 244 813 326 c 128
 909 408 909 408 975.5 523 c 128
 1042 638 1042 638 1065 780 c 257
 964 663 l 257
1084 953 m 257
 1087 1027 1087 1027 1080 1095 c 128
 1073 1163 1073 1163 1049 1216.5 c 128
 1025 1270 1025 1270 980 1305 c 128
 935 1340 935 1340 863 1347 c 257
 791 1354 791 1354 731 1332.5 c 128
 671 1311 671 1311 625.5 1270 c 128
 580 1229 580 1229 552 1171.5 c 128
 524 1114 524 1114 517 1049 c 257
 510 983 510 983 518 930 c 128
 526 877 526 877 552 837.5 c 128
 578 798 578 798 623.5 774 c 128
 669 750 669 750 736 743 c 257
 789 737 789 737 841 750.5 c 128
 893 764 893 764 939 792.5 c 128
 985 821 985 821 1022.5 862 c 128
 1060 903 1060 903 1084 953 c 257
EndSplineSet
EndChar
StartChar: less
Encoding: 335 60 335
GlifName: less
Width: 1300
VWidth: 0
Flags: W
LayerCount: 2
Fore
SplineSet
1307 1187 m 257
 1276 1012 l 257
 524 646 l 257
 443 626 l 257
 516 606 l 257
 1140 242 l 257
 1109 67 l 257
 292 524 l 257
 329 733 l 257
 1307 1187 l 257
EndSplineSet
EndChar
StartChar: equal
Encoding: 249 61 249
GlifName: equal
Width: 1100
VWidth: 0
Flags: W
LayerCount: 2
Fore
SplineSet
341 800 m 257
 1041 800 l 257
 1013 645 l 257
 313 645 l 257
 341 800 l 257
270 400 m 257
 970 400 l 257
 943 245 l 257
 243 245 l 257
 270 400 l 257
EndSplineSet
EndChar
StartChar: A
Encoding: 1 65 1
GlifName: A_
Width: 1300
VWidth: 0
Flags: W
LayerCount: 2
Fore
SplineSet
61 0 m 257
 713 1300 l 257
 783 1500 l 257
 1005 1520 l 257
 1235 0 l 257
 1045 0 l 257
 976 450 l 257
 481 450 l 257
 256 0 l 257
 61 0 l 257
888 1360 m 257
 806 1100 l 257
 556 600 l 257
 953 600 l 257
 878 1100 l 257
 888 1360 l 257
EndSplineSet
EndChar
StartChar: C
Encoding: 12 67 12
GlifName: C_
Width: 1200
VWidth: 0
Flags: W
LayerCount: 2
Fore
SplineSet
1118 95 m 257
 1098 81 1098 81 1062 62 c 128
 1026 43 1026 43 974 25.5 c 128
 922 8 922 8 853 -4.5 c 128
 784 -17 784 -17 697 -17 c 257
 562 -17 562 -17 464 43.5 c 128
 366 104 366 104 306.5 210 c 128
 247 316 247 316 226.5 460 c 128
 206 604 206 604 225 770 c 257
 244 936 244 936 303.5 1073.5 c 128
 363 1211 363 1211 457 1309.5 c 128
 551 1408 551 1408 677 1462.5 c 128
 803 1517 803 1517 955 1517 c 257
 1198 1517 1198 1517 1330 1385 c 257
 1232 1263 l 257
 1200 1285 1200 1285 1168 1300 c 128
 1136 1315 1136 1315 1101 1324 c 128
 1066 1333 1066 1333 1026.5 1337 c 128
 987 1341 987 1341 941 1341 c 257
 835 1340 835 1340 746 1299.5 c 128
 657 1259 657 1259 590 1185 c 128
 523 1111 523 1111 481 1006.5 c 128
 439 902 439 902 426 773 c 257
 419 703 419 703 417 630.5 c 128
 415 558 415 558 423 489 c 128
 431 420 431 420 451.5 359 c 128
 472 298 472 298 510.5 252 c 128
 549 206 549 206 608 179.5 c 128
 667 153 667 153 752 153 c 257
 797 153 797 153 838 159 c 128
 879 165 879 165 918 177 c 128
 957 189 957 189 996 206.5 c 128
 1035 224 1035 224 1076 247 c 257
 1118 95 l 257
EndSplineSet
EndChar
StartChar: H
Encoding: 33 72 33
GlifName: H_
Width: 1400
VWidth: 0
Flags: W
LayerCount: 2
Fore
SplineSet
1015 0 m 257
 1142 725 l 257
 512 725 l 257
 385 0 l 257
 190 0 l 257
 417 1290 l 257
 425 1500 l 257
 653 1520 l 257
 541 885 l 257
 1171 885 l 257
 1279 1502 l 257
 1478 1520 l 257
 1210 0 l 257
 1015 0 l 257
EndSplineSet
EndChar
StartChar: L
Encoding: 44 76 44
GlifName: L_
Width: 1100
VWidth: 0
Flags: W
LayerCount: 2
Fore
SplineSet
418 160 m 257
 1068 160 l 257
 1020 0 l 257
 180 0 l 257
 235 200 l 257
 427 1290 l 257
 434 1500 l 257
 668 1520 l 257
 459 340 l 257
 418 160 l 257
EndSplineSet
EndChar
StartChar: M
Encoding: 46 77 46
GlifName: M_
Width: 1800
VWidth: 0
Flags: W
LayerCount: 2
Fore
SplineSet
1400 0 m 257
 1576 1000 l 257
 1676 1320 l 257
 1671 1321 l 257
 1517 1020 l 257
 1357 769 1357 769 1232 572 c 257
 1178 488 1178 488 1127 407.5 c 128
 1076 327 1076 327 1035.5 265 c 128
 995 203 995 203 970.5 165.5 c 128
 946 128 946 128 945 130 c 257
 876 130 l 257
 647 920 l 257
 585 1321 l 257
 579 1320 l 257
 558 901 l 257
 400 0 l 257
 208 0 l 257
 435 1290 l 257
 444 1500 l 257
 674 1520 l 257
 947 580 l 257
 956 320 l 257
 1057 580 l 257
 1648 1500 l 257
 1868 1520 l 257
 1600 0 l 257
 1400 0 l 257
EndSplineSet
EndChar
StartChar: N
Encoding: 48 78 48
GlifName: N_
Width: 1500
VWidth: 0
Flags: W
LayerCount: 2
Fore
SplineSet
1100 0 m 257
 666 1028 l 257
 600 1317 l 257
 594 1316 l 257
 576 1000 l 257
 400 0 l 257
 208 0 l 257
 435 1290 l 257
 442 1500 l 257
 674 1520 l 257
 1107 487 l 257
 1172 173 l 257
 1178 174 l 257
 1189 510 l 257
 1364 1500 l 257
 1557 1520 l 257
 1289 0 l 257
 1100 0 l 257
EndSplineSet
EndChar
StartChar: O
Encoding: 53 79 53
GlifName: O_
Width: 1600
VWidth: 0
Flags: W
LayerCount: 2
Fore
SplineSet
797 -17 m 257
 651 -9 651 -9 542.5 49.5 c 128
 434 108 434 108 366 208 c 128
 298 308 298 308 272 445.5 c 128
 246 583 246 583 266 750 c 257
 286 921 286 921 348.5 1065 c 128
 411 1209 411 1209 512.5 1312 c 128
 614 1415 614 1415 753.5 1470 c 128
 893 1525 893 1525 1067 1517 c 257
 1211 1511 1211 1511 1318.5 1452.5 c 128
 1426 1394 1426 1394 1494 1293.5 c 128
 1562 1193 1562 1193 1589 1054.5 c 128
 1616 916 1616 916 1598 750 c 257
 1579 576 1579 576 1516 430.5 c 128
 1453 285 1453 285 1350.5 182.5 c 128
 1248 80 1248 80 1108.5 26.5 c 128
 969 -27 969 -27 797 -17 c 257
1394 719 m 257
 1405 840 1405 840 1393.5 949.5 c 128
 1382 1059 1382 1059 1340.5 1143.5 c 128
 1299 1228 1299 1228 1223.5 1282 c 128
 1148 1336 1148 1336 1031 1347 c 257
 947 1354 947 1354 875.5 1335.5 c 128
 804 1317 804 1317 744.5 1278.5 c 128
 685 1240 685 1240 637.5 1185 c 128
 590 1130 590 1130 555.5 1065 c 128
 521 1000 521 1000 499.5 928.5 c 128
 478 857 478 857 470 785 c 257
 456 662 456 662 467.5 550.5 c 128
 479 439 479 439 521.5 353 c 128
 564 267 564 267 640 213.5 c 128
 716 160 716 160 832 153 c 257
 922 148 922 148 997 168 c 128
 1072 188 1072 188 1132 227 c 128
 1192 266 1192 266 1238 321 c 128
 1284 376 1284 376 1316.5 440.5 c 128
 1349 505 1349 505 1368 576 c 128
 1387 647 1387 647 1394 719 c 257
EndSplineSet
EndChar
StartChar: S
Encoding: 72 83 72
GlifName: S_
Width: 1100
VWidth: 0
Flags: W
LayerCount: 2
Fore
SplineSet
1098 1252 m 257
 1033 1304 1033 1304 971.5 1328 c 128
 910 1352 910 1352 836 1350 c 257
 773 1348 773 1348 714 1329.5 c 128
 655 1311 655 1311 610 1278.5 c 128
 565 1246 565 1246 538.5 1201 c 128
 512 1156 512 1156 514 1101 c 257
 515 1049 515 1049 540 1011.5 c 128
 565 974 565 974 605.5 943.5 c 128
 646 913 646 913 696.5 887 c 128
 747 861 747 861 800 832.5 c 128
 853 804 853 804 903.5 769.5 c 128
 954 735 954 735 993.5 688.5 c 128
 1033 642 1033 642 1057 579.5 c 128
 1081 517 1081 517 1081 432 c 257
 1081 321 1081 321 1031.5 234 c 128
 982 147 982 147 899 88.5 c 128
 816 30 816 30 708.5 2.5 c 128
 601 -25 601 -25 485 -17 c 257
 367 -9 367 -9 272.5 33 c 128
 178 75 178 75 108 134 c 257
 226 284 l 257
 250 262 250 262 279 240 c 128
 308 218 308 218 342 199 c 128
 376 180 376 180 415.5 166.5 c 128
 455 153 455 153 500 148 c 257
 557 141 557 141 623.5 153 c 128
 690 165 690 165 746.5 199 c 128
 803 233 803 233 840 291 c 128
 877 349 877 349 877 433 c 257
 877 488 877 488 852.5 529.5 c 128
 828 571 828 571 788 604.5 c 128
 748 638 748 638 697 666.5 c 128
 646 695 646 695 593 725 c 128
 540 755 540 755 489.5 789.5 c 128
 439 824 439 824 399 870 c 128
 359 916 359 916 335 976 c 128
 311 1036 311 1036 311 1116 c 257
 311 1216 311 1216 355.5 1291.5 c 128
 400 1367 400 1367 474 1417 c 128
 548 1467 548 1467 643.5 1492 c 128
 739 1517 739 1517 841 1517 c 257
 903 1517 903 1517 958 1504 c 128
 1013 1491 1013 1491 1060 1470 c 128
 1107 1449 1107 1449 1145.5 1423 c 128
 1184 1397 1184 1397 1214 1371 c 257
 1098 1252 l 257
EndSplineSet
EndChar
StartChar: W
Encoding: 93 87 93
GlifName: W_
Width: 1900
VWidth: 0
Flags: W
LayerCount: 2
Fore
SplineSet
1136 1500 m 257
 1293 1500 l 257
 1369 460 l 257
 1369 100 l 257
 1373 100 l 257
 1460 460 l 257
 1903 1500 l 257
 2078 1500 l 257
 1440 0 l 257
 1208 0 l 257
 1143 885 l 257
 1177 1243 l 257
 1050 885 l 257
 673 0 l 257
 441 0 l 257
 331 1500 l 257
 526 1520 l 257
 603 460 l 257
 603 100 l 257
 607 100 l 257
 693 460 l 257
 1136 1500 l 257
EndSplineSet
EndChar
StartChar: X
Encoding: 94 88 94
GlifName: X_
Width: 1300
VWidth: 0
Flags: W
LayerCount: 2
Fore
SplineSet
1014 0 m 257
 792 519 l 257
 747 700 l 257
 671 540 l 257
 251 0 l 257
 53 0 l 257
 673 799 l 257
 374 1500 l 257
 590 1520 l 257
 786 1056 l 257
 831 860 l 257
 894 1020 l 257
 1267 1500 l 257
 1467 1500 l 257
 904 776 l 257
 1234 0 l 257
 1014 0 l 257
EndSplineSet
EndChar
StartChar: Z
Encoding: 99 90 99
GlifName: Z_
Width: 1200
VWidth: 0
Flags: W
LayerCount: 2
Fore
SplineSet
1118 160 m 257
 1110 0 l 257
 81 0 l 257
 69 50 l 257
 927 1200 l 257
 1143 1380 l 257
 871 1340 l 257
 386 1340 l 257
 394 1500 l 257
 1340 1500 l 257
 1351 1478 l 257
 482 300 l 257
 273 120 l 257
 545 160 l 257
 1118 160 l 257
EndSplineSet
EndChar
StartChar: bracketleft
Encoding: 170 91 170
GlifName: bracketleft
Width: 900
VWidth: 0
Flags: W
LayerCount: 2
Fore
SplineSet
354 1320 m 257
 368 1520 l 257
 934 1520 l 257
 907 1370 l 257
 535 1370 l 257
 520 1170 l 257
 301 -70 l 257
 246 -270 l 257
 618 -270 l 257
 591 -420 l 257
 25 -420 l 257
 83 -220 l 257
 354 1320 l 257
EndSplineSet
EndChar
StartChar: asciicircum
Encoding: 135 94 135
GlifName: asciicircum
Width: 1500
VWidth: 0
Flags: W
LayerCount: 2
Fore
SplineSet
1533 912 m 257
 1332 912 l 257
 1012 1239 l 257
 987 1350 l 257
 923 1241 l 257
 499 914 l 257
 283 914 l 257
 941 1500 l 257
 1073 1517 l 257
 1533 912 l 257
EndSplineSet
EndChar
StartChar: underscore
Encoding: 548 95 548
GlifName: underscore
Width: 1100
VWidth: 0
Flags: W
LayerCount: 2
Fore
SplineSet
-52 -300 m 257
 1047 -300 l 257
 1019 -455 l 257
 -80 -455 l 257
 -52 -300 l 257
EndSplineSet
EndChar
StartChar: b
Encoding: 142 98 142
GlifName: b
Width: 1200
VWidth: 0
Flags: W
LayerCount: 2
Fore
SplineSet
412 171 m 257
 430 165 430 165 454.5 160 c 128
 479 155 479 155 506.5 151 c 128
 534 147 534 147 563.5 145 c 128
 593 143 593 143 621 143 c 257
 725 142 725 142 794 183.5 c 128
 863 225 863 225 907 291 c 128
 951 357 951 357 973.5 439 c 128
 996 521 996 521 1007 601 c 257
 1018 682 1018 682 1009.5 748 c 128
 1001 814 1001 814 977 860.5 c 128
 953 907 953 907 916.5 932 c 128
 880 957 880 957 835 957 c 257
 792 957 792 957 754.5 952.5 c 128
 717 948 717 948 681 935.5 c 128
 645 923 645 923 608 901 c 128
 571 879 571 879 530 845 c 257
 412 171 l 257
450 1420 m 257
 462 1600 l 257
 667 1620 l 257
 553 974 l 257
 654 1065 l 257
 710 1089 710 1089 764 1103 c 128
 818 1117 818 1117 874 1117 c 257
 957 1117 957 1117 1021 1077.5 c 128
 1085 1038 1085 1038 1126 968 c 128
 1167 898 1167 898 1184 802.5 c 128
 1201 707 1201 707 1189 596 c 257
 1174 457 1174 457 1125 344 c 128
 1076 231 1076 231 997.5 150.5 c 128
 919 70 919 70 812.5 26.5 c 128
 706 -17 706 -17 576 -17 c 257
 551 -17 551 -17 518 -15 c 128
 485 -13 485 -13 448.5 -9 c 128
 412 -5 412 -5 374.5 0 c 128
 337 5 337 5 304.5 10.5 c 128
 272 16 272 16 246 22.5 c 128
 220 29 220 29 206 35 c 257
 450 1420 l 257
EndSplineSet
EndChar
StartChar: e
Encoding: 231 101 231
GlifName: e
Width: 1100
VWidth: 0
Flags: W
LayerCount: 2
Fore
SplineSet
957 103 m 257
 927 75 927 75 891 52 c 128
 855 29 855 29 810 13 c 128
 765 -3 765 -3 711 -11 c 128
 657 -19 657 -19 592 -17 c 257
 466 -13 466 -13 384.5 36 c 128
 303 85 303 85 259 163.5 c 128
 215 242 215 242 203 342 c 128
 191 442 191 442 204 550 c 257
 217 660 217 660 258.5 762.5 c 128
 300 865 300 865 370.5 943.5 c 128
 441 1022 441 1022 539.5 1069.5 c 128
 638 1117 638 1117 766 1117 c 257
 860 1117 860 1117 929.5 1082.5 c 128
 999 1048 999 1048 1041 985.5 c 128
 1083 923 1083 923 1097 836.5 c 128
 1111 750 1111 750 1095 646 c 257
 1090 615 1090 615 1082.5 589 c 128
 1075 563 1075 563 1067 543 c 257
 1058 520 1058 520 1049 500 c 257
 378 500 l 257
 358 421 358 421 367 356.5 c 128
 376 292 376 292 407.5 246 c 128
 439 200 439 200 488.5 173.5 c 128
 538 147 538 147 600 143 c 257
 650 140 650 140 692 144.5 c 128
 734 149 734 149 767.5 158 c 128
 801 167 801 167 825.5 178 c 128
 850 189 850 189 865 199 c 257
 957 103 l 257
914 650 m 257
 916 653 916 653 919 666 c 128
 922 679 922 679 924.5 695.5 c 128
 927 712 927 712 928.5 727.5 c 128
 930 743 930 743 930 752 c 257
 930 788 930 788 920.5 823.5 c 128
 911 859 911 859 890 888.5 c 128
 869 918 869 918 835 937 c 128
 801 956 801 956 753 958 c 257
 677 961 677 961 624.5 943 c 128
 572 925 572 925 535 892.5 c 128
 498 860 498 860 473 818 c 128
 448 776 448 776 428 732 c 257
 356 623 l 257
 549 650 l 257
 914 650 l 257
EndSplineSet
EndChar
StartChar: f
Encoding: 261 102 261
GlifName: f
Width: 800
VWidth: 0
Flags: W
LayerCount: 2
Fore
SplineSet
373 940 m 257
 223 940 l 257
 251 1100 l 257
 401 1100 l 257
 429 1255 l 257
 447 1352 447 1352 478 1422.5 c 128
 509 1493 509 1493 556.5 1537.5 c 128
 604 1582 604 1582 670 1601.5 c 128
 736 1621 736 1621 823 1617 c 257
 868 1615 868 1615 903 1607.5 c 128
 938 1600 938 1600 966 1588 c 128
 994 1576 994 1576 1016 1561 c 128
 1038 1546 1038 1546 1056 1529 c 257
 961 1406 l 257
 929 1432 929 1432 888.5 1450 c 128
 848 1468 848 1468 806 1465 c 257
 768 1462 768 1462 736 1453 c 128
 704 1444 704 1444 679 1420.5 c 128
 654 1397 654 1397 635 1355 c 128
 616 1313 616 1313 604 1245 c 257
 578 1100 l 257
 868 1100 l 257
 820 940 l 257
 555 940 l 257
 390 0 l 257
 367 -109 367 -109 341 -190.5 c 128
 315 -272 315 -272 273.5 -325.5 c 128
 232 -379 232 -379 170 -403 c 128
 108 -427 108 -427 15 -420 c 257
 -45 -415 -45 -415 -77.5 -401.5 c 128
 -110 -388 -110 -388 -121 -382 c 257
 -56 -238 l 257
 -45 -242 -45 -242 -21 -250.5 c 128
 3 -259 3 -259 33 -260 c 257
 78 -262 78 -262 107 -244.5 c 128
 136 -227 136 -227 154.5 -193 c 128
 173 -159 173 -159 185 -110.5 c 128
 197 -62 197 -62 208 0 c 257
 373 940 l 257
EndSplineSet
EndChar
StartChar: g
Encoding: 289 103 289
GlifName: g
Width: 1200
VWidth: 0
Flags: W
LayerCount: 2
Fore
SplineSet
841 135 m 257
 735 25 l 257
 725 19 725 19 708.5 11 c 128
 692 3 692 3 668 -4 c 128
 644 -11 644 -11 613 -15 c 128
 582 -19 582 -19 543 -17 c 257
 455 -12 455 -12 388.5 32 c 128
 322 76 322 76 279.5 150 c 128
 237 224 237 224 219.5 325 c 128
 202 426 202 426 212 545 c 257
 222 663 222 663 267 769.5 c 128
 312 876 312 876 385.5 955.5 c 128
 459 1035 459 1035 558.5 1079.5 c 128
 658 1124 658 1124 778 1117 c 257
 815 1115 815 1115 858.5 1102.5 c 128
 902 1090 902 1090 931 1070 c 257
 986 958 l 257
 1015 1120 l 257
 1193 1100 l 257
 991 -46 l 257
 971 -158 971 -158 923 -249 c 128
 875 -340 875 -340 803 -403 c 128
 731 -466 731 -466 636 -496.5 c 128
 541 -527 541 -527 428 -517 c 257
 350 -510 350 -510 293.5 -489.5 c 128
 237 -469 237 -469 200 -446 c 257
 157 -420 157 -420 128 -388 c 257
 245 -278 l 257
 271 -296 271 -296 304 -312 c 257
 332 -326 332 -326 371 -339 c 128
 410 -352 410 -352 458 -357 c 257
 527 -365 527 -365 586 -344.5 c 128
 645 -324 645 -324 691 -280.5 c 128
 737 -237 737 -237 767.5 -173 c 128
 798 -109 798 -109 812 -31 c 257
 841 135 l 257
965 834 m 257
 938 866 938 866 905 892 c 257
 876 915 876 915 836 934 c 128
 796 953 796 953 747 957 c 257
 689 961 689 961 641.5 945.5 c 128
 594 930 594 930 556 899.5 c 128
 518 869 518 869 489 827.5 c 128
 460 786 460 786 440 737.5 c 128
 420 689 420 689 407.5 636.5 c 128
 395 584 395 584 391 533 c 257
 376 360 376 360 420.5 259.5 c 128
 465 159 465 159 579 144 c 257
 630 137 630 137 672 146 c 128
 714 155 714 155 749 174 c 128
 784 193 784 193 812.5 219.5 c 128
 841 246 841 246 866 275 c 257
 965 834 l 257
EndSplineSet
EndChar
StartChar: h
Encoding: 300 104 300
GlifName: h
Width: 1200
VWidth: 0
Flags: W
LayerCount: 2
Fore
SplineSet
382 0 m 257
 200 0 l 257
 446 1400 l 257
 462 1600 l 257
 667 1620 l 257
 549 950 l 257
 647 1054 l 257
 677 1075 677 1075 705.5 1087.5 c 128
 734 1100 734 1100 761 1106.5 c 128
 788 1113 788 1113 815 1115 c 128
 842 1117 842 1117 870 1117 c 257
 939 1117 939 1117 990.5 1086 c 128
 1042 1055 1042 1055 1073.5 1002 c 128
 1105 949 1105 949 1115.5 878.5 c 128
 1126 808 1126 808 1112 730 c 257
 984 0 l 257
 802 0 l 257
 927 709 l 257
 936 761 936 761 931.5 805 c 128
 927 849 927 849 910.5 881.5 c 128
 894 914 894 914 867 933.5 c 128
 840 953 840 953 804 957 c 257
 768 961 768 961 729 954 c 128
 690 947 690 947 653 931 c 128
 616 915 616 915 583.5 890 c 128
 551 865 551 865 528 833 c 257
 382 0 l 257
EndSplineSet
EndChar
StartChar: n
Encoding: 357 110 357
GlifName: n
Width: 1200
VWidth: 0
Flags: W
LayerCount: 2
Fore
SplineSet
382 0 m 257
 200 0 l 257
 393 1100 l 257
 579 1120 l 257
 547 937 l 257
 627 1044 l 257
 652 1061 652 1061 677 1075.5 c 128
 702 1090 702 1090 732.5 1100.5 c 128
 763 1111 763 1111 802 1115.5 c 128
 841 1120 841 1120 895 1117 c 257
 966 1112 966 1112 1014.5 1082 c 128
 1063 1052 1063 1052 1090 1002.5 c 128
 1117 953 1117 953 1123 888 c 128
 1129 823 1129 823 1116 750 c 257
 984 0 l 257
 802 0 l 257
 934 750 l 257
 950 842 950 842 919.5 897 c 128
 889 952 889 952 810 957 c 257
 776 959 776 959 740 951.5 c 128
 704 944 704 944 667.5 928.5 c 128
 631 913 631 913 596 891.5 c 128
 561 870 561 870 530 844 c 257
 382 0 l 257
EndSplineSet
EndChar
StartChar: p
Encoding: 397 112 397
GlifName: p
Width: 1200
VWidth: 0
Flags: W
LayerCount: 2
Fore
SplineSet
574 160 m 257
 682 160 682 160 757 189.5 c 128
 832 219 832 219 882 274 c 128
 932 329 932 329 960.5 406 c 128
 989 483 989 483 1003 578 c 257
 1015 660 1015 660 1008 727 c 128
 1001 794 1001 794 978 842.5 c 128
 955 891 955 891 917.5 920 c 128
 880 949 880 949 830 957 c 257
 785 964 785 964 744.5 957 c 128
 704 950 704 950 667 932 c 128
 630 914 630 914 595.5 887 c 128
 561 860 561 860 527 827 c 257
 410 160 l 257
 574 160 l 257
293 -500 m 257
 111 -500 l 257
 393 1100 l 257
 579 1120 l 257
 548 944 l 257
 643 1047 l 257
 663 1060 663 1060 684 1072.5 c 128
 705 1085 705 1085 729.5 1095 c 128
 754 1105 754 1105 784.5 1111 c 128
 815 1117 815 1117 854 1117 c 257
 938 1117 938 1117 1007.5 1080 c 128
 1077 1043 1077 1043 1122.5 972.5 c 128
 1168 902 1168 902 1185 799.5 c 128
 1202 697 1202 697 1183 565 c 257
 1165 443 1165 443 1118 339.5 c 128
 1071 236 1071 236 990 160.5 c 128
 909 85 909 85 792.5 42.5 c 128
 676 0 676 0 519 0 c 257
 382 0 l 257
 293 -500 l 257
EndSplineSet
EndChar
StartChar: q
Encoding: 435 113 435
GlifName: q
Width: 1200
VWidth: 0
Flags: W
LayerCount: 2
Fore
SplineSet
982 935 m 257
 946 943 946 943 890.5 949 c 128
 835 955 835 955 780 957 c 257
 711 960 711 960 657.5 942.5 c 128
 604 925 604 925 563 892.5 c 128
 522 860 522 860 492.5 816 c 128
 463 772 463 772 443 723 c 128
 423 674 423 674 411.5 622.5 c 128
 400 571 400 571 395 524 c 257
 385 429 385 429 392.5 360.5 c 128
 400 292 400 292 421.5 246.5 c 128
 443 201 443 201 478 175.5 c 128
 513 150 513 150 558 143 c 257
 597 137 597 137 637 144 c 128
 677 151 677 151 716.5 169 c 128
 756 187 756 187 793.5 213 c 128
 831 239 831 239 865 270 c 257
 982 935 l 257
841 136 m 257
 718 29 l 257
 690 17 690 17 667 8.5 c 128
 644 0 644 0 621.5 -6 c 128
 599 -12 599 -12 574.5 -14.5 c 128
 550 -17 550 -17 519 -17 c 257
 438 -17 438 -17 375.5 20 c 128
 313 57 313 57 272.5 126.5 c 128
 232 196 232 196 214.5 296.5 c 128
 197 397 197 397 208 524 c 257
 220 663 220 663 272 776 c 128
 324 889 324 889 405 967.5 c 128
 486 1046 486 1046 590.5 1085 c 128
 695 1124 695 1124 812 1117 c 257
 875 1113 875 1113 921.5 1109 c 128
 968 1105 968 1105 1009 1099.5 c 128
 1050 1094 1050 1094 1092 1085.5 c 128
 1134 1077 1134 1077 1187 1065 c 257
 911 -500 l 257
 729 -500 l 257
 841 136 l 257
EndSplineSet
EndChar
StartChar: r
Encoding: 447 114 447
GlifName: r
Width: 800
VWidth: 0
Flags: W
LayerCount: 2
Fore
SplineSet
800 950 m 257
 764 947 764 947 725.5 932 c 128
 687 917 687 917 650 891.5 c 128
 613 866 613 866 578.5 830.5 c 128
 544 795 544 795 514 750 c 257
 382 0 l 257
 200 0 l 257
 393 1100 l 257
 579 1120 l 257
 539 895 l 257
 670 1070 l 257
 700 1089 700 1089 743 1101.5 c 128
 786 1114 786 1114 837 1117 c 257
 870 1119 870 1119 894.5 1115.5 c 128
 919 1112 919 1112 935 1107 c 257
 953 1101 953 1101 967 1093 c 257
 926 935 l 257
 912 940 912 940 883 947.5 c 128
 854 955 854 955 800 950 c 257
EndSplineSet
EndChar
StartChar: x
Encoding: 580 120 580
GlifName: x
Width: 1100
VWidth: 0
Flags: W
LayerCount: 2
Fore
SplineSet
851 0 m 257
 650 382 l 257
 626 500 l 257
 560 382 l 257
 225 0 l 257
 26 0 l 257
 541 588 l 257
 273 1100 l 257
 488 1116 l 257
 663 781 l 257
 683 670 l 257
 740 781 l 257
 1021 1100 l 257
 1235 1117 l 257
 767 583 l 257
 1076 0 l 257
 851 0 l 257
EndSplineSet
EndChar
StartChar: y
Encoding: 582 121 582
GlifName: y
Width: 1100
VWidth: 0
Flags: W
LayerCount: 2
Fore
SplineSet
646 364 m 257
 1044 1100 l 257
 1237 1117 l 257
 624 -17 l 257
 559 -137 559 -137 508 -224.5 c 128
 457 -312 457 -312 407 -369 c 128
 357 -426 357 -426 302.5 -453.5 c 128
 248 -481 248 -481 177 -480 c 257
 126 -479 126 -479 80.5 -459 c 128
 35 -439 35 -439 0 -403 c 257
 92 -296 l 257
 106 -308 106 -308 127 -317.5 c 128
 148 -327 148 -327 172 -328 c 257
 209 -329 209 -329 237.5 -315.5 c 128
 266 -302 266 -302 295.5 -269.5 c 128
 325 -237 325 -237 359.5 -182.5 c 128
 394 -128 394 -128 442 -47 c 257
 227 1100 l 257
 400 1117 l 257
 411 1061 411 1061 422 999 c 257
 432 945 432 945 444.5 878 c 128
 457 811 457 811 471 740 c 257
 502 575 502 575 542 364 c 257
 553 132 l 257
 646 364 l 257
EndSplineSet
EndChar
StartChar: braceleft
Encoding: 168 123 168
GlifName: braceleft
Width: 1298
VWidth: 0
Flags: W
LayerCount: 2
Fore
SplineSet
348 625 m 257
 470 625 l 257
 528 631 528 631 561.5 648.5 c 128
 595 666 595 666 614.5 696.5 c 128
 634 727 634 727 644 772.5 c 128
 654 818 654 818 665 880 c 257
 707 1119 l 257
 726 1227 726 1227 755 1304.5 c 128
 784 1382 784 1382 829.5 1431.5 c 128
 875 1481 875 1481 940 1502 c 128
 1005 1523 1005 1523 1097 1519 c 257
 1142 1517 1142 1517 1173 1513 c 128
 1204 1509 1204 1509 1227.5 1503.5 c 128
 1251 1498 1251 1498 1271 1490 c 128
 1291 1482 1291 1482 1313 1472 c 257
 1228 1349 l 257
 1199 1364 1199 1364 1161 1369.5 c 128
 1123 1375 1123 1375 1092 1374 c 257
 1040 1372 1040 1372 1007.5 1356 c 128
 975 1340 975 1340 954 1309 c 128
 933 1278 933 1278 920.5 1230.5 c 128
 908 1183 908 1183 897 1119 c 257
 855 880 l 257
 843 809 843 809 831 759 c 128
 819 709 819 709 801 671.5 c 128
 783 634 783 634 756.5 605.5 c 128
 730 577 730 577 689 550 c 257
 707 529 707 529 720 490.5 c 128
 733 452 733 452 739.5 406 c 128
 746 360 746 360 745.5 311 c 128
 745 262 745 262 738 220 c 257
 696 -20 l 257
 685 -82 685 -82 679.5 -130 c 128
 674 -178 674 -178 683 -210 c 128
 692 -242 692 -242 719.5 -258.5 c 128
 747 -275 747 -275 801 -275 c 257
 809 -277 809 -277 817 -277 c 128
 825 -277 825 -277 833 -277 c 257
 845 -277 845 -277 860.5 -275 c 128
 876 -273 876 -273 891.5 -269 c 128
 907 -265 907 -265 921.5 -260.5 c 128
 936 -256 936 -256 946 -250 c 257
 988 -373 l 257
 965 -383 965 -383 943 -392.5 c 128
 921 -402 921 -402 894.5 -408.5 c 128
 868 -415 868 -415 834.5 -418.5 c 128
 801 -422 801 -422 755 -420 c 257
 664 -417 664 -417 609 -380.5 c 128
 554 -344 554 -344 527 -287.5 c 128
 500 -231 500 -231 497 -161 c 128
 494 -91 494 -91 506 -20 c 257
 548 220 l 257
 559 284 559 284 563.5 332 c 128
 568 380 568 380 558.5 411.5 c 128
 549 443 549 443 522 459 c 128
 495 475 495 475 443 475 c 257
 321 475 l 257
 348 625 l 257
EndSplineSet
EndChar
StartChar: asciitilde
Encoding: 136 126 136
GlifName: asciitilde
Width: 1500
VWidth: 0
Flags: W
LayerCount: 2
Fore
SplineSet
278 484 m 257
 297 550 297 550 336.5 611.5 c 128
 376 673 376 673 428.5 719 c 128
 481 765 481 765 543.5 789 c 128
 606 813 606 813 672 805 c 257
 717 799 717 799 755.5 781 c 128
 794 763 794 763 828.5 740 c 128
 863 717 863 717 895.5 692.5 c 128
 928 668 928 668 960 649 c 128
 992 630 992 630 1025 620 c 128
 1058 610 1058 610 1095 616 c 257
 1167 628 1167 628 1215.5 670 c 128
 1264 712 1264 712 1299 792 c 257
 1442 776 l 257
 1422 703 1422 703 1381 634 c 128
 1340 565 1340 565 1285.5 514 c 128
 1231 463 1231 463 1166.5 436.5 c 128
 1102 410 1102 410 1036 422 c 257
 1000 428 1000 428 965 446.5 c 128
 930 465 930 465 895 488 c 128
 860 511 860 511 825 535.5 c 128
 790 560 790 560 755 578.5 c 128
 720 597 720 597 685 607 c 128
 650 617 650 617 614 611 c 257
 553 600 553 600 504 567 c 128
 455 534 455 534 424 468 c 257
 278 484 l 257
EndSplineSet
EndChar
StartChar: sterling
Encoding: 506 163 506
GlifName: sterling
Width: 1100
VWidth: 0
Flags: W
LayerCount: 2
Fore
SplineSet
399 850 m 257
 560 850 l 257
 661 1165 l 257
 694 1267 694 1267 726.5 1335 c 128
 759 1403 759 1403 801.5 1443.5 c 128
 844 1484 844 1484 901 1501.5 c 128
 958 1519 958 1519 1040 1520 c 257
 1091 1521 1091 1521 1132 1512.5 c 128
 1173 1504 1173 1504 1206 1487 c 257
 1273 1454 1273 1454 1296 1428 c 257
 1188 1327 l 257
 1180 1332 1180 1332 1165 1339 c 128
 1150 1346 1150 1346 1132 1352.5 c 128
 1114 1359 1114 1359 1095 1364.5 c 128
 1076 1370 1076 1370 1060 1372 c 257
 1015 1378 1015 1378 983 1371 c 128
 951 1364 951 1364 926.5 1337.5 c 128
 902 1311 902 1311 880.5 1263.5 c 128
 859 1216 859 1216 835 1141 c 257
 742 850 l 257
 949 850 l 257
 903 700 l 257
 695 700 l 257
 563 263 563 263 527 224 c 257
 418 104 l 257
 587 147 l 257
 1025 147 l 257
 1000 0 l 257
 54 0 l 257
 99 147 l 257
 237 147 l 257
 272 147 272 147 320 197 c 257
 367 245 367 245 513 700 c 257
 373 700 l 257
 399 850 l 257
EndSplineSet
EndChar
StartChar: yen
Encoding: 585 165 585
GlifName: yen
Width: 1200
VWidth: 0
Flags: W
LayerCount: 2
Fore
SplineSet
196 550 m 257
 591 550 l 257
 608 645 l 257
 590 700 l 257
 223 700 l 257
 249 850 l 257
 539 850 l 257
 323 1500 l 257
 531 1520 l 257
 719 954 l 257
 754 705 l 257
 824 935 l 257
 1212 1500 l 257
 1404 1500 l 257
 958 850 l 257
 1249 850 l 257
 1223 700 l 257
 855 700 l 257
 818 646 l 257
 801 550 l 257
 1196 550 l 257
 1170 400 l 257
 775 400 l 257
 705 0 l 257
 495 0 l 257
 565 400 l 257
 170 400 l 257
 196 550 l 257
EndSplineSet
EndChar
StartChar: dieresis
Encoding: 223 168 223
GlifName: dieresis
Width: 1100
VWidth: 0
Flags: W
LayerCount: 2
Fore
SplineSet
564 1500 m 257
 764 1500 l 257
 729 1300 l 257
 529 1300 l 257
 564 1500 l 257
964 1500 m 257
 1164 1500 l 257
 1129 1300 l 257
 929 1300 l 257
 964 1500 l 257
EndSplineSet
EndChar
StartChar: ordfeminine
Encoding: 393 170 393
GlifName: ordfeminine
Width: 800
VWidth: 0
Flags: W
LayerCount: 2
Fore
SplineSet
241 800 m 257
 641 800 l 257
 623 700 l 257
 223 700 l 257
 241 800 l 257
665 1427 m 257
 656 1431 656 1431 643.5 1434 c 128
 631 1437 631 1437 619 1438 c 257
 606 1440 606 1440 591 1441 c 257
 540 1441 540 1441 502 1423.5 c 128
 464 1406 464 1406 437.5 1375.5 c 128
 411 1345 411 1345 395.5 1304.5 c 128
 380 1264 380 1264 375 1218 c 257
 369 1172 369 1172 374 1137.5 c 128
 379 1103 379 1103 391 1080 c 128
 403 1057 403 1057 422 1045.5 c 128
 441 1034 441 1034 463 1034 c 257
 489 1034 489 1034 511 1041 c 128
 533 1048 533 1048 551.5 1059.5 c 128
 570 1071 570 1071 585 1085.5 c 128
 600 1100 600 1100 612 1115 c 257
 665 1427 l 257
586 962 m 257
 600 1043 l 257
 542 986 l 257
 532 978 532 978 521.5 971.5 c 128
 511 965 511 965 499 961 c 128
 487 957 487 957 471 955 c 128
 455 953 455 953 433 953 c 257
 392 953 392 953 361 974 c 128
 330 995 330 995 311 1032 c 128
 292 1069 292 1069 285 1119.5 c 128
 278 1170 278 1170 285 1230 c 257
 292 1285 292 1285 315 1337.5 c 128
 338 1390 338 1390 378 1431 c 128
 418 1472 418 1472 475.5 1496.5 c 128
 533 1521 533 1521 608 1521 c 257
 638 1518 638 1518 668 1514 c 257
 693 1511 693 1511 720.5 1506 c 128
 748 1501 748 1501 768 1493 c 257
 692 1052 l 257
 687 962 l 257
 586 962 l 257
EndSplineSet
EndChar
StartChar: logicalnot
Encoding: 341 172 341
GlifName: logicalnot
Width: 1700
VWidth: 0
Flags: W
LayerCount: 2
Fore
SplineSet
1558 800 m 257
 1503 589 l 257
 1449 280 l 257
 1249 280 l 257
 1279 449 l 257
 1328 640 l 257
 324 640 l 257
 353 800 l 257
 1558 800 l 257
EndSplineSet
EndChar
StartChar: cedilla
Encoding: 181 184 181
GlifName: cedilla
Width: 1100
VWidth: 0
Flags: W
LayerCount: 2
Fore
SplineSet
524 0 m 257
 542 -27 542 -27 554 -59 c 257
 565 -86 565 -86 571 -122 c 128
 577 -158 577 -158 572 -198 c 257
 565 -248 565 -248 542 -287 c 128
 519 -326 519 -326 484.5 -352.5 c 128
 450 -379 450 -379 405.5 -393 c 128
 361 -407 361 -407 311 -407 c 257
 269 -407 269 -407 225.5 -393.5 c 128
 182 -380 182 -380 146 -363 c 257
 104 -344 104 -344 65 -318 c 257
 154 -218 l 257
 177 -235 177 -235 203 -248 c 257
 225 -259 225 -259 252.5 -269 c 128
 280 -279 280 -279 309 -279 c 257
 352 -280 352 -280 382 -259 c 128
 412 -238 412 -238 420 -189 c 257
 425 -156 425 -156 415 -122 c 128
 405 -88 405 -88 390 -61 c 257
 372 -29 372 -29 348 0 c 257
 524 0 l 257
EndSplineSet
EndChar
StartChar: ordmasculine
Encoding: 394 186 394
GlifName: ordmasculine
Width: 800
VWidth: 0
Flags: W
LayerCount: 2
Fore
SplineSet
241 800 m 257
 641 800 l 257
 623 700 l 257
 223 700 l 257
 241 800 l 257
441 950 m 257
 386 954 386 954 346 976 c 128
 306 998 306 998 281.5 1035 c 128
 257 1072 257 1072 248 1123 c 128
 239 1174 239 1174 245 1235 c 257
 252 1296 252 1296 277.5 1349 c 128
 303 1402 303 1402 342.5 1440.5 c 128
 382 1479 382 1479 432.5 1500 c 128
 483 1521 483 1521 540 1517 c 257
 595 1514 595 1514 635 1492.5 c 128
 675 1471 675 1471 700 1434 c 128
 725 1397 725 1397 734.5 1346.5 c 128
 744 1296 744 1296 737 1235 c 257
 731 1173 731 1173 705 1119.5 c 128
 679 1066 679 1066 639 1027 c 128
 599 988 599 988 548 967.5 c 128
 497 947 497 947 441 950 c 257
642 1209 m 257
 650 1249 650 1249 651 1286.5 c 128
 652 1324 652 1324 641.5 1354.5 c 128
 631 1385 631 1385 607.5 1406.5 c 128
 584 1428 584 1428 543 1436 c 257
 503 1444 503 1444 468 1431 c 128
 433 1418 433 1418 406.5 1392 c 128
 380 1366 380 1366 362.5 1330.5 c 128
 345 1295 345 1295 339 1258 c 257
 333 1217 333 1217 332 1179 c 128
 331 1141 331 1141 341 1111 c 128
 351 1081 351 1081 374 1060 c 128
 397 1039 397 1039 438 1032 c 257
 477 1024 477 1024 511.5 1037.5 c 128
 546 1051 546 1051 572.5 1076.5 c 128
 599 1102 599 1102 617 1137 c 128
 635 1172 635 1172 642 1209 c 257
EndSplineSet
EndChar
StartChar: Eth
Encoding: 26 208 26
GlifName: E_th
Width: 1300
VWidth: 0
Flags: W
LayerCount: 2
Fore
SplineSet
150 856 m 257
 749 856 l 257
 722 701 l 257
 123 701 l 257
 150 856 l 257
394 1500 m 257
 425 1503 425 1503 466 1505 c 128
 507 1507 507 1507 550.5 1508.5 c 128
 594 1510 594 1510 636 1510.5 c 128
 678 1511 678 1511 711 1511 c 257
 870 1511 870 1511 992 1472.5 c 128
 1114 1434 1114 1434 1193.5 1350 c 128
 1273 1266 1273 1266 1306.5 1133 c 128
 1340 1000 1340 1000 1322 810 c 257
 1308 661 1308 661 1266 543.5 c 128
 1224 426 1224 426 1160 336 c 128
 1096 246 1096 246 1014 182 c 128
 932 118 932 118 838 77.5 c 128
 744 37 744 37 642 18.5 c 128
 540 0 540 0 436 0 c 257
 160 0 l 257
 387 1290 l 257
 394 1500 l 257
562 1150 m 257
 550 1083 550 1083 527 953 c 257
 517 897 517 897 504 822 c 128
 491 747 491 747 474 649.5 c 128
 457 552 457 552 435.5 430.5 c 128
 414 309 414 309 388 160 c 257
 408 160 l 257
 553 160 553 160 659.5 186 c 128
 766 212 766 212 842 257.5 c 128
 918 303 918 303 968 364 c 128
 1018 425 1018 425 1049.5 495 c 128
 1081 565 1081 565 1098 640 c 128
 1115 715 1115 715 1126 788 c 257
 1144 908 1144 908 1136 1012 c 128
 1128 1116 1128 1116 1079.5 1193 c 128
 1031 1270 1031 1270 934.5 1314 c 128
 838 1358 838 1358 680 1358 c 257
 664 1358 664 1358 646 1357 c 128
 628 1356 628 1356 611 1354 c 257
 592 1352 592 1352 573 1350 c 257
 562 1150 l 257
EndSplineSet
EndChar
StartChar: multiply
Encoding: 356 215 356
GlifName: multiply
Width: 1600
VWidth: 0
Flags: W
LayerCount: 2
Fore
SplineSet
1060 627 m 257
 1410 203 l 257
 1268 102 l 257
 959 477 l 257
 960 477 l 257
 919 576 l 257
 884 477 l 257
 442 102 l 257
 335 203 l 257
 836 627 l 257
 485 1052 l 257
 628 1153 l 257
 937 777 l 257
 977 679 l 257
 1013 777 l 257
 1454 1153 l 257
 1560 1052 l 257
 1060 627 l 257
EndSplineSet
EndChar
StartChar: germandbls
Encoding: 291 223 291
GlifName: germandbls
Width: 1300
VWidth: 0
Flags: W
LayerCount: 2
Fore
SplineSet
1052 1148 m 257
 1058 1196 1058 1196 1044 1235.5 c 128
 1030 1275 1030 1275 1003.5 1304.5 c 128
 977 1334 977 1334 942 1350.5 c 128
 907 1367 907 1367 871 1369 c 257
 793 1372 793 1372 747 1356 c 128
 701 1340 701 1340 669 1304 c 257
 641 1273 641 1273 626.5 1239 c 128
 612 1205 612 1205 604 1160 c 257
 397 -17 l 257
 202 0 l 257
 397 1111 l 257
 431 1306 431 1306 555 1418 c 257
 583 1443 583 1443 612.5 1461.5 c 128
 642 1480 642 1480 681.5 1492.5 c 128
 721 1505 721 1505 773.5 1511 c 128
 826 1517 826 1517 900 1517 c 257
 982 1517 982 1517 1047.5 1490.5 c 128
 1113 1464 1113 1464 1157.5 1417.5 c 128
 1202 1371 1202 1371 1223 1307.5 c 128
 1244 1244 1244 1244 1237 1169 c 257
 1231 1106 1231 1106 1212.5 1058 c 128
 1194 1010 1194 1010 1163.5 972.5 c 128
 1133 935 1133 935 1092 908 c 128
 1051 881 1051 881 1001 860 c 257
 839 816 l 257
 984 802 l 257
 1042 784 1042 784 1089.5 753.5 c 128
 1137 723 1137 723 1168 680.5 c 128
 1199 638 1199 638 1211.5 582.5 c 128
 1224 527 1224 527 1213 460 c 257
 1204 366 1204 366 1172 295.5 c 128
 1140 225 1140 225 1093 174 c 128
 1046 123 1046 123 986.5 89.5 c 128
 927 56 927 56 862 36 c 128
 797 16 797 16 729.5 8 c 128
 662 0 662 0 600 0 c 257
 568 160 l 257
 667 160 667 160 746 171.5 c 128
 825 183 825 183 882.5 215 c 128
 940 247 940 247 975 303.5 c 128
 1010 360 1010 360 1021 450 c 257
 1038 591 1038 591 954.5 660.5 c 128
 871 730 871 730 708 730 c 257
 666 885 l 257
 730 885 730 885 795 897.5 c 128
 860 910 860 910 914 940.5 c 128
 968 971 968 971 1005.5 1021.5 c 128
 1043 1072 1043 1072 1052 1148 c 257
EndSplineSet
EndChar
StartChar: eth
Encoding: 256 240 256
GlifName: eth
Width: 1300
VWidth: 0
Flags: W
LayerCount: 2
Fore
SplineSet
645 1168 m 257
 889 1347 l 257
 766 1326 l 257
 721 1352 721 1352 674.5 1365 c 128
 628 1378 628 1378 574 1378 c 257
 561 1378 561 1378 551.5 1377 c 128
 542 1376 542 1376 539 1375 c 257
 539 1518 l 257
 556 1520 556 1520 571 1520 c 128
 586 1520 586 1520 601 1520 c 257
 711 1520 711 1520 802.5 1490 c 128
 894 1460 894 1460 968 1405 c 257
 1127 1522 l 257
 1204 1407 l 257
 992 1252 l 257
 1110 1255 l 257
 1183 1124 1183 1124 1207 963 c 128
 1231 802 1231 802 1219 620 c 257
 1215 563 1215 563 1194 490.5 c 128
 1173 418 1173 418 1135.5 343.5 c 128
 1098 269 1098 269 1045.5 199 c 128
 993 129 993 129 926 76.5 c 128
 859 24 859 24 779 -3 c 128
 699 -30 699 -30 606 -20 c 257
 498 -8 498 -8 425 27 c 128
 352 62 352 62 308 122 c 128
 264 182 264 182 245.5 268 c 128
 227 354 227 354 228 469 c 257
 228 544 228 544 250 609.5 c 128
 272 675 272 675 309 728 c 128
 346 781 346 781 396.5 821.5 c 128
 447 862 447 862 504.5 888 c 128
 562 914 562 914 625 924 c 128
 688 934 688 934 750 927 c 257
 817 919 817 919 878.5 902 c 128
 940 885 940 885 1002 847 c 257
 1064 730 l 257
 1065 804 1065 804 1056.5 872.5 c 128
 1048 941 1048 941 1030 1001 c 128
 1012 1061 1012 1061 983 1110 c 128
 954 1159 954 1159 914 1194 c 257
 722 1053 l 257
 645 1168 l 257
1021 607 m 257
 1002 630 1002 630 972.5 655.5 c 128
 943 681 943 681 906 703.5 c 128
 869 726 869 726 826 743.5 c 128
 783 761 783 761 737 767 c 257
 665 777 665 777 605 754 c 128
 545 731 545 731 501.5 686.5 c 128
 458 642 458 642 433 580.5 c 128
 408 519 408 519 405 451 c 257
 400 314 400 314 459 237 c 128
 518 160 518 160 633 140 c 257
 693 130 693 130 746 148.5 c 128
 799 167 799 167 842.5 205.5 c 128
 886 244 886 244 918.5 298 c 128
 951 352 951 352 971 412 c 257
 989 468 989 468 1000.5 513 c 128
 1012 558 1012 558 1021 607 c 257
EndSplineSet
EndChar
StartChar: oslash
Encoding: 395 248 395
GlifName: oslash
Width: 1200
VWidth: 0
Flags: W
LayerCount: 2
Fore
SplineSet
408 -100 m 257
 198 -100 l 257
 998 1209 l 257
 1198 1209 l 257
 408 -100 l 257
596 -17 m 257
 486 -10 486 -10 406 34 c 128
 326 78 326 78 277 152.5 c 128
 228 227 228 227 210 328.5 c 128
 192 430 192 430 205 553 c 257
 218 675 218 675 269 781 c 128
 320 887 320 887 399 964 c 128
 478 1041 478 1041 579.5 1082.5 c 128
 681 1124 681 1124 795 1117 c 257
 905 1111 905 1111 985 1067.5 c 128
 1065 1024 1065 1024 1114.5 950.5 c 128
 1164 877 1164 877 1183 776 c 128
 1202 675 1202 675 1189 553 c 257
 1176 428 1176 428 1124 321 c 128
 1072 214 1072 214 992.5 136.5 c 128
 913 59 913 59 811 17.5 c 128
 709 -24 709 -24 596 -17 c 257
999 500 m 257
 1014 580 1014 580 1016 655 c 128
 1018 730 1018 730 997.5 791 c 128
 977 852 977 852 930 895 c 128
 883 938 883 938 800 955 c 257
 720 971 720 971 650.5 945 c 128
 581 919 581 919 528 867 c 128
 475 815 475 815 440 744 c 128
 405 673 405 673 393 599 c 257
 380 516 380 516 378.5 440.5 c 128
 377 365 377 365 396.5 304.5 c 128
 416 244 416 244 462 202.5 c 128
 508 161 508 161 591 146 c 257
 669 131 669 131 737.5 157.5 c 128
 806 184 806 184 859.5 235.5 c 128
 913 287 913 287 949 357 c 128
 985 427 985 427 999 500 c 257
EndSplineSet
EndChar
StartChar: oe
Encoding: 377 339 377
GlifName: oe
Width: 1900
VWidth: 0
Flags: W
LayerCount: 2
Fore
SplineSet
999 500 m 257
 1014 580 1014 580 1016 655 c 128
 1018 730 1018 730 997.5 791 c 128
 977 852 977 852 930 895 c 128
 883 938 883 938 800 955 c 257
 720 971 720 971 650.5 945 c 128
 581 919 581 919 528 867 c 128
 475 815 475 815 440 744 c 128
 405 673 405 673 393 599 c 257
 380 516 380 516 378.5 440.5 c 128
 377 365 377 365 396.5 304.5 c 128
 416 244 416 244 462 202.5 c 128
 508 161 508 161 591 146 c 257
 669 131 669 131 737.5 157.5 c 128
 806 184 806 184 859.5 235.5 c 128
 913 287 913 287 949 357 c 128
 985 427 985 427 999 500 c 257
1720 650 m 257
 1722 653 1722 653 1725 666 c 128
 1728 679 1728 679 1730.5 695.5 c 128
 1733 712 1733 712 1734.5 727.5 c 128
 1736 743 1736 743 1736 752 c 257
 1736 788 1736 788 1726.5 823.5 c 128
 1717 859 1717 859 1696 888.5 c 128
 1675 918 1675 918 1641 937 c 128
 1607 956 1607 956 1559 958 c 257
 1483 961 1483 961 1430.5 943 c 128
 1378 925 1378 925 1341 892.5 c 128
 1304 860 1304 860 1279 818 c 128
 1254 776 1254 776 1234 732 c 257
 1162 623 l 257
 1355 650 l 257
 1720 650 l 257
1763 103 m 257
 1733 75 1733 75 1697 52 c 128
 1661 29 1661 29 1616 13 c 128
 1571 -3 1571 -3 1517 -11 c 128
 1463 -19 1463 -19 1398 -17 c 257
 1282 -12 1282 -12 1199.5 28.5 c 128
 1117 69 1117 69 1070 137 c 257
 1046 214 l 257
 1005 138 l 257
 965 99 965 99 917.5 69 c 128
 870 39 870 39 817.5 18.5 c 128
 765 -2 765 -2 709 -11 c 128
 653 -20 653 -20 596 -17 c 257
 486 -10 486 -10 406 34 c 128
 326 78 326 78 277 152.5 c 128
 228 227 228 227 210 328.5 c 128
 192 430 192 430 205 553 c 257
 218 675 218 675 269 781 c 128
 320 887 320 887 399 964 c 128
 478 1041 478 1041 579.5 1082.5 c 128
 681 1124 681 1124 795 1117 c 257
 901 1111 901 1111 982.5 1071.5 c 128
 1064 1032 1064 1032 1115 964 c 257
 1134 885 l 257
 1185 962 l 257
 1254 1033 1254 1033 1352.5 1075 c 128
 1451 1117 1451 1117 1572 1117 c 257
 1666 1117 1666 1117 1735.5 1082.5 c 128
 1805 1048 1805 1048 1847 985.5 c 128
 1889 923 1889 923 1903 836.5 c 128
 1917 750 1917 750 1901 646 c 257
 1896 615 1896 615 1888.5 589 c 128
 1881 563 1881 563 1873 543 c 257
 1864 520 1864 520 1855 500 c 257
 1184 500 l 257
 1164 421 1164 421 1173 356.5 c 128
 1182 292 1182 292 1213.5 246 c 128
 1245 200 1245 200 1294.5 173.5 c 128
 1344 147 1344 147 1406 143 c 257
 1456 140 1456 140 1498 144.5 c 128
 1540 149 1540 149 1573.5 158 c 128
 1607 167 1607 167 1631.5 178 c 128
 1656 189 1656 189 1671 199 c 257
 1763 103 l 257
EndSplineSet
EndChar
StartChar: florin
Encoding: 279 402 279
GlifName: florin
Width: 1400
VWidth: 0
Flags: W
LayerCount: 2
Fore
SplineSet
1432 1347 m 257
 1423 1352 1423 1352 1410.5 1356.5 c 128
 1398 1361 1398 1361 1383.5 1364.5 c 128
 1369 1368 1369 1368 1354.5 1370.5 c 128
 1340 1373 1340 1373 1328 1374 c 257
 1280 1378 1280 1378 1248.5 1362.5 c 128
 1217 1347 1217 1347 1193.5 1314 c 128
 1170 1281 1170 1281 1149 1231 c 128
 1128 1181 1128 1181 1100 1117 c 257
 973 828 l 257
 1269 828 l 257
 1202 674 l 257
 962 674 l 257
 930 730 l 257
 600 -21 l 257
 556 -121 556 -121 522 -199.5 c 128
 488 -278 488 -278 446.5 -331 c 128
 405 -384 405 -384 347 -410 c 128
 289 -436 289 -436 198 -431 c 257
 152 -429 152 -429 117 -425 c 128
 82 -421 82 -421 54 -415 c 128
 26 -409 26 -409 4 -401.5 c 128
 -18 -394 -18 -394 -37 -384 c 257
 68 -251 l 257
 77 -256 77 -256 89.5 -260.5 c 128
 102 -265 102 -265 116 -268.5 c 128
 130 -272 130 -272 145 -274.5 c 128
 160 -277 160 -277 172 -278 c 257
 220 -283 220 -283 250 -267 c 128
 280 -251 280 -251 303 -217.5 c 128
 326 -184 326 -184 348 -134 c 128
 370 -84 370 -84 400 -21 c 257
 705 674 l 257
 424 674 l 257
 491 828 l 257
 708 828 l 257
 748 771 l 257
 818 927 818 927 867 1043 c 128
 916 1159 916 1159 955 1242 c 128
 994 1325 994 1325 1027.5 1378.5 c 128
 1061 1432 1061 1432 1099 1462.5 c 128
 1137 1493 1137 1493 1185 1505 c 128
 1233 1517 1233 1517 1301 1517 c 257
 1347 1517 1347 1517 1379 1513.5 c 128
 1411 1510 1411 1510 1435 1503.5 c 128
 1459 1497 1459 1497 1478 1488.5 c 128
 1497 1480 1497 1480 1517 1470 c 257
 1432 1347 l 257
EndSplineSet
EndChar
StartChar: circumflex
Encoding: 194 710 194
GlifName: circumflex
Width: 1100
VWidth: 0
Flags: W
LayerCount: 2
Fore
SplineSet
995 1220 m 257
 845 1220 l 257
 771 1372 l 257
 757 1460 l 257
 712 1373 l 257
 584 1220 l 257
 434 1220 l 257
 659 1500 l 257
 863 1520 l 257
 995 1220 l 257
EndSplineSet
EndChar
StartChar: caron
Encoding: 178 711 178
GlifName: caron
Width: 1100
VWidth: 0
Flags: W
LayerCount: 2
Fore
SplineSet
810 1220 m 257
 613 1240 l 257
 487 1520 l 257
 637 1520 l 257
 724 1387 l 257
 730 1310 l 257
 764 1388 l 257
 898 1520 l 257
 1048 1520 l 257
 810 1220 l 257
EndSplineSet
EndChar
StartChar: ring
Encoding: 461 730 461
GlifName: ring
Width: 1100
VWidth: 0
Flags: W
LayerCount: 2
Fore
SplineSet
788 1636 m 257
 836 1628 836 1628 873.5 1606.5 c 128
 911 1585 911 1585 936 1553.5 c 128
 961 1522 961 1522 973 1482.5 c 128
 985 1443 985 1443 983 1399 c 257
 980 1342 980 1342 955.5 1296.5 c 128
 931 1251 931 1251 892.5 1219.5 c 128
 854 1188 854 1188 805.5 1172 c 128
 757 1156 757 1156 706 1158 c 257
 662 1159 662 1159 624.5 1179.5 c 128
 587 1200 587 1200 560 1233 c 128
 533 1266 533 1266 519 1309 c 128
 505 1352 505 1352 508 1399 c 257
 511 1449 511 1449 535.5 1495.5 c 128
 560 1542 560 1542 599 1576 c 128
 638 1610 638 1610 687.5 1627 c 128
 737 1644 737 1644 788 1636 c 257
725 1275 m 257
 749 1270 749 1270 774.5 1277 c 128
 800 1284 800 1284 821.5 1300.5 c 128
 843 1317 843 1317 856 1342 c 128
 869 1367 869 1367 867 1398 c 257
 864 1450 864 1450 840.5 1479.5 c 128
 817 1509 817 1509 767 1519 c 257
 741 1524 741 1524 715.5 1515.5 c 128
 690 1507 690 1507 669.5 1489.5 c 128
 649 1472 649 1472 636.5 1448 c 128
 624 1424 624 1424 625 1398 c 257
 628 1296 628 1296 725 1275 c 257
EndSplineSet
EndChar
StartChar: hungarumlaut
Encoding: 308 733 308
GlifName: hungarumlaut
Width: 1100
VWidth: 0
Flags: W
LayerCount: 2
Fore
SplineSet
642 1500 m 257
 876 1520 l 257
 502 1117 l 257
 352 1117 l 257
 642 1500 l 257
1005 1500 m 257
 1239 1520 l 257
 865 1117 l 257
 715 1117 l 257
 1005 1500 l 257
EndSplineSet
EndChar
StartChar: Gamma
Encoding: 32 915 32
GlifName: G_amma
Width: 1100
VWidth: 0
Flags: W
LayerCount: 2
Fore
SplineSet
602 1150 m 257
 400 0 l 257
 200 0 l 257
 429 1300 l 257
 447 1500 l 257
 1284 1500 l 257
 1258 1350 l 257
 623 1350 l 257
 602 1150 l 257
EndSplineSet
EndChar
StartChar: Lambda
Encoding: 45 923 45
GlifName: L_ambda
Width: 1300
VWidth: 0
Flags: W
LayerCount: 2
Fore
SplineSet
868 1100 m 257
 878 1360 l 257
 796 1100 l 257
 246 0 l 257
 62 0 l 257
 714 1300 l 257
 784 1500 l 257
 1005 1520 l 257
 1235 0 l 257
 1035 0 l 257
 868 1100 l 257
EndSplineSet
EndChar
StartChar: Xi
Encoding: 95 926 95
GlifName: X_i
Width: 1200
VWidth: 0
Flags: W
LayerCount: 2
Fore
SplineSet
356 885 m 257
 1156 885 l 257
 1125 711 l 257
 325 711 l 257
 356 885 l 257
130 174 m 257
 1130 174 l 257
 1100 0 l 257
 100 0 l 257
 130 174 l 257
364 1500 m 257
 1364 1500 l 257
 1333 1326 l 257
 333 1326 l 257
 364 1500 l 257
EndSplineSet
EndChar
StartChar: Sigma
Encoding: 75 931 75
GlifName: S_igma
Width: 1200
VWidth: 0
Flags: W
LayerCount: 2
Fore
SplineSet
953 700 m 257
 528 317 l 257
 268 125 l 257
 524 170 l 257
 1130 170 l 257
 1101 0 l 257
 80 0 l 257
 132 183 l 257
 723 700 l 257
 885 750 l 257
 741 800 l 257
 332 1317 l 257
 344 1500 l 257
 1365 1500 l 257
 1335 1330 l 257
 729 1330 l 257
 488 1375 l 257
 681 1183 l 257
 971 800 l 257
 953 700 l 257
EndSplineSet
EndChar
StartChar: Omegagreek
Encoding: 60 937 60
GlifName: O_megagreek
Width: 1600
VWidth: 0
Flags: W
LayerCount: 2
Fore
SplineSet
130 160 m 257
 328 160 l 257
 518 100 l 257
 345 304 l 257
 312 356 312 356 292.5 413 c 128
 273 470 273 470 264 530 c 128
 255 590 255 590 254.5 651.5 c 128
 254 713 254 713 260 775 c 257
 276 940 276 940 338 1079.5 c 128
 400 1219 400 1219 503 1318.5 c 128
 606 1418 606 1418 748 1471.5 c 128
 890 1525 890 1525 1067 1517 c 257
 1193 1511 1193 1511 1299.5 1458 c 128
 1406 1405 1406 1405 1481 1309.5 c 128
 1556 1214 1556 1214 1592 1079 c 128
 1628 944 1628 944 1612 775 c 257
 1603 683 1603 683 1578.5 608.5 c 128
 1554 534 1554 534 1522.5 475.5 c 128
 1491 417 1491 417 1458.5 374.5 c 128
 1426 332 1426 332 1402 304 c 257
 1116 100 l 257
 1327 160 l 257
 1525 160 l 257
 1497 0 l 257
 949 0 l 257
 984 200 l 257
 1050 219 1050 219 1119.5 263 c 128
 1189 307 1189 307 1248.5 375 c 128
 1308 443 1308 443 1349 535.5 c 128
 1390 628 1390 628 1399 744 c 257
 1409 884 1409 884 1394 993.5 c 128
 1379 1103 1379 1103 1334.5 1179.5 c 128
 1290 1256 1290 1256 1215 1298.5 c 128
 1140 1341 1140 1341 1031 1347 c 257
 936 1352 936 1352 858.5 1332 c 128
 781 1312 781 1312 720.5 1274 c 128
 660 1236 660 1236 615.5 1183.5 c 128
 571 1131 571 1131 541 1069.5 c 128
 511 1008 511 1008 494.5 941.5 c 128
 478 875 478 875 474 810 c 257
 467 697 467 697 474 604 c 128
 481 511 481 511 505.5 436 c 128
 530 361 530 361 574 302.5 c 128
 618 244 618 244 685 200 c 257
 650 0 l 257
 102 0 l 257
 130 160 l 257
EndSplineSet
EndChar
StartChar: alpha
Encoding: 110 945 110
GlifName: alpha
Width: 1400
VWidth: 0
Flags: W
LayerCount: 2
Fore
SplineSet
1362 996 m 257
 1274 939 1274 939 1255 851 c 257
 1244 806 1244 806 1230 732 c 128
 1216 658 1216 658 1197 552 c 257
 1159 337 1159 337 1152 269 c 257
 1149 234 1149 234 1154 207 c 128
 1159 180 1159 180 1170 160.5 c 128
 1181 141 1181 141 1197 131 c 128
 1213 121 1213 121 1231 121 c 257
 1253 121 1253 121 1264 122.5 c 128
 1275 124 1275 124 1288 126 c 257
 1320 10 l 257
 1260 -17 1260 -17 1197 -17 c 257
 1063 -17 1063 -17 1008 52 c 257
 984 196 l 257
 914 84 l 257
 865 50 865 50 810 26 c 257
 759 4 759 4 706 -10.5 c 128
 653 -25 653 -25 596 -17 c 257
 485 -2 485 -2 406 47 c 128
 327 96 327 96 278 171.5 c 128
 229 247 229 247 209 344.5 c 128
 189 442 189 442 197 553 c 257
 207 695 207 695 262.5 805 c 128
 318 915 318 915 402 988.5 c 128
 486 1062 486 1062 588.5 1095.5 c 128
 691 1129 691 1129 795 1117 c 257
 851 1111 851 1111 900 1103.5 c 128
 949 1096 949 1096 991 1074 c 257
 1017 1061 1017 1061 1039 1045.5 c 128
 1061 1030 1061 1030 1081 1011 c 257
 1108 900 l 257
 1182 1038 l 257
 1204 1055 1204 1055 1231.5 1070.5 c 128
 1259 1086 1259 1086 1293 1100 c 257
 1362 996 l 257
1002 526 m 257
 1005 600 1005 600 999.5 674 c 128
 994 748 994 748 969.5 809.5 c 128
 945 871 945 871 896.5 912.5 c 128
 848 954 848 954 764 962 c 257
 672 971 672 971 602.5 939.5 c 128
 533 908 533 908 486.5 851 c 128
 440 794 440 794 416 720.5 c 128
 392 647 392 647 390 572 c 257
 388 492 388 492 394.5 419 c 128
 401 346 401 346 426 288 c 128
 451 230 451 230 498.5 190.5 c 128
 546 151 546 151 627 138 c 257
 679 129 679 129 726.5 141 c 128
 774 153 774 153 815.5 179.5 c 128
 857 206 857 206 890.5 244.5 c 128
 924 283 924 283 948 329 c 128
 972 375 972 375 986 425.5 c 128
 1000 476 1000 476 1002 526 c 257
EndSplineSet
EndChar
StartChar: beta
Encoding: 147 946 147
GlifName: beta
Width: 1200
VWidth: 0
Flags: W
LayerCount: 2
Fore
SplineSet
428 217 m 257
 449 202 449 202 473 190 c 257
 493 179 493 179 518 170 c 128
 543 161 543 161 568 160 c 257
 665 155 665 155 743.5 166 c 128
 822 177 822 177 880 210 c 128
 938 243 938 243 974 301.5 c 128
 1010 360 1010 360 1021 450 c 257
 1038 591 1038 591 954.5 660.5 c 128
 871 730 871 730 708 730 c 257
 666 885 l 257
 730 885 730 885 795 897.5 c 128
 860 910 860 910 914 940.5 c 128
 968 971 968 971 1005.5 1021.5 c 128
 1043 1072 1043 1072 1052 1148 c 257
 1058 1196 1058 1196 1044 1235.5 c 128
 1030 1275 1030 1275 1003.5 1304.5 c 128
 977 1334 977 1334 942 1350.5 c 128
 907 1367 907 1367 871 1369 c 257
 793 1372 793 1372 747 1356 c 128
 701 1340 701 1340 669 1304 c 257
 641 1273 641 1273 626.5 1239 c 128
 612 1205 612 1205 604 1160 c 257
 428 217 l 257
308 -517 m 257
 111 -500 l 257
 397 1111 l 257
 431 1306 431 1306 555 1418 c 257
 583 1443 583 1443 612.5 1461.5 c 128
 642 1480 642 1480 681.5 1492.5 c 128
 721 1505 721 1505 773.5 1511 c 128
 826 1517 826 1517 900 1517 c 257
 982 1517 982 1517 1047.5 1490.5 c 128
 1113 1464 1113 1464 1157.5 1417.5 c 128
 1202 1371 1202 1371 1223 1307.5 c 128
 1244 1244 1244 1244 1237 1169 c 257
 1231 1106 1231 1106 1212.5 1058 c 128
 1194 1010 1194 1010 1163.5 972.5 c 128
 1133 935 1133 935 1092 908 c 128
 1051 881 1051 881 1001 860 c 257
 839 816 l 257
 984 802 l 257
 1042 784 1042 784 1089.5 753.5 c 128
 1137 723 1137 723 1168 680.5 c 128
 1199 638 1199 638 1211.5 582.5 c 128
 1224 527 1224 527 1213 460 c 257
 1204 366 1204 366 1172 295.5 c 128
 1140 225 1140 225 1093 174 c 128
 1046 123 1046 123 986.5 89.5 c 128
 927 56 927 56 862 36 c 128
 797 16 797 16 729.5 8 c 128
 662 0 662 0 600 0 c 257
 568 -1 568 -1 535 3 c 257
 506 6 506 6 472 12 c 128
 438 18 438 18 405 32 c 257
 308 -517 l 257
EndSplineSet
EndChar
StartChar: delta
Encoding: 220 948 220
GlifName: delta
Width: 1200
VWidth: 0
Flags: W
LayerCount: 2
Fore
SplineSet
622 127 m 257
 685 117 685 117 747 147.5 c 128
 809 178 809 178 859.5 234.5 c 128
 910 291 910 291 942.5 367 c 128
 975 443 975 443 978 526 c 257
 980 592 980 592 974 656.5 c 128
 968 721 968 721 945 775 c 128
 922 829 922 829 879 868 c 128
 836 907 836 907 765 921 c 257
 696 935 696 935 631 910.5 c 128
 566 886 566 886 516 832.5 c 128
 466 779 466 779 435.5 700 c 128
 405 621 405 621 404 526 c 257
 403 449 403 449 411 381 c 128
 419 313 419 313 442.5 260.5 c 128
 466 208 466 208 509 173 c 128
 552 138 552 138 622 127 c 257
1224 1500 m 257
 1153 1342 l 257
 801 1342 l 257
 766 1342 766 1342 736.5 1339.5 c 128
 707 1337 707 1337 685 1331 c 128
 663 1325 663 1325 649 1313.5 c 128
 635 1302 635 1302 632 1284 c 257
 629 1267 629 1267 644 1249.5 c 128
 659 1232 659 1232 685 1215 c 128
 711 1198 711 1198 744 1181 c 128
 777 1164 777 1164 809.5 1148.5 c 128
 842 1133 842 1133 870 1118.5 c 128
 898 1104 898 1104 915 1091 c 257
 980 1041 980 1041 1032.5 987 c 128
 1085 933 1085 933 1121 866 c 128
 1157 799 1157 799 1175.5 716 c 128
 1194 633 1194 633 1192 526 c 257
 1191 454 1191 454 1167 384 c 128
 1143 314 1143 314 1102 251 c 128
 1061 188 1061 188 1005.5 135 c 128
 950 82 950 82 884.5 45.5 c 128
 819 9 819 9 747 -8 c 128
 675 -25 675 -25 601 -17 c 257
 484 -4 484 -4 407.5 45.5 c 128
 331 95 331 95 285.5 170 c 128
 240 245 240 245 221.5 340 c 128
 203 435 203 435 204 539 c 257
 206 708 206 708 299.5 831.5 c 128
 393 955 393 955 575 1015 c 257
 778 1015 l 257
 685 1059 l 257
 624 1080 624 1080 580 1102 c 128
 536 1124 536 1124 508 1150.5 c 128
 480 1177 480 1177 467 1210.5 c 128
 454 1244 454 1244 454 1289 c 257
 454 1346 454 1346 473 1384 c 128
 492 1422 492 1422 523.5 1445 c 128
 555 1468 555 1468 595.5 1480 c 128
 636 1492 636 1492 679.5 1496 c 128
 723 1500 723 1500 766.5 1500 c 128
 810 1500 810 1500 847 1500 c 257
 1224 1500 l 257
EndSplineSet
EndChar
StartChar: epsilon
Encoding: 248 949 248
GlifName: epsilon
Width: 1000
VWidth: 0
Flags: W
LayerCount: 2
Fore
SplineSet
831 633 m 257
 788 500 l 257
 534 500 l 257
 485 500 485 500 444.5 486 c 128
 404 472 404 472 375 446.5 c 128
 346 421 346 421 330 386.5 c 128
 314 352 314 352 315 312 c 257
 317 240 317 240 372.5 193.5 c 128
 428 147 428 147 539 137 c 257
 598 132 598 132 644.5 140.5 c 128
 691 149 691 149 723 163 c 257
 761 178 761 178 790 200 c 257
 862 99 l 257
 836 63 836 63 785 36 c 257
 763 24 763 24 733.5 13.5 c 128
 704 3 704 3 665.5 -4.5 c 128
 627 -12 627 -12 579 -16 c 128
 531 -20 531 -20 472 -17 c 257
 400 -14 400 -14 334 9 c 128
 268 32 268 32 219.5 74 c 128
 171 116 171 116 144.5 176 c 128
 118 236 118 236 125 313 c 257
 129 356 129 356 143.5 396.5 c 128
 158 437 158 437 181 470.5 c 128
 204 504 204 504 234 528 c 128
 264 552 264 552 298 564 c 257
 246 602 246 602 226 662.5 c 128
 206 723 206 723 212 810 c 257
 218 898 218 898 260 957 c 128
 302 1016 302 1016 366.5 1051.5 c 128
 431 1087 431 1087 510.5 1102 c 128
 590 1117 590 1117 671 1117 c 257
 728 1117 728 1117 776.5 1108.5 c 128
 825 1100 825 1100 862 1090 c 257
 905 1079 905 1079 941 1064 c 257
 864 944 l 257
 839 947 839 947 811 951 c 257
 786 954 786 954 754 957 c 128
 722 960 722 960 684 963 c 257
 621 967 621 967 568.5 956.5 c 128
 516 946 516 946 478.5 922.5 c 128
 441 899 441 899 420 865.5 c 128
 399 832 399 832 399 791 c 257
 399 758 399 758 410 729.5 c 128
 421 701 421 701 441 679.5 c 128
 461 658 461 658 490.5 645.5 c 128
 520 633 520 633 557 633 c 257
 831 633 l 257
EndSplineSet
EndChar
StartChar: eta
Encoding: 255 951 255
GlifName: eta
Width: 1200
VWidth: 0
Flags: W
LayerCount: 2
Fore
SplineSet
390 0 m 257
 206 0 l 257
 399 1100 l 257
 587 1120 l 257
 555 937 l 257
 635 1044 l 257
 667 1065 667 1065 697.5 1079 c 128
 728 1093 728 1093 760 1101.5 c 128
 792 1110 792 1110 829 1113.5 c 128
 866 1117 866 1117 911 1117 c 257
 989 1117 989 1117 1036.5 1082.5 c 128
 1084 1048 1084 1048 1107.5 994.5 c 128
 1131 941 1131 941 1134 876 c 128
 1137 811 1137 811 1126 750 c 257
 905 -500 l 257
 721 -500 l 257
 942 750 l 257
 951 800 951 800 945 839 c 128
 939 878 939 878 922 904.5 c 128
 905 931 905 931 878 944.5 c 128
 851 958 851 958 818 957 c 257
 733 954 733 954 665.5 924.5 c 128
 598 895 598 895 538 844 c 257
 390 0 l 257
EndSplineSet
EndChar
StartChar: theta
Encoding: 517 952 517
GlifName: theta
Width: 1200
VWidth: 0
Flags: W
LayerCount: 2
Fore
SplineSet
596 -20 m 257
 505 -11 505 -11 440.5 24.5 c 128
 376 60 376 60 333 116 c 128
 290 172 290 172 266 245 c 128
 242 318 242 318 232 400.5 c 128
 222 483 222 483 223 572 c 128
 224 661 224 661 232 750 c 257
 240 842 240 842 264.5 937 c 128
 289 1032 289 1032 329 1120.5 c 128
 369 1209 369 1209 424 1286 c 128
 479 1363 479 1363 547 1417.5 c 128
 615 1472 615 1472 695.5 1500.5 c 128
 776 1529 776 1529 868 1520 c 257
 960 1511 960 1511 1025.5 1475 c 128
 1091 1439 1091 1439 1135.5 1382.5 c 128
 1180 1326 1180 1326 1204.5 1253 c 128
 1229 1180 1229 1180 1238.5 1097.5 c 128
 1248 1015 1248 1015 1245.5 926 c 128
 1243 837 1243 837 1232 750 c 257
 1221 661 1221 661 1194.5 567.5 c 128
 1168 474 1168 474 1126.5 385.5 c 128
 1085 297 1085 297 1030 219.5 c 128
 975 142 975 142 908 86 c 128
 841 30 841 30 762.5 1 c 128
 684 -28 684 -28 596 -20 c 257
839 1357 m 257
 784 1364 784 1364 734 1344 c 128
 684 1324 684 1324 640 1284 c 128
 596 1244 596 1244 559.5 1188.5 c 128
 523 1133 523 1133 495.5 1071 c 128
 468 1009 468 1009 450 944 c 128
 432 879 432 879 426 820 c 257
 1062 820 l 257
 1063 878 1063 878 1063.5 938.5 c 128
 1064 999 1064 999 1058.5 1056 c 128
 1053 1113 1053 1113 1040.5 1164 c 128
 1028 1215 1028 1215 1002.5 1255.5 c 128
 977 1296 977 1296 937.5 1322.5 c 128
 898 1349 898 1349 839 1357 c 257
625 143 m 257
 670 134 670 134 715 150 c 128
 760 166 760 166 801.5 201 c 128
 843 236 843 236 880 286.5 c 128
 917 337 917 337 947.5 398.5 c 128
 978 460 978 460 1000.5 529 c 128
 1023 598 1023 598 1035 670 c 257
 400 670 l 257
 398 622 398 622 398 567 c 128
 398 512 398 512 403 457 c 128
 408 402 408 402 421 350.5 c 128
 434 299 434 299 459.5 256.5 c 128
 485 214 485 214 525.5 184 c 128
 566 154 566 154 625 143 c 257
EndSplineSet
EndChar
StartChar: iota
Encoding: 323 953 323
GlifName: iota
Width: 700
VWidth: 0
Flags: W
LayerCount: 2
Fore
SplineSet
359 902 m 257
 373 1100 l 257
 587 1120 l 257
 458 391 l 257
 453 365 453 365 449.5 334.5 c 128
 446 304 446 304 442 269 c 257
 437 217 437 217 458 178.5 c 128
 479 140 479 140 523 131 c 257
 544 126 544 126 555.5 130 c 128
 567 134 567 134 573 136 c 257
 620 10 l 257
 613 7 613 7 603.5 2 c 128
 594 -3 594 -3 580 -7 c 128
 566 -11 566 -11 545.5 -13.5 c 128
 525 -16 525 -16 497 -15 c 257
 401 -12 401 -12 348 24.5 c 128
 295 61 295 61 273.5 119.5 c 128
 252 178 252 178 254.5 252.5 c 128
 257 327 257 327 271 405 c 257
 359 902 l 257
EndSplineSet
EndChar
StartChar: kappa
Encoding: 327 954 327
GlifName: kappa
Width: 1000
VWidth: 0
Flags: W
LayerCount: 2
Fore
SplineSet
200 0 m 257
 362 919 l 257
 373 1099 l 257
 577 1119 l 257
 493 644 l 257
 943 1100 l 257
 1147 1121 l 257
 718 670 l 257
 551 600 l 257
 693 530 l 257
 1000 2 l 257
 800 2 l 257
 477 554 l 257
 380 0 l 257
 200 0 l 257
EndSplineSet
EndChar
StartChar: lambda
Encoding: 329 955 329
GlifName: lambda
Width: 1100
VWidth: 0
Flags: W
LayerCount: 2
Fore
SplineSet
720 968 m 257
 627 736 l 257
 230 0 l 257
 34 0 l 257
 653 1147 l 257
 641 1205 641 1205 626.5 1258 c 128
 612 1311 612 1311 592.5 1350 c 128
 573 1389 573 1389 545.5 1410.5 c 128
 518 1432 518 1432 481 1428 c 257
 457 1426 457 1426 433.5 1417 c 128
 410 1408 410 1408 391 1396 c 257
 337 1503 l 257
 385 1539 385 1539 437 1558 c 128
 489 1577 489 1577 540 1580 c 257
 597 1583 597 1583 640 1548 c 128
 683 1513 683 1513 717 1450 c 128
 751 1387 751 1387 778.5 1301 c 128
 806 1215 806 1215 833 1117 c 257
 1045 0 l 257
 871 0 l 257
 731 736 l 257
 720 968 l 257
EndSplineSet
EndChar
StartChar: pi
Encoding: 422 960 422
GlifName: pi
Width: 1300
VWidth: 0
Flags: W
LayerCount: 2
Fore
SplineSet
1147 950 m 257
 1049 393 l 257
 1040 341 1040 341 1032 293 c 128
 1024 245 1024 245 1027.5 209 c 128
 1031 173 1031 173 1052.5 152 c 128
 1074 131 1074 131 1123 133 c 257
 1134 133 1134 133 1146.5 135 c 128
 1159 137 1159 137 1170 139 c 257
 1182 142 1182 142 1194 145 c 257
 1252 19 l 257
 1233 10 1233 10 1196.5 -1 c 128
 1160 -12 1160 -12 1097 -13 c 257
 1035 -14 1035 -14 992 1.5 c 128
 949 17 949 17 920.5 45.5 c 128
 892 74 892 74 877 113 c 128
 862 152 862 152 857.5 199 c 128
 853 246 853 246 857 299 c 128
 861 352 861 352 871 407 c 257
 967 950 l 257
 587 950 l 257
 618 787 l 257
 480 0 l 257
 300 0 l 257
 422 694 l 257
 431 743 431 743 434 791 c 128
 437 839 437 839 430 876.5 c 128
 423 914 423 914 403.5 936 c 128
 384 958 384 958 348 954 c 257
 337 952 337 952 324.5 950.5 c 128
 312 949 312 949 301 947 c 257
 289 944 289 944 277 942 c 257
 219 1068 l 257
 238 1077 238 1077 274 1088.5 c 128
 310 1100 310 1100 371 1100 c 257
 1312 1100 l 257
 1266 950 l 257
 1147 950 l 257
EndSplineSet
EndChar
StartChar: sigma1
Encoding: 479 962 479
GlifName: sigma1
Width: 900
VWidth: 0
Flags: W
LayerCount: 2
Fore
SplineSet
986 885 m 257
 935 739 l 257
 889 745 889 745 835 747 c 128
 781 749 781 749 725 741.5 c 128
 669 734 669 734 615.5 716 c 128
 562 698 562 698 517.5 663.5 c 128
 473 629 473 629 441.5 576 c 128
 410 523 410 523 399 447 c 257
 393 409 393 409 396.5 369 c 128
 400 329 400 329 416.5 291.5 c 128
 433 254 433 254 464 221 c 128
 495 188 495 188 545 164 c 257
 618 129 618 129 677 96.5 c 128
 736 64 736 64 777 24 c 128
 818 -16 818 -16 839.5 -70 c 128
 861 -124 861 -124 860 -203 c 257
 859 -250 859 -250 838 -296 c 128
 817 -342 817 -342 777 -382.5 c 128
 737 -423 737 -423 678 -457.5 c 128
 619 -492 619 -492 542 -517 c 257
 475 -386 l 257
 510 -370 510 -370 543.5 -351 c 128
 577 -332 577 -332 603 -311.5 c 128
 629 -291 629 -291 644.5 -268.5 c 128
 660 -246 660 -246 660 -222 c 257
 659 -174 659 -174 639.5 -138.5 c 128
 620 -103 620 -103 586 -74 c 128
 552 -45 552 -45 505.5 -20.5 c 128
 459 4 459 4 405 30 c 257
 349 56 349 56 306 94.5 c 128
 263 133 263 133 235 184 c 128
 207 235 207 235 196 298.5 c 128
 185 362 185 362 193 437 c 257
 204 545 204 545 248 631.5 c 128
 292 718 292 718 372.5 777 c 128
 453 836 453 836 573 865 c 128
 693 894 693 894 856 885 c 257
 986 885 l 257
EndSplineSet
EndChar
StartChar: chi
Encoding: 185 967 185
GlifName: chi
Width: 1300
VWidth: 0
Flags: W
LayerCount: 2
Fore
SplineSet
699 49 m 257
 654 230 l 257
 578 70 l 257
 162 -500 l 257
 -35 -500 l 257
 581 329 l 257
 371 869 l 257
 358 901 358 901 341.5 924 c 128
 325 947 325 947 310 961 c 257
 292 978 292 978 274 987 c 257
 296 1117 l 257
 333 1117 333 1117 371 1107.5 c 128
 409 1098 409 1098 442.5 1077 c 128
 476 1056 476 1056 504.5 1022 c 128
 533 988 533 988 552 940 c 257
 693 586 l 257
 738 390 l 257
 801 550 l 257
 1196 1100 l 257
 1396 1100 l 257
 811 306 l 257
 1033 -269 l 257
 1053 -322 1053 -322 1070.5 -346.5 c 128
 1088 -371 1088 -371 1102 -380 c 257
 1117 -391 1117 -391 1130 -387 c 257
 1107 -517 l 257
 1075 -522 1075 -522 1042.5 -522 c 128
 1010 -522 1010 -522 977 -506 c 128
 944 -490 944 -490 912.5 -451.5 c 128
 881 -413 881 -413 852 -340 c 257
 699 49 l 257
EndSplineSet
EndChar
StartChar: psi
Encoding: 434 968 434
GlifName: psi
Width: 1500
VWidth: 0
Flags: W
LayerCount: 2
Fore
SplineSet
294 800 m 257
 487 820 l 257
 430 497 l 257
 417 425 417 425 416.5 358.5 c 128
 416 292 416 292 431.5 241 c 128
 447 190 447 190 482 159.5 c 128
 517 129 517 129 575 129 c 257
 591 128 591 128 609 128 c 257
 673 128 l 257
 844 1100 l 257
 1040 1120 l 257
 865 128 l 257
 911 128 911 128 942.5 128 c 128
 974 128 974 128 975 129 c 257
 1055 129 1055 129 1103 159.5 c 128
 1151 190 1151 190 1179.5 241 c 128
 1208 292 1208 292 1222.5 358.5 c 128
 1237 425 1237 425 1250 497 c 257
 1281 672 l 257
 1297 764 1297 764 1286 828 c 128
 1275 892 1275 892 1250.5 931.5 c 128
 1226 971 1226 971 1195 989 c 128
 1164 1007 1164 1007 1141 1007 c 257
 1160 1117 l 257
 1243 1117 1243 1117 1307.5 1078 c 128
 1372 1039 1372 1039 1413.5 978 c 128
 1455 917 1455 917 1471.5 843 c 128
 1488 769 1488 769 1476 699 c 257
 1440 495 l 257
 1431 448 1431 448 1421.5 391.5 c 128
 1412 335 1412 335 1393 278 c 128
 1374 221 1374 221 1343 168 c 128
 1312 115 1312 115 1260.5 73.5 c 128
 1209 32 1209 32 1133 7.5 c 128
 1057 -17 1057 -17 950 -17 c 257
 840 -17 l 257
 754 -500 l 257
 562 -500 l 257
 648 -17 l 257
 550 -17 l 257
 460 -17 460 -17 400.5 10 c 128
 341 37 341 37 304 80.5 c 128
 267 124 267 124 250 179.5 c 128
 233 235 233 235 228.5 292 c 128
 224 349 224 349 228.5 402 c 128
 233 455 233 455 240 495 c 257
 294 800 l 257
EndSplineSet
EndChar
StartChar: theta1
Encoding: 518 977 518
GlifName: theta1
Width: 1300
VWidth: 0
Flags: W
LayerCount: 2
Fore
SplineSet
393 481 m 257
 404 416 404 416 416.5 354.5 c 128
 429 293 429 293 453 246 c 128
 477 199 477 199 517.5 170.5 c 128
 558 142 558 142 625 143 c 257
 708 144 708 144 775.5 181 c 128
 843 218 843 218 895 285 c 128
 947 352 947 352 982.5 445 c 128
 1018 538 1018 538 1038 650 c 257
 614 650 l 257
 573 650 573 650 531.5 654.5 c 128
 490 659 490 659 451 672 c 128
 412 685 412 685 378.5 708.5 c 128
 345 732 345 732 320.5 768.5 c 128
 296 805 296 805 283 857 c 128
 270 909 270 909 272 980 c 257
 274 1040 274 1040 298 1103.5 c 128
 322 1167 322 1167 363 1227.5 c 128
 404 1288 404 1288 460 1341.5 c 128
 516 1395 516 1395 581.5 1435 c 128
 647 1475 647 1475 720 1498 c 128
 793 1521 793 1521 868 1520 c 257
 981 1519 981 1519 1061 1461.5 c 128
 1141 1404 1141 1404 1187.5 1306 c 128
 1234 1208 1234 1208 1247 1077.5 c 128
 1260 947 1260 947 1240 800 c 257
 1463 800 l 257
 1416 650 l 257
 1210 650 l 257
 1192 560 1192 560 1163 473 c 128
 1134 386 1134 386 1094 308.5 c 128
 1054 231 1054 231 1003 166.5 c 128
 952 102 952 102 890 57.5 c 128
 828 13 828 13 754.5 -8 c 128
 681 -29 681 -29 596 -20 c 257
 503 -10 503 -10 435 28.5 c 128
 367 67 367 67 320.5 124 c 128
 274 181 274 181 248.5 251.5 c 128
 223 322 223 322 216 394 c 257
 393 481 l 257
839 1357 m 257
 789 1363 789 1363 741 1351.5 c 128
 693 1340 693 1340 649 1314 c 128
 605 1288 605 1288 567.5 1250.5 c 128
 530 1213 530 1213 502.5 1168 c 128
 475 1123 475 1123 459 1073 c 128
 443 1023 443 1023 442 972 c 257
 441 906 441 906 459.5 871 c 128
 478 836 478 836 515.5 820.5 c 128
 553 805 553 805 609.5 802.5 c 128
 666 800 666 800 741 800 c 257
 1066 800 l 257
 1094 919 1094 919 1084 1018 c 128
 1074 1117 1074 1117 1038.5 1190 c 128
 1003 1263 1003 1263 949.5 1306 c 128
 896 1349 896 1349 839 1357 c 257
EndSplineSet
EndChar
StartChar: Upsilon1
Encoding: 91 978 91
GlifName: U_psilon1
Width: 1300
VWidth: 0
Flags: W
LayerCount: 2
Fore
SplineSet
1448 1517 m 257
 1425 1387 l 257
 1405 1389 1405 1389 1381 1380 c 257
 1361 1372 1361 1372 1334.5 1351.5 c 128
 1308 1331 1308 1331 1280 1289 c 257
 859 658 l 257
 743 0 l 257
 551 0 l 257
 667 658 l 257
 468 1289 l 257
 454 1331 454 1331 435 1351 c 128
 416 1371 416 1371 399 1379 c 257
 379 1389 379 1389 357 1387 c 257
 380 1517 l 257
 405 1517 405 1517 436.5 1512 c 128
 468 1507 468 1507 500 1489 c 128
 532 1471 532 1471 562.5 1436 c 128
 593 1401 593 1401 616 1340 c 257
 746 1000 l 257
 783 751 l 257
 900 1000 l 257
 1150 1340 l 257
 1204 1413 1204 1413 1243.5 1450 c 128
 1283 1487 1283 1487 1316.5 1502 c 128
 1350 1517 1350 1517 1381 1517 c 128
 1412 1517 1412 1517 1448 1517 c 257
EndSplineSet
EndChar
StartChar: phi1
Encoding: 418 981 418
GlifName: phi1
Width: 1500
VWidth: 0
Flags: W
LayerCount: 2
Fore
SplineSet
651 2 m 257
 549 16 549 16 469.5 53.5 c 128
 390 91 390 91 337 153 c 128
 284 215 284 215 258 301.5 c 128
 232 388 232 388 238 500 c 257
 243 594 243 594 277 667 c 128
 311 740 311 740 359 792 c 128
 407 844 407 844 461.5 876 c 128
 516 908 516 908 562 922 c 257
 637 804 l 257
 606 785 606 785 569 761.5 c 128
 532 738 532 738 498 703 c 128
 464 668 464 668 439 619 c 128
 414 570 414 570 407 500 c 257
 401 436 401 436 418 376.5 c 128
 435 317 435 317 471 269 c 128
 507 221 507 221 559 188 c 128
 611 155 611 155 676 145 c 257
 791 799 l 257
 801 853 801 853 826.5 889 c 128
 852 925 852 925 886.5 946.5 c 128
 921 968 921 968 961 977 c 128
 1001 986 1001 986 1040 986 c 257
 1122 986 1122 986 1195.5 948.5 c 128
 1269 911 1269 911 1323.5 845.5 c 128
 1378 780 1378 780 1408.5 691 c 128
 1439 602 1439 602 1435 500 c 257
 1432 417 1432 417 1405.5 349 c 128
 1379 281 1379 281 1335.5 227.5 c 128
 1292 174 1292 174 1235 134 c 128
 1178 94 1178 94 1113.5 66 c 128
 1049 38 1049 38 980 22.5 c 128
 911 7 911 7 843 2 c 257
 754 -500 l 257
 562 -500 l 257
 651 2 l 257
1054 840 m 257
 1027 840 1027 840 1006 828 c 128
 985 816 985 816 979 780 c 257
 867 143 l 257
 898 143 898 143 938 152 c 128
 978 161 978 161 1020.5 179.5 c 128
 1063 198 1063 198 1104.5 226.5 c 128
 1146 255 1146 255 1180 294.5 c 128
 1214 334 1214 334 1236.5 385 c 128
 1259 436 1259 436 1265 500 c 257
 1271 572 1271 572 1254.5 634 c 128
 1238 696 1238 696 1207 741.5 c 128
 1176 787 1176 787 1136 813.5 c 128
 1096 840 1096 840 1054 840 c 257
EndSplineSet
EndChar
StartChar: omega1
Encoding: 381 982 381
GlifName: omega1
Width: 1600
VWidth: 0
Flags: W
LayerCount: 2
Fore
SplineSet
1666 942 m 257
 1475 942 l 257
 1573 885 l 257
 1583 857 1583 857 1588 825 c 128
 1593 793 1593 793 1592.5 748.5 c 128
 1592 704 1592 704 1586 642.5 c 128
 1580 581 1580 581 1570 495 c 257
 1563 440 1563 440 1548 377 c 128
 1533 314 1533 314 1507 252.5 c 128
 1481 191 1481 191 1443 137 c 128
 1405 83 1405 83 1352.5 44.5 c 128
 1300 6 1300 6 1232.5 -12 c 128
 1165 -30 1165 -30 1080 -17 c 257
 1022 -8 1022 -8 979.5 3 c 128
 937 14 937 14 906 30 c 128
 875 46 875 46 853 68 c 128
 831 90 831 90 814 120 c 257
 787 90 787 90 756 62.5 c 128
 725 35 725 35 687.5 15.5 c 128
 650 -4 650 -4 604 -13.5 c 128
 558 -23 558 -23 501 -17 c 257
 412 -9 412 -9 352.5 21.5 c 128
 293 52 293 52 256 95.5 c 128
 219 139 219 139 202 192.5 c 128
 185 246 185 246 180 300 c 128
 175 354 175 354 179.5 404.5 c 128
 184 455 184 455 191 495 c 257
 206 580 206 580 221 641.5 c 128
 236 703 236 703 252.5 747.5 c 128
 269 792 269 792 287 824.5 c 128
 305 857 305 857 326 885 c 257
 444 942 l 257
 246 942 l 257
 293 1100 l 257
 1713 1100 l 257
 1666 942 l 257
1014 725 m 257
 971 482 l 257
 961 427 961 427 958.5 368.5 c 128
 956 310 956 310 969 260.5 c 128
 982 211 982 211 1014 175 c 128
 1046 139 1046 139 1105 129 c 257
 1165 119 1165 119 1210.5 148.5 c 128
 1256 178 1256 178 1289.5 231.5 c 128
 1323 285 1323 285 1345 355 c 128
 1367 425 1367 425 1380 497 c 257
 1399 605 1399 605 1403 680.5 c 128
 1407 756 1407 756 1400.5 807.5 c 128
 1394 859 1394 859 1379.5 890.5 c 128
 1365 922 1365 922 1348 942 c 257
 570 942 l 257
 545 922 545 922 519.5 890.5 c 128
 494 859 494 859 469.5 807.5 c 128
 445 756 445 756 422.5 680.5 c 128
 400 605 400 605 381 497 c 257
 368 425 368 425 369 363.5 c 128
 370 302 370 302 387.5 254 c 128
 405 206 405 206 439 173.5 c 128
 473 141 473 141 526 129 c 257
 585 115 585 115 628 142 c 128
 671 169 671 169 701.5 220.5 c 128
 732 272 732 272 752 341.5 c 128
 772 411 772 411 784 482 c 257
 831 745 l 257
 1014 725 l 257
EndSplineSet
EndChar
StartChar: hyphentwo
Encoding: 310 8208 310
GlifName: hyphentwo
Width: 900
VWidth: 0
Flags: W
LayerCount: 2
Fore
SplineSet
305 600 m 257
 805 600 l 257
 778 445 l 257
 278 445 l 257
 305 600 l 257
EndSplineSet
EndChar
StartChar: endash
Encoding: 247 8211 247
GlifName: endash
Width: 1100
VWidth: 0
Flags: W
LayerCount: 2
Fore
SplineSet
105 600 m 257
 1105 600 l 257
 1078 446 l 257
 78 446 l 257
 105 600 l 257
EndSplineSet
EndChar
StartChar: emdash
Encoding: 243 8212 243
GlifName: emdash
Width: 2100
VWidth: 0
Flags: W
LayerCount: 2
Fore
SplineSet
105 600 m 257
 2105 600 l 257
 2078 446 l 257
 78 446 l 257
 105 600 l 257
EndSplineSet
EndChar
StartChar: quotationdash
Encoding: 438 8213 438
GlifName: quotationdash
Width: 1600
VWidth: 0
Flags: W
LayerCount: 2
Fore
SplineSet
305 600 m 257
 1505 600 l 257
 1478 445 l 257
 278 445 l 257
 305 600 l 257
EndSplineSet
EndChar
StartChar: quotesinglbase
Encoding: 445 8218 445
GlifName: quotesinglbase
Width: 700
VWidth: 0
Flags: W
LayerCount: 2
Fore
SplineSet
194 105 m 257
 195 131 195 131 207 154.5 c 128
 219 178 219 178 238.5 195.5 c 128
 258 213 258 213 284 221.5 c 128
 310 230 310 230 339 226 c 257
 383 220 383 220 413 187.5 c 128
 443 155 443 155 442 91 c 257
 442 61 442 61 432 20.5 c 128
 422 -20 422 -20 397 -66.5 c 128
 372 -113 372 -113 328.5 -162.5 c 128
 285 -212 285 -212 218 -260 c 257
 177 -240 l 257
 204 -207 204 -207 226 -170 c 257
 245 -138 245 -138 262.5 -98 c 128
 280 -58 280 -58 285 -16 c 257
 243 -14 243 -14 217.5 16.5 c 128
 192 47 192 47 194 105 c 257
EndSplineSet
EndChar
StartChar: daggerdbl
Encoding: 216 8225 216
GlifName: daggerdbl
Width: 1000
VWidth: 0
Flags: W
LayerCount: 2
Fore
SplineSet
284 1049 m 257
 584 1049 l 257
 664 1500 l 257
 868 1520 l 257
 784 1049 l 257
 1104 1049 l 257
 1058 900 l 257
 758 900 l 257
 652 300 l 257
 952 300 l 257
 926 150 l 257
 626 150 l 257
 529 -400 l 257
 329 -400 l 257
 426 150 l 257
 126 150 l 257
 152 300 l 257
 452 300 l 257
 558 900 l 257
 258 900 l 257
 284 1049 l 257
EndSplineSet
EndChar
StartChar: guilsinglleft
Encoding: 298 8249 298
GlifName: guilsinglleft
Width: 900
VWidth: 0
Flags: W
LayerCount: 2
Fore
SplineSet
850 1026 m 257
 878 901 l 257
 502 610 l 257
 353 550 l 257
 480 490 l 257
 757 201 l 257
 679 66 l 257
 284 478 l 257
 308 617 l 257
 850 1026 l 257
EndSplineSet
EndChar
StartChar: guilsinglright
Encoding: 299 8250 299
GlifName: guilsinglright
Width: 900
VWidth: 0
Flags: W
LayerCount: 2
Fore
SplineSet
808 617 m 257
 784 478 l 257
 243 66 l 257
 213 201 l 257
 592 490 l 257
 739 550 l 257
 612 610 l 257
 338 901 l 257
 410 1026 l 257
 808 617 l 257
EndSplineSet
EndChar
StartChar: zerosuperior
Encoding: 589 8304 589
GlifName: zerosuperior
Width: 800
VWidth: 0
Flags: W
LayerCount: 2
Fore
SplineSet
299 711 m 257
 257 716 257 716 226 734.5 c 128
 195 753 195 753 173 781 c 128
 151 809 151 809 138 845 c 128
 125 881 125 881 118.5 921.5 c 128
 112 962 112 962 112 1006.5 c 128
 112 1051 112 1051 116 1095 c 257
 120 1140 120 1140 132.5 1187.5 c 128
 145 1235 145 1235 165 1279 c 128
 185 1323 185 1323 212.5 1361.5 c 128
 240 1400 240 1400 274 1427.5 c 128
 308 1455 308 1455 348 1469 c 128
 388 1483 388 1483 434 1478 c 257
 476 1474 476 1474 507 1456 c 128
 538 1438 538 1438 560 1410 c 128
 582 1382 582 1382 595.5 1345.5 c 128
 609 1309 609 1309 616 1268 c 128
 623 1227 623 1227 623 1182.5 c 128
 623 1138 623 1138 618 1095 c 257
 612 1049 612 1049 599 1001.5 c 128
 586 954 586 954 565 909.5 c 128
 544 865 544 865 516.5 826.5 c 128
 489 788 489 788 455.5 760.5 c 128
 422 733 422 733 382.5 719.5 c 128
 343 706 343 706 299 711 c 257
219 1116 m 257
 215 1087 215 1087 211.5 1053.5 c 128
 208 1020 208 1020 207.5 985.5 c 128
 207 951 207 951 211.5 919 c 128
 216 887 216 887 228.5 861.5 c 128
 241 836 241 836 262.5 819 c 128
 284 802 284 802 318 799 c 257
 347 796 347 796 372.5 806.5 c 128
 398 817 398 817 419 837 c 128
 440 857 440 857 456.5 884.5 c 128
 473 912 473 912 485 943.5 c 128
 497 975 497 975 504.5 1008.5 c 128
 512 1042 512 1042 514 1073 c 257
 516 1102 516 1102 519 1136 c 128
 522 1170 522 1170 522 1204.5 c 128
 522 1239 522 1239 517.5 1271 c 128
 513 1303 513 1303 501.5 1328.5 c 128
 490 1354 490 1354 469 1370.5 c 128
 448 1387 448 1387 415 1390 c 257
 384 1393 384 1393 359 1383 c 128
 334 1373 334 1373 314 1353 c 128
 294 1333 294 1333 278 1305 c 128
 262 1277 262 1277 250.5 1245.5 c 128
 239 1214 239 1214 231 1181 c 128
 223 1148 223 1148 219 1116 c 257
EndSplineSet
EndChar
StartChar: fivesuperior
Encoding: 275 8309 275
GlifName: fivesuperior
Width: 600
VWidth: 0
Flags: W
LayerCount: 2
Fore
SplineSet
285 1211 m 257
 289 1213 289 1213 298 1217.5 c 128
 307 1222 307 1222 319 1226.5 c 128
 331 1231 331 1231 345 1234 c 128
 359 1237 359 1237 372 1237 c 257
 426 1237 426 1237 464.5 1221 c 128
 503 1205 503 1205 527 1177 c 128
 551 1149 551 1149 561 1111 c 128
 571 1073 571 1073 569 1029 c 257
 565 974 565 974 545 930 c 128
 525 886 525 886 491.5 851.5 c 128
 458 817 458 817 414 792 c 128
 370 767 370 767 319 751 c 128
 268 735 268 735 212 727.5 c 128
 156 720 156 720 100 720 c 257
 114 800 l 257
 185 800 185 800 248 816 c 128
 311 832 311 832 359 861 c 128
 407 890 407 890 436 930 c 128
 465 970 465 970 469 1019 c 257
 471 1045 471 1045 463.5 1069 c 128
 456 1093 456 1093 440 1111.5 c 128
 424 1130 424 1130 400.5 1141.5 c 128
 377 1153 377 1153 348 1153 c 257
 307 1153 307 1153 279 1144.5 c 128
 251 1136 251 1136 227 1120 c 257
 170 1120 l 257
 232 1470 l 257
 603 1470 l 257
 589 1390 l 257
 317 1390 l 257
 285 1211 l 257
EndSplineSet
EndChar
StartChar: sixsuperior
Encoding: 484 8310 484
GlifName: sixsuperior
Width: 600
VWidth: 0
Flags: W
LayerCount: 2
Fore
SplineSet
582 1392 m 257
 579 1393 579 1393 572.5 1393 c 128
 566 1393 566 1393 560 1393 c 257
 516 1393 516 1393 477.5 1382 c 128
 439 1371 439 1371 405.5 1350.5 c 128
 372 1330 372 1330 343.5 1301.5 c 128
 315 1273 315 1273 292.5 1238.5 c 128
 270 1204 270 1204 252.5 1165 c 128
 235 1126 235 1126 224 1085 c 257
 276 1143 l 257
 290 1151 290 1151 308 1159 c 128
 326 1167 326 1167 345.5 1172.5 c 128
 365 1178 365 1178 384.5 1181.5 c 128
 404 1185 404 1185 421 1183 c 257
 464 1180 464 1180 498.5 1168 c 128
 533 1156 533 1156 557.5 1132 c 128
 582 1108 582 1108 594 1070 c 128
 606 1032 606 1032 605 976 c 257
 604 940 604 940 592.5 905 c 128
 581 870 581 870 562 839.5 c 128
 543 809 543 809 516.5 784 c 128
 490 759 490 759 457.5 742 c 128
 425 725 425 725 388 716.5 c 128
 351 708 351 708 311 711 c 257
 267 715 267 715 234.5 732 c 128
 202 749 202 749 180 774.5 c 128
 158 800 158 800 144.5 832.5 c 128
 131 865 131 865 124.5 899.5 c 128
 118 934 118 934 117.5 967.5 c 128
 117 1001 117 1001 119 1030 c 257
 124 1090 124 1090 143 1146.5 c 128
 162 1203 162 1203 192.5 1252.5 c 128
 223 1302 223 1302 264 1343.5 c 128
 305 1385 305 1385 354.5 1415 c 128
 404 1445 404 1445 461 1461.5 c 128
 518 1478 518 1478 580 1478 c 257
 587 1478 587 1478 596 1478 c 128
 605 1478 605 1478 610 1477 c 257
 582 1392 l 257
217 1018 m 257
 214 1004 214 1004 212.5 992.5 c 128
 211 981 211 981 210 970 c 128
 209 959 209 959 209 948 c 128
 209 937 209 937 210 923 c 257
 212 901 212 901 220 880 c 128
 228 859 228 859 242.5 841.5 c 128
 257 824 257 824 278 812 c 128
 299 800 299 800 327 796 c 257
 361 791 361 791 392 802 c 128
 423 813 423 813 446.5 836 c 128
 470 859 470 859 485.5 893.5 c 128
 501 928 501 928 505 971 c 257
 509 1024 509 1024 481.5 1058.5 c 128
 454 1093 454 1093 398 1098 c 257
 341 1104 341 1104 295.5 1084 c 128
 250 1064 250 1064 217 1018 c 257
EndSplineSet
EndChar
StartChar: eightsuperior
Encoding: 238 8312 238
GlifName: eightsuperior
Width: 600
VWidth: 0
Flags: W
LayerCount: 2
Fore
SplineSet
439 1478 m 257
 482 1476 482 1476 516.5 1463.5 c 128
 551 1451 551 1451 574 1428 c 128
 597 1405 597 1405 607.5 1372.5 c 128
 618 1340 618 1340 614 1297 c 257
 611 1267 611 1267 599 1244 c 128
 587 1221 587 1221 569.5 1203 c 128
 552 1185 552 1185 529.5 1170.5 c 128
 507 1156 507 1156 483 1143 c 257
 517 1126 517 1126 540 1105 c 128
 563 1084 563 1084 577 1057.5 c 128
 591 1031 591 1031 595.5 998 c 128
 600 965 600 965 597 925 c 257
 593 887 593 887 579.5 856 c 128
 566 825 566 825 544.5 800.5 c 128
 523 776 523 776 495.5 758 c 128
 468 740 468 740 437 728.5 c 128
 406 717 406 717 372.5 713 c 128
 339 709 339 709 307 711 c 257
 260 715 260 715 220.5 729.5 c 128
 181 744 181 744 154 771 c 128
 127 798 127 798 114 838 c 128
 101 878 101 878 106 932 c 257
 110 972 110 972 126 1004.5 c 128
 142 1037 142 1037 166.5 1063 c 128
 191 1089 191 1089 222.5 1109 c 128
 254 1129 254 1129 289 1145 c 257
 268 1159 268 1159 252 1175 c 128
 236 1191 236 1191 225.5 1208.5 c 128
 215 1226 215 1226 210.5 1246.5 c 128
 206 1267 206 1267 208 1292 c 257
 211 1341 211 1341 233 1377 c 128
 255 1413 255 1413 287.5 1436 c 128
 320 1459 320 1459 359.5 1469.5 c 128
 399 1480 399 1480 439 1478 c 257
367 1100 m 257
 333 1086 333 1086 303 1070 c 128
 273 1054 273 1054 250.5 1033.5 c 128
 228 1013 228 1013 214 987 c 128
 200 961 200 961 199 927 c 257
 197 896 197 896 205.5 872.5 c 128
 214 849 214 849 230.5 832.5 c 128
 247 816 247 816 270 806.5 c 128
 293 797 293 797 321 793 c 257
 353 789 353 789 385 797.5 c 128
 417 806 417 806 443 823.5 c 128
 469 841 469 841 485.5 867.5 c 128
 502 894 502 894 503 927 c 257
 504 962 504 962 493.5 988 c 128
 483 1014 483 1014 464 1034.5 c 128
 445 1055 445 1055 420 1071 c 128
 395 1087 395 1087 367 1100 c 257
401 1181 m 257
 426 1192 426 1192 448 1204 c 128
 470 1216 470 1216 486.5 1230.5 c 128
 503 1245 503 1245 513 1262.5 c 128
 523 1280 523 1280 523 1301 c 257
 524 1327 524 1327 516.5 1344 c 128
 509 1361 509 1361 496 1372 c 128
 483 1383 483 1383 467 1388.5 c 128
 451 1394 451 1394 434 1396 c 257
 411 1398 411 1398 387.5 1391.5 c 128
 364 1385 364 1385 345 1372 c 128
 326 1359 326 1359 313.5 1341 c 128
 301 1323 301 1323 301 1303 c 257
 301 1280 301 1280 308.5 1262 c 128
 316 1244 316 1244 329 1230 c 128
 342 1216 342 1216 360.5 1204 c 128
 379 1192 379 1192 401 1181 c 257
EndSplineSet
EndChar
StartChar: ninesuperior
Encoding: 364 8313 364
GlifName: ninesuperior
Width: 600
VWidth: 0
Flags: W
LayerCount: 2
Fore
SplineSet
482 1051 m 257
 465 1040 465 1040 449.5 1031.5 c 128
 434 1023 434 1023 418 1017 c 128
 402 1011 402 1011 385.5 1008.5 c 128
 369 1006 369 1006 350 1006 c 257
 307 1007 307 1007 271 1022.5 c 128
 235 1038 235 1038 210 1067 c 128
 185 1096 185 1096 171.5 1138 c 128
 158 1180 158 1180 160 1235 c 257
 161 1291 161 1291 184.5 1338 c 128
 208 1385 208 1385 247 1418.5 c 128
 286 1452 286 1452 337 1468.5 c 128
 388 1485 388 1485 445 1478 c 257
 494 1473 494 1473 528 1455.5 c 128
 562 1438 562 1438 584 1413 c 128
 606 1388 606 1388 617.5 1357 c 128
 629 1326 629 1326 633.5 1292.5 c 128
 638 1259 638 1259 637.5 1225 c 128
 637 1191 637 1191 635 1160 c 257
 631 1100 631 1100 611.5 1044 c 128
 592 988 592 988 560.5 938 c 128
 529 888 529 888 487.5 846.5 c 128
 446 805 446 805 396.5 775 c 128
 347 745 347 745 292 728 c 128
 237 711 237 711 179 711 c 257
 178 795 l 257
 241 796 241 796 299.5 819 c 128
 358 842 358 842 406 883 c 128
 454 924 454 924 487.5 981.5 c 128
 521 1039 521 1039 532 1110 c 257
 482 1051 l 257
542 1196 m 257
 543 1233 543 1233 539.5 1267 c 128
 536 1301 536 1301 524 1328 c 128
 512 1355 512 1355 489.5 1372.5 c 128
 467 1390 467 1390 431 1393 c 257
 395 1397 395 1397 365 1386 c 128
 335 1375 335 1375 312.5 1354.5 c 128
 290 1334 290 1334 276 1305.5 c 128
 262 1277 262 1277 258 1244 c 257
 255 1211 255 1211 259 1184.5 c 128
 263 1158 263 1158 276 1138.5 c 128
 289 1119 289 1119 311.5 1107 c 128
 334 1095 334 1095 368 1091 c 257
 394 1088 394 1088 420 1095 c 128
 446 1102 446 1102 469 1116 c 128
 492 1130 492 1130 511 1150.5 c 128
 530 1171 530 1171 542 1196 c 257
EndSplineSet
EndChar
StartChar: plussuperior
Encoding: 428 8314 428
GlifName: plussuperior
Width: 600
VWidth: 0
Flags: W
LayerCount: 2
Fore
SplineSet
111 1070 m 257
 298 1070 l 257
 335 1281 l 257
 413 1281 l 257
 375 1070 l 257
 561 1070 l 257
 548 992 l 257
 362 992 l 257
 324 781 l 257
 247 781 l 257
 284 992 l 257
 98 992 l 257
 111 1070 l 257
EndSplineSet
EndChar
StartChar: minussuperior
Encoding: 352 8315 352
GlifName: minussuperior
Width: 600
VWidth: 0
Flags: W
LayerCount: 2
Fore
SplineSet
111 1070 m 257
 561 1070 l 257
 548 992 l 257
 98 992 l 257
 111 1070 l 257
EndSplineSet
EndChar
StartChar: parenleftsuperior
Encoding: 404 8317 404
GlifName: parenleftsuperior
Width: 400
VWidth: 0
Flags: W
LayerCount: 2
Fore
SplineSet
204 1310 m 257
 214 1370 214 1370 226 1410.5 c 128
 238 1451 238 1451 257.5 1475 c 128
 277 1499 277 1499 308 1509.5 c 128
 339 1520 339 1520 388 1520 c 257
 397 1520 397 1520 407.5 1519 c 128
 418 1518 418 1518 427 1516.5 c 128
 436 1515 436 1515 443.5 1512.5 c 128
 451 1510 451 1510 455 1507 c 257
 409 1444 l 257
 402 1445 l 257
 399 1446 399 1446 394.5 1446.5 c 128
 390 1447 390 1447 385 1447 c 257
 357 1447 357 1447 342.5 1436.5 c 128
 328 1426 328 1426 320.5 1408 c 128
 313 1390 313 1390 309.5 1366.5 c 128
 306 1343 306 1343 302 1317 c 257
 195 713 l 257
 191 687 191 687 186.5 663.5 c 128
 182 640 182 640 183.5 622 c 128
 185 604 185 604 195.5 593.5 c 128
 206 583 206 583 232 583 c 257
 238 583 238 583 242.5 583 c 128
 247 583 247 583 251 584 c 257
 258 585 l 257
 281 522 l 257
 276 519 276 519 267.5 516.5 c 128
 259 514 259 514 249.5 512 c 128
 240 510 240 510 229.5 509.5 c 128
 219 509 219 509 209 510 c 257
 175 512 175 512 152 521.5 c 128
 129 531 129 531 115.5 546 c 128
 102 561 102 561 96.5 581 c 128
 91 601 91 601 90 623.5 c 128
 89 646 89 646 92 670.5 c 128
 95 695 95 695 100 720 c 257
 204 1310 l 257
EndSplineSet
EndChar
StartChar: threeinferior
Encoding: 523 8323 523
GlifName: threeinferior
Width: 600
VWidth: 0
Flags: W
LayerCount: 2
Fore
SplineSet
225 170 m 257
 247 250 l 257
 612 250 l 257
 599 180 l 257
 590 160 590 160 572 138 c 128
 554 116 554 116 530.5 94 c 128
 507 72 507 72 480.5 50.5 c 128
 454 29 454 29 428 9 c 257
 355 -28 l 257
 360 -27 360 -27 368 -27 c 128
 376 -27 376 -27 383 -26 c 257
 420 -25 420 -25 456 -38.5 c 128
 492 -52 492 -52 519.5 -78 c 128
 547 -104 547 -104 562.5 -141 c 128
 578 -178 578 -178 572 -224 c 257
 566 -276 566 -276 543.5 -317 c 128
 521 -358 521 -358 486.5 -388.5 c 128
 452 -419 452 -419 407.5 -440.5 c 128
 363 -462 363 -462 312.5 -475 c 128
 262 -488 262 -488 207.5 -494 c 128
 153 -500 153 -500 100 -500 c 257
 114 -420 l 257
 153 -420 153 -420 194.5 -415.5 c 128
 236 -411 236 -411 275 -402 c 128
 314 -393 314 -393 349 -378.5 c 128
 384 -364 384 -364 410.5 -343 c 128
 437 -322 437 -322 453 -293.5 c 128
 469 -265 469 -265 471 -229 c 257
 473 -197 473 -197 461 -173 c 128
 449 -149 449 -149 425.5 -133.5 c 128
 402 -118 402 -118 369.5 -111 c 128
 337 -104 337 -104 297 -105 c 257
 281 -106 281 -106 262 -106.5 c 128
 243 -107 243 -107 228 -108 c 257
 242 -30 l 257
 265 -15 265 -15 292.5 4 c 128
 320 23 320 23 348 43.5 c 128
 376 64 376 64 403 85.5 c 128
 430 107 430 107 452.5 126 c 128
 475 145 475 145 491 162 c 128
 507 179 507 179 513 190 c 257
 433 170 l 257
 225 170 l 257
EndSplineSet
EndChar
StartChar: sixinferior
Encoding: 482 8326 482
GlifName: sixinferior
Width: 600
VWidth: 0
Flags: W
LayerCount: 2
Fore
SplineSet
582 172 m 257
 579 173 579 173 572.5 173 c 128
 566 173 566 173 560 173 c 257
 516 173 516 173 477.5 162 c 128
 439 151 439 151 405.5 130.5 c 128
 372 110 372 110 343.5 81.5 c 128
 315 53 315 53 292.5 18.5 c 128
 270 -16 270 -16 252.5 -55 c 128
 235 -94 235 -94 224 -135 c 257
 276 -77 l 257
 290 -69 290 -69 308 -61 c 128
 326 -53 326 -53 345.5 -47.5 c 128
 365 -42 365 -42 384.5 -38.5 c 128
 404 -35 404 -35 421 -37 c 257
 464 -40 464 -40 498.5 -52 c 128
 533 -64 533 -64 557.5 -88 c 128
 582 -112 582 -112 594 -150 c 128
 606 -188 606 -188 605 -244 c 257
 604 -280 604 -280 592.5 -315 c 128
 581 -350 581 -350 562 -380.5 c 128
 543 -411 543 -411 516.5 -436 c 128
 490 -461 490 -461 457.5 -478 c 128
 425 -495 425 -495 388 -503.5 c 128
 351 -512 351 -512 311 -509 c 257
 267 -505 267 -505 234.5 -488 c 128
 202 -471 202 -471 180 -445.5 c 128
 158 -420 158 -420 144.5 -387.5 c 128
 131 -355 131 -355 124.5 -320.5 c 128
 118 -286 118 -286 117.5 -252.5 c 128
 117 -219 117 -219 119 -190 c 257
 124 -130 124 -130 143 -73.5 c 128
 162 -17 162 -17 192.5 32.5 c 128
 223 82 223 82 264 123.5 c 128
 305 165 305 165 354.5 195 c 128
 404 225 404 225 461 241.5 c 128
 518 258 518 258 580 258 c 257
 587 258 587 258 596 258 c 128
 605 258 605 258 610 257 c 257
 582 172 l 257
217 -202 m 257
 214 -216 214 -216 212.5 -227.5 c 128
 211 -239 211 -239 210 -250 c 128
 209 -261 209 -261 209 -272 c 128
 209 -283 209 -283 210 -297 c 257
 212 -319 212 -319 220 -340 c 128
 228 -361 228 -361 242.5 -378.5 c 128
 257 -396 257 -396 278 -408 c 128
 299 -420 299 -420 327 -424 c 257
 361 -429 361 -429 392 -418 c 128
 423 -407 423 -407 446.5 -384 c 128
 470 -361 470 -361 485.5 -326.5 c 128
 501 -292 501 -292 505 -249 c 257
 509 -196 509 -196 481.5 -161.5 c 128
 454 -127 454 -127 398 -122 c 257
 341 -116 341 -116 295.5 -136 c 128
 250 -156 250 -156 217 -202 c 257
EndSplineSet
EndChar
StartChar: nineinferior
Encoding: 362 8329 362
GlifName: nineinferior
Width: 600
VWidth: 0
Flags: W
LayerCount: 2
Fore
SplineSet
482 -169 m 257
 465 -180 465 -180 449.5 -188.5 c 128
 434 -197 434 -197 418 -203 c 128
 402 -209 402 -209 385.5 -211.5 c 128
 369 -214 369 -214 350 -214 c 257
 307 -213 307 -213 271 -197.5 c 128
 235 -182 235 -182 210 -153 c 128
 185 -124 185 -124 171.5 -82 c 128
 158 -40 158 -40 160 15 c 257
 161 71 161 71 184.5 118 c 128
 208 165 208 165 247 198.5 c 128
 286 232 286 232 337 248.5 c 128
 388 265 388 265 445 258 c 257
 494 253 494 253 528 235.5 c 128
 562 218 562 218 584 193 c 128
 606 168 606 168 617.5 137 c 128
 629 106 629 106 633.5 72.5 c 128
 638 39 638 39 637.5 5 c 128
 637 -29 637 -29 635 -60 c 257
 631 -120 631 -120 611.5 -176 c 128
 592 -232 592 -232 560.5 -282 c 128
 529 -332 529 -332 487.5 -373.5 c 128
 446 -415 446 -415 396.5 -445 c 128
 347 -475 347 -475 292 -492 c 128
 237 -509 237 -509 179 -509 c 257
 178 -425 l 257
 241 -424 241 -424 299.5 -401 c 128
 358 -378 358 -378 406 -337 c 128
 454 -296 454 -296 487.5 -238.5 c 128
 521 -181 521 -181 532 -110 c 257
 482 -169 l 257
542 -24 m 257
 543 13 543 13 539.5 47 c 128
 536 81 536 81 524 108 c 128
 512 135 512 135 489.5 152.5 c 128
 467 170 467 170 431 173 c 257
 395 177 395 177 365 166 c 128
 335 155 335 155 312.5 134.5 c 128
 290 114 290 114 276 85.5 c 128
 262 57 262 57 258 24 c 257
 255 -9 255 -9 259 -35.5 c 128
 263 -62 263 -62 276 -81.5 c 128
 289 -101 289 -101 311.5 -113 c 128
 334 -125 334 -125 368 -129 c 257
 394 -132 394 -132 420 -125 c 128
 446 -118 446 -118 469 -104 c 128
 492 -90 492 -90 511 -69.5 c 128
 530 -49 530 -49 542 -24 c 257
EndSplineSet
EndChar
StartChar: weierstrass
Encoding: 559 8472 559
GlifName: weierstrass
Width: 1667
VWidth: 0
Flags: W
LayerCount: 2
Fore
SplineSet
339 -361 m 257
 364 -361 364 -361 384 -343 c 128
 404 -325 404 -325 417.5 -297 c 128
 431 -269 431 -269 438.5 -234 c 128
 446 -199 446 -199 446 -164 c 257
 446 -128 446 -128 440.5 -83 c 128
 435 -38 435 -38 426 7 c 128
 417 52 417 52 405.5 94 c 128
 394 136 394 136 382 168 c 257
 382 254 l 257
 350 200 350 200 322 139.5 c 128
 294 79 294 79 273.5 15.5 c 128
 253 -48 253 -48 241 -112.5 c 128
 229 -177 229 -177 229 -239 c 257
 229 -298 229 -298 258.5 -329.5 c 128
 288 -361 288 -361 339 -361 c 257
720 1031 m 257
 658 1019 658 1019 596 986.5 c 128
 534 954 534 954 484 902.5 c 128
 434 851 434 851 402.5 780 c 128
 371 709 371 709 371 620 c 257
 371 578 371 578 382 528 c 257
 382 406 l 257
 453 517 453 517 535.5 623.5 c 128
 618 730 618 730 712.5 813 c 128
 807 896 807 896 914 946.5 c 128
 1021 997 1021 997 1143 997 c 257
 1219 997 1219 997 1281 975.5 c 128
 1343 954 1343 954 1386.5 909 c 128
 1430 864 1430 864 1453.5 795 c 128
 1477 726 1477 726 1477 630 c 257
 1477 487 1477 487 1439.5 368 c 128
 1402 249 1402 249 1334 163.5 c 128
 1266 78 1266 78 1169.5 30.5 c 128
 1073 -17 1073 -17 955 -17 c 257
 909 -17 909 -17 863 -1 c 128
 817 15 817 15 780.5 46 c 128
 744 77 744 77 721 121 c 128
 698 165 698 165 698 221 c 257
 698 296 698 296 718.5 353 c 128
 739 410 739 410 771 452.5 c 128
 803 495 803 495 842 524 c 128
 881 553 881 553 918.5 571 c 128
 956 589 956 589 987.5 598 c 128
 1019 607 1019 607 1035 610 c 257
 1065 470 l 257
 1040 459 1040 459 1000 439 c 128
 960 419 960 419 921.5 386 c 128
 883 353 883 353 855 305.5 c 128
 827 258 827 258 827 194 c 257
 827 169 827 169 836.5 150 c 128
 846 131 846 131 862.5 118 c 128
 879 105 879 105 900 98 c 128
 921 91 921 91 945 91 c 257
 1011 91 1011 91 1063 117 c 128
 1115 143 1115 143 1154 186.5 c 128
 1193 230 1193 230 1220 286 c 128
 1247 342 1247 342 1263.5 402.5 c 128
 1280 463 1280 463 1287.5 523 c 128
 1295 583 1295 583 1295 633 c 257
 1295 676 1295 676 1287 717 c 128
 1279 758 1279 758 1259 789.5 c 128
 1239 821 1239 821 1205 840.5 c 128
 1171 860 1171 860 1119 860 c 257
 1045 860 1045 860 976.5 836.5 c 128
 908 813 908 813 845.5 774 c 128
 783 735 783 735 726 683 c 128
 669 631 669 631 618.5 575 c 128
 568 519 568 519 525 461.5 c 128
 482 404 482 404 446 353 c 257
 476 288 476 288 504 224.5 c 128
 532 161 532 161 553.5 98 c 128
 575 35 575 35 587.5 -28.5 c 128
 600 -92 600 -92 600 -157 c 257
 600 -218 600 -218 586 -282 c 128
 572 -346 572 -346 539 -398 c 128
 506 -450 506 -450 451 -483.5 c 128
 396 -517 396 -517 314 -517 c 257
 255 -517 255 -517 214.5 -496.5 c 128
 174 -476 174 -476 148.5 -442 c 128
 123 -408 123 -408 112 -363 c 128
 101 -318 101 -318 101 -269 c 257
 101 -186 101 -186 119.5 -107.5 c 128
 138 -29 138 -29 168 43 c 128
 198 115 198 115 236 179.5 c 128
 274 244 274 244 313 299 c 257
 298 333 298 333 282 371.5 c 128
 266 410 266 410 253 450 c 128
 240 490 240 490 231.5 529.5 c 128
 223 569 223 569 223 605 c 257
 223 683 223 683 244.5 751.5 c 128
 266 820 266 820 302.5 877 c 128
 339 934 339 934 386.5 978.5 c 128
 434 1023 434 1023 487 1054 c 128
 540 1085 540 1085 595 1101 c 128
 650 1117 650 1117 700 1117 c 257
 720 1031 l 257
EndSplineSet
EndChar
StartChar: aleph
Encoding: 109 8501 109
GlifName: aleph
Width: 1200
VWidth: 0
Flags: W
LayerCount: 2
Fore
SplineSet
688 1100 m 257
 692 1044 692 1044 714.5 1010 c 128
 737 976 737 976 769 952 c 128
 801 928 801 928 837 909 c 128
 873 890 873 890 903.5 865 c 128
 934 840 934 840 954 803 c 128
 974 766 974 766 974 707 c 257
 974 644 974 644 946 568 c 257
 860 568 l 257
 860 607 860 607 852.5 635.5 c 128
 845 664 845 664 832.5 686.5 c 128
 820 709 820 709 802.5 726.5 c 128
 785 744 785 744 764 759 c 257
 752 717 752 717 731 685.5 c 128
 710 654 710 654 678 622 c 257
 775 565 775 565 836.5 504.5 c 128
 898 444 898 444 932.5 385 c 128
 967 326 967 326 980 271 c 128
 993 216 993 216 993 168 c 257
 993 113 993 113 982 67 c 128
 971 21 971 21 962 0 c 257
 857 0 l 257
 857 64 857 64 836.5 114.5 c 128
 816 165 816 165 780 208 c 128
 744 251 744 251 695 289 c 128
 646 327 646 327 589 367.5 c 128
 532 408 532 408 469 454 c 128
 406 500 406 500 343 558 c 257
 343 666 l 257
 314 635 314 635 296.5 614 c 128
 279 593 279 593 269.5 577.5 c 128
 260 562 260 562 257 550.5 c 128
 254 539 254 539 254 529 c 257
 254 490 254 490 273 455 c 128
 292 420 292 420 321 386.5 c 128
 350 353 350 353 383 320.5 c 128
 416 288 416 288 445 253.5 c 128
 474 219 474 219 493 182 c 128
 512 145 512 145 512 103 c 257
 512 53 512 53 481 0 c 257
 99 0 l 257
 139 140 l 257
 314 140 l 257
 161 228 l 257
 135 267 135 267 117 314.5 c 128
 99 362 99 362 99 421 c 257
 99 457 99 457 108 493.5 c 128
 117 530 117 530 132.5 564.5 c 128
 148 599 148 599 170 630.5 c 128
 192 662 192 662 219 688 c 257
 158 750 158 750 129.5 808.5 c 128
 101 867 101 867 101 936 c 257
 101 972 101 972 108.5 1012 c 128
 116 1052 116 1052 131 1100 c 257
 220 1100 l 257
 220 1042 220 1042 247.5 989.5 c 128
 275 937 275 937 319 889.5 c 128
 363 842 363 842 418 800 c 128
 473 758 473 758 529 721 c 257
 529 624 l 257
 568 659 568 659 592.5 685 c 128
 617 711 617 711 630 732 c 128
 643 753 643 753 647.5 771.5 c 128
 652 790 652 790 652 811 c 257
 652 823 l 257
 607 858 607 858 586.5 891 c 128
 566 924 566 924 566 969 c 257
 566 1020 566 1020 594 1100 c 257
 688 1100 l 257
EndSplineSet
EndChar
StartChar: onethirds
Encoding: 392 8531 392
GlifName: onethirds
Width: 1500
VWidth: 0
Flags: W
LayerCount: 2
Fore
SplineSet
454 0 m 257
 319 0 l 257
 1094 1500 l 257
 1220 1500 l 257
 454 0 l 257
175 720 m 257
 189 800 l 257
 311 800 l 257
 396 1283 l 257
 445 1396 l 257
 361 1303 l 257
 238 1209 l 257
 195 1270 l 257
 461 1480 l 257
 529 1470 l 257
 411 800 l 257
 534 800 l 257
 520 720 l 257
 175 720 l 257
1078 670 m 257
 1100 750 l 257
 1465 750 l 257
 1452 680 l 257
 1443 660 1443 660 1425 638 c 128
 1407 616 1407 616 1383.5 594 c 128
 1360 572 1360 572 1333.5 550.5 c 128
 1307 529 1307 529 1281 509 c 257
 1208 472 l 257
 1213 473 1213 473 1221 473 c 128
 1229 473 1229 473 1236 474 c 257
 1273 475 1273 475 1309 461.5 c 128
 1345 448 1345 448 1372.5 422 c 128
 1400 396 1400 396 1415.5 359 c 128
 1431 322 1431 322 1425 276 c 257
 1419 224 1419 224 1396.5 183 c 128
 1374 142 1374 142 1339.5 111.5 c 128
 1305 81 1305 81 1260.5 59.5 c 128
 1216 38 1216 38 1165.5 25 c 128
 1115 12 1115 12 1060.5 6 c 128
 1006 0 1006 0 953 0 c 257
 967 80 l 257
 1006 80 1006 80 1047.5 84.5 c 128
 1089 89 1089 89 1128 98 c 128
 1167 107 1167 107 1202 121.5 c 128
 1237 136 1237 136 1263.5 157 c 128
 1290 178 1290 178 1306 206.5 c 128
 1322 235 1322 235 1324 271 c 257
 1326 303 1326 303 1314 327 c 128
 1302 351 1302 351 1278.5 366.5 c 128
 1255 382 1255 382 1222.5 389 c 128
 1190 396 1190 396 1150 395 c 257
 1134 394 1134 394 1115 393.5 c 128
 1096 393 1096 393 1081 392 c 257
 1095 470 l 257
 1118 485 1118 485 1145.5 504 c 128
 1173 523 1173 523 1201 543.5 c 128
 1229 564 1229 564 1256 585.5 c 128
 1283 607 1283 607 1305.5 626 c 128
 1328 645 1328 645 1344 662 c 128
 1360 679 1360 679 1366 690 c 257
 1286 670 l 257
 1078 670 l 257
EndSplineSet
EndChar
StartChar: twothirds
Encoding: 541 8532 541
GlifName: twothirds
Width: 1500
VWidth: 0
Flags: W
LayerCount: 2
Fore
SplineSet
454 0 m 257
 319 0 l 257
 1094 1500 l 257
 1220 1500 l 257
 454 0 l 257
76 720 m 257
 90 804 l 257
 121 849 121 849 155.5 888 c 128
 190 927 190 927 224.5 960.5 c 128
 259 994 259 994 292 1021.5 c 128
 325 1049 325 1049 351 1071 c 257
 385 1099 385 1099 415 1123.5 c 128
 445 1148 445 1148 467.5 1172.5 c 128
 490 1197 490 1197 502.5 1222.5 c 128
 515 1248 515 1248 515 1277 c 257
 515 1323 515 1323 490.5 1353.5 c 128
 466 1384 466 1384 413 1394 c 257
 385 1399 385 1399 361 1392.5 c 128
 337 1386 337 1386 317 1372 c 128
 297 1358 297 1358 281 1339 c 128
 265 1320 265 1320 253 1300 c 257
 188 1330 l 257
 206 1367 206 1367 231 1396 c 128
 256 1425 256 1425 287.5 1444 c 128
 319 1463 319 1463 356.5 1472 c 128
 394 1481 394 1481 436 1478 c 257
 483 1475 483 1475 517 1456 c 128
 551 1437 551 1437 573 1408 c 128
 595 1379 595 1379 604.5 1343.5 c 128
 614 1308 614 1308 612 1272 c 257
 610 1233 610 1233 591 1198 c 128
 572 1163 572 1163 545 1132 c 128
 518 1101 518 1101 486.5 1073.5 c 128
 455 1046 455 1046 427 1022 c 257
 396 996 396 996 365 969 c 128
 334 942 334 942 305.5 914.5 c 128
 277 887 277 887 251.5 858.5 c 128
 226 830 226 830 207 800 c 257
 542 800 l 257
 528 720 l 257
 76 720 l 257
1078 670 m 257
 1100 750 l 257
 1465 750 l 257
 1452 680 l 257
 1443 660 1443 660 1425 638 c 128
 1407 616 1407 616 1383.5 594 c 128
 1360 572 1360 572 1333.5 550.5 c 128
 1307 529 1307 529 1281 509 c 257
 1208 472 l 257
 1213 473 1213 473 1221 473 c 128
 1229 473 1229 473 1236 474 c 257
 1273 475 1273 475 1309 461.5 c 128
 1345 448 1345 448 1372.5 422 c 128
 1400 396 1400 396 1415.5 359 c 128
 1431 322 1431 322 1425 276 c 257
 1419 224 1419 224 1396.5 183 c 128
 1374 142 1374 142 1339.5 111.5 c 128
 1305 81 1305 81 1260.5 59.5 c 128
 1216 38 1216 38 1165.5 25 c 128
 1115 12 1115 12 1060.5 6 c 128
 1006 0 1006 0 953 0 c 257
 967 80 l 257
 1006 80 1006 80 1047.5 84.5 c 128
 1089 89 1089 89 1128 98 c 128
 1167 107 1167 107 1202 121.5 c 128
 1237 136 1237 136 1263.5 157 c 128
 1290 178 1290 178 1306 206.5 c 128
 1322 235 1322 235 1324 271 c 257
 1326 303 1326 303 1314 327 c 128
 1302 351 1302 351 1278.5 366.5 c 128
 1255 382 1255 382 1222.5 389 c 128
 1190 396 1190 396 1150 395 c 257
 1134 394 1134 394 1115 393.5 c 128
 1096 393 1096 393 1081 392 c 257
 1095 470 l 257
 1118 485 1118 485 1145.5 504 c 128
 1173 523 1173 523 1201 543.5 c 128
 1229 564 1229 564 1256 585.5 c 128
 1283 607 1283 607 1305.5 626 c 128
 1328 645 1328 645 1344 662 c 128
 1360 679 1360 679 1366 690 c 257
 1286 670 l 257
 1078 670 l 257
EndSplineSet
EndChar
StartChar: twofifths
Encoding: 537 8534 537
GlifName: twofifths
Width: 1500
VWidth: 0
Flags: W
LayerCount: 2
Fore
SplineSet
454 0 m 257
 319 0 l 257
 1094 1500 l 257
 1220 1500 l 257
 454 0 l 257
76 720 m 257
 90 804 l 257
 121 849 121 849 155.5 888 c 128
 190 927 190 927 224.5 960.5 c 128
 259 994 259 994 292 1021.5 c 128
 325 1049 325 1049 351 1071 c 257
 385 1099 385 1099 415 1123.5 c 128
 445 1148 445 1148 467.5 1172.5 c 128
 490 1197 490 1197 502.5 1222.5 c 128
 515 1248 515 1248 515 1277 c 257
 515 1323 515 1323 490.5 1353.5 c 128
 466 1384 466 1384 413 1394 c 257
 385 1399 385 1399 361 1392.5 c 128
 337 1386 337 1386 317 1372 c 128
 297 1358 297 1358 281 1339 c 128
 265 1320 265 1320 253 1300 c 257
 188 1330 l 257
 206 1367 206 1367 231 1396 c 128
 256 1425 256 1425 287.5 1444 c 128
 319 1463 319 1463 356.5 1472 c 128
 394 1481 394 1481 436 1478 c 257
 483 1475 483 1475 517 1456 c 128
 551 1437 551 1437 573 1408 c 128
 595 1379 595 1379 604.5 1343.5 c 128
 614 1308 614 1308 612 1272 c 257
 610 1233 610 1233 591 1198 c 128
 572 1163 572 1163 545 1132 c 128
 518 1101 518 1101 486.5 1073.5 c 128
 455 1046 455 1046 427 1022 c 257
 396 996 396 996 365 969 c 128
 334 942 334 942 305.5 914.5 c 128
 277 887 277 887 251.5 858.5 c 128
 226 830 226 830 207 800 c 257
 542 800 l 257
 528 720 l 257
 76 720 l 257
1138 491 m 257
 1142 493 1142 493 1151 497.5 c 128
 1160 502 1160 502 1172 506.5 c 128
 1184 511 1184 511 1198 514 c 128
 1212 517 1212 517 1225 517 c 257
 1279 517 1279 517 1317.5 501 c 128
 1356 485 1356 485 1380 457 c 128
 1404 429 1404 429 1414 391 c 128
 1424 353 1424 353 1422 309 c 257
 1418 254 1418 254 1398 210 c 128
 1378 166 1378 166 1344.5 131.5 c 128
 1311 97 1311 97 1267 72 c 128
 1223 47 1223 47 1172 31 c 128
 1121 15 1121 15 1065 7.5 c 128
 1009 0 1009 0 953 0 c 257
 967 80 l 257
 1038 80 1038 80 1101 96 c 128
 1164 112 1164 112 1212 141 c 128
 1260 170 1260 170 1289 210 c 128
 1318 250 1318 250 1322 299 c 257
 1324 325 1324 325 1316.5 349 c 128
 1309 373 1309 373 1293 391.5 c 128
 1277 410 1277 410 1253.5 421.5 c 128
 1230 433 1230 433 1201 433 c 257
 1160 433 1160 433 1132 424.5 c 128
 1104 416 1104 416 1080 400 c 257
 1023 400 l 257
 1085 750 l 257
 1456 750 l 257
 1442 670 l 257
 1170 670 l 257
 1138 491 l 257
EndSplineSet
EndChar
StartChar: threefifths
Encoding: 522 8535 522
GlifName: threefifths
Width: 1500
VWidth: 0
Flags: W
LayerCount: 2
Fore
SplineSet
454 0 m 257
 319 0 l 257
 1094 1500 l 257
 1220 1500 l 257
 454 0 l 257
1138 491 m 257
 1142 493 1142 493 1151 497.5 c 128
 1160 502 1160 502 1172 506.5 c 128
 1184 511 1184 511 1198 514 c 128
 1212 517 1212 517 1225 517 c 257
 1279 517 1279 517 1317.5 501 c 128
 1356 485 1356 485 1380 457 c 128
 1404 429 1404 429 1414 391 c 128
 1424 353 1424 353 1422 309 c 257
 1418 254 1418 254 1398 210 c 128
 1378 166 1378 166 1344.5 131.5 c 128
 1311 97 1311 97 1267 72 c 128
 1223 47 1223 47 1172 31 c 128
 1121 15 1121 15 1065 7.5 c 128
 1009 0 1009 0 953 0 c 257
 967 80 l 257
 1038 80 1038 80 1101 96 c 128
 1164 112 1164 112 1212 141 c 128
 1260 170 1260 170 1289 210 c 128
 1318 250 1318 250 1322 299 c 257
 1324 325 1324 325 1316.5 349 c 128
 1309 373 1309 373 1293 391.5 c 128
 1277 410 1277 410 1253.5 421.5 c 128
 1230 433 1230 433 1201 433 c 257
 1160 433 1160 433 1132 424.5 c 128
 1104 416 1104 416 1080 400 c 257
 1023 400 l 257
 1085 750 l 257
 1456 750 l 257
 1442 670 l 257
 1170 670 l 257
 1138 491 l 257
225 1390 m 257
 247 1470 l 257
 612 1470 l 257
 599 1400 l 257
 590 1380 590 1380 572 1358 c 128
 554 1336 554 1336 530.5 1314 c 128
 507 1292 507 1292 480.5 1270.5 c 128
 454 1249 454 1249 428 1229 c 257
 355 1192 l 257
 360 1193 360 1193 368 1193 c 128
 376 1193 376 1193 383 1194 c 257
 420 1195 420 1195 456 1181.5 c 128
 492 1168 492 1168 519.5 1142 c 128
 547 1116 547 1116 562.5 1079 c 128
 578 1042 578 1042 572 996 c 257
 566 944 566 944 543.5 903 c 128
 521 862 521 862 486.5 831.5 c 128
 452 801 452 801 407.5 779.5 c 128
 363 758 363 758 312.5 745 c 128
 262 732 262 732 207.5 726 c 128
 153 720 153 720 100 720 c 257
 114 800 l 257
 153 800 153 800 194.5 804.5 c 128
 236 809 236 809 275 818 c 128
 314 827 314 827 349 841.5 c 128
 384 856 384 856 410.5 877 c 128
 437 898 437 898 453 926.5 c 128
 469 955 469 955 471 991 c 257
 473 1023 473 1023 461 1047 c 128
 449 1071 449 1071 425.5 1086.5 c 128
 402 1102 402 1102 369.5 1109 c 128
 337 1116 337 1116 297 1115 c 257
 281 1114 281 1114 262 1113.5 c 128
 243 1113 243 1113 228 1112 c 257
 242 1190 l 257
 265 1205 265 1205 292.5 1224 c 128
 320 1243 320 1243 348 1263.5 c 128
 376 1284 376 1284 403 1305.5 c 128
 430 1327 430 1327 452.5 1346 c 128
 475 1365 475 1365 491 1382 c 128
 507 1399 507 1399 513 1410 c 257
 433 1390 l 257
 225 1390 l 257
EndSplineSet
EndChar
StartChar: fourfifths
Encoding: 282 8536 282
GlifName: fourfifths
Width: 1500
VWidth: 0
Flags: W
LayerCount: 2
Fore
SplineSet
454 0 m 257
 319 0 l 257
 1094 1500 l 257
 1220 1500 l 257
 454 0 l 257
1138 491 m 257
 1142 493 1142 493 1151 497.5 c 128
 1160 502 1160 502 1172 506.5 c 128
 1184 511 1184 511 1198 514 c 128
 1212 517 1212 517 1225 517 c 257
 1279 517 1279 517 1317.5 501 c 128
 1356 485 1356 485 1380 457 c 128
 1404 429 1404 429 1414 391 c 128
 1424 353 1424 353 1422 309 c 257
 1418 254 1418 254 1398 210 c 128
 1378 166 1378 166 1344.5 131.5 c 128
 1311 97 1311 97 1267 72 c 128
 1223 47 1223 47 1172 31 c 128
 1121 15 1121 15 1065 7.5 c 128
 1009 0 1009 0 953 0 c 257
 967 80 l 257
 1038 80 1038 80 1101 96 c 128
 1164 112 1164 112 1212 141 c 128
 1260 170 1260 170 1289 210 c 128
 1318 250 1318 250 1322 299 c 257
 1324 325 1324 325 1316.5 349 c 128
 1309 373 1309 373 1293 391.5 c 128
 1277 410 1277 410 1253.5 421.5 c 128
 1230 433 1230 433 1201 433 c 257
 1160 433 1160 433 1132 424.5 c 128
 1104 416 1104 416 1080 400 c 257
 1023 400 l 257
 1085 750 l 257
 1456 750 l 257
 1442 670 l 257
 1170 670 l 257
 1138 491 l 257
563 870 m 257
 473 870 l 257
 447 720 l 257
 347 720 l 257
 373 870 l 257
 76 870 l 257
 91 955 l 257
 426 1480 l 257
 518 1470 l 257
 231 1020 l 257
 173 950 l 257
 388 950 l 257
 423 1153 l 257
 522 1145 l 257
 488 950 l 257
 585 950 l 257
 563 870 l 257
EndSplineSet
EndChar
StartChar: onesixth
Encoding: 390 8537 390
GlifName: onesixth
Width: 1500
VWidth: 0
Flags: W
LayerCount: 2
Fore
SplineSet
454 0 m 257
 319 0 l 257
 1094 1500 l 257
 1220 1500 l 257
 454 0 l 257
175 720 m 257
 189 800 l 257
 311 800 l 257
 396 1283 l 257
 445 1396 l 257
 361 1303 l 257
 238 1209 l 257
 195 1270 l 257
 461 1480 l 257
 529 1470 l 257
 411 800 l 257
 534 800 l 257
 520 720 l 257
 175 720 l 257
1435 672 m 257
 1432 673 1432 673 1425.5 673 c 128
 1419 673 1419 673 1413 673 c 257
 1369 673 1369 673 1330.5 662 c 128
 1292 651 1292 651 1258.5 630.5 c 128
 1225 610 1225 610 1196.5 581.5 c 128
 1168 553 1168 553 1145.5 518.5 c 128
 1123 484 1123 484 1105.5 445 c 128
 1088 406 1088 406 1077 365 c 257
 1129 423 l 257
 1143 431 1143 431 1161 439 c 128
 1179 447 1179 447 1198.5 452.5 c 128
 1218 458 1218 458 1237.5 461.5 c 128
 1257 465 1257 465 1274 463 c 257
 1317 460 1317 460 1351.5 448 c 128
 1386 436 1386 436 1410.5 412 c 128
 1435 388 1435 388 1447 350 c 128
 1459 312 1459 312 1458 256 c 257
 1457 220 1457 220 1445.5 185 c 128
 1434 150 1434 150 1415 119.5 c 128
 1396 89 1396 89 1369.5 64 c 128
 1343 39 1343 39 1310.5 22 c 128
 1278 5 1278 5 1241 -3.5 c 128
 1204 -12 1204 -12 1164 -9 c 257
 1120 -5 1120 -5 1087.5 12 c 128
 1055 29 1055 29 1033 54.5 c 128
 1011 80 1011 80 997.5 112.5 c 128
 984 145 984 145 977.5 179.5 c 128
 971 214 971 214 970.5 247.5 c 128
 970 281 970 281 972 310 c 257
 977 370 977 370 996 426.5 c 128
 1015 483 1015 483 1045.5 532.5 c 128
 1076 582 1076 582 1117 623.5 c 128
 1158 665 1158 665 1207.5 695 c 128
 1257 725 1257 725 1314 741.5 c 128
 1371 758 1371 758 1433 758 c 257
 1440 758 1440 758 1449 758 c 128
 1458 758 1458 758 1463 757 c 257
 1435 672 l 257
1070 298 m 257
 1067 284 1067 284 1065.5 272.5 c 128
 1064 261 1064 261 1063 250 c 128
 1062 239 1062 239 1062 228 c 128
 1062 217 1062 217 1063 203 c 257
 1065 181 1065 181 1073 160 c 128
 1081 139 1081 139 1095.5 121.5 c 128
 1110 104 1110 104 1131 92 c 128
 1152 80 1152 80 1180 76 c 257
 1214 71 1214 71 1245 82 c 128
 1276 93 1276 93 1299.5 116 c 128
 1323 139 1323 139 1338.5 173.5 c 128
 1354 208 1354 208 1358 251 c 257
 1362 304 1362 304 1334.5 338.5 c 128
 1307 373 1307 373 1251 378 c 257
 1194 384 1194 384 1148.5 364 c 128
 1103 344 1103 344 1070 298 c 257
EndSplineSet
EndChar
StartChar: fivesixths
Encoding: 274 8538 274
GlifName: fivesixths
Width: 1500
VWidth: 0
Flags: W
LayerCount: 2
Fore
SplineSet
454 0 m 257
 319 0 l 257
 1094 1500 l 257
 1220 1500 l 257
 454 0 l 257
1435 672 m 257
 1432 673 1432 673 1425.5 673 c 128
 1419 673 1419 673 1413 673 c 257
 1369 673 1369 673 1330.5 662 c 128
 1292 651 1292 651 1258.5 630.5 c 128
 1225 610 1225 610 1196.5 581.5 c 128
 1168 553 1168 553 1145.5 518.5 c 128
 1123 484 1123 484 1105.5 445 c 128
 1088 406 1088 406 1077 365 c 257
 1129 423 l 257
 1143 431 1143 431 1161 439 c 128
 1179 447 1179 447 1198.5 452.5 c 128
 1218 458 1218 458 1237.5 461.5 c 128
 1257 465 1257 465 1274 463 c 257
 1317 460 1317 460 1351.5 448 c 128
 1386 436 1386 436 1410.5 412 c 128
 1435 388 1435 388 1447 350 c 128
 1459 312 1459 312 1458 256 c 257
 1457 220 1457 220 1445.5 185 c 128
 1434 150 1434 150 1415 119.5 c 128
 1396 89 1396 89 1369.5 64 c 128
 1343 39 1343 39 1310.5 22 c 128
 1278 5 1278 5 1241 -3.5 c 128
 1204 -12 1204 -12 1164 -9 c 257
 1120 -5 1120 -5 1087.5 12 c 128
 1055 29 1055 29 1033 54.5 c 128
 1011 80 1011 80 997.5 112.5 c 128
 984 145 984 145 977.5 179.5 c 128
 971 214 971 214 970.5 247.5 c 128
 970 281 970 281 972 310 c 257
 977 370 977 370 996 426.5 c 128
 1015 483 1015 483 1045.5 532.5 c 128
 1076 582 1076 582 1117 623.5 c 128
 1158 665 1158 665 1207.5 695 c 128
 1257 725 1257 725 1314 741.5 c 128
 1371 758 1371 758 1433 758 c 257
 1440 758 1440 758 1449 758 c 128
 1458 758 1458 758 1463 757 c 257
 1435 672 l 257
1070 298 m 257
 1067 284 1067 284 1065.5 272.5 c 128
 1064 261 1064 261 1063 250 c 128
 1062 239 1062 239 1062 228 c 128
 1062 217 1062 217 1063 203 c 257
 1065 181 1065 181 1073 160 c 128
 1081 139 1081 139 1095.5 121.5 c 128
 1110 104 1110 104 1131 92 c 128
 1152 80 1152 80 1180 76 c 257
 1214 71 1214 71 1245 82 c 128
 1276 93 1276 93 1299.5 116 c 128
 1323 139 1323 139 1338.5 173.5 c 128
 1354 208 1354 208 1358 251 c 257
 1362 304 1362 304 1334.5 338.5 c 128
 1307 373 1307 373 1251 378 c 257
 1194 384 1194 384 1148.5 364 c 128
 1103 344 1103 344 1070 298 c 257
285 1211 m 257
 289 1213 289 1213 298 1217.5 c 128
 307 1222 307 1222 319 1226.5 c 128
 331 1231 331 1231 345 1234 c 128
 359 1237 359 1237 372 1237 c 257
 426 1237 426 1237 464.5 1221 c 128
 503 1205 503 1205 527 1177 c 128
 551 1149 551 1149 561 1111 c 128
 571 1073 571 1073 569 1029 c 257
 565 974 565 974 545 930 c 128
 525 886 525 886 491.5 851.5 c 128
 458 817 458 817 414 792 c 128
 370 767 370 767 319 751 c 128
 268 735 268 735 212 727.5 c 128
 156 720 156 720 100 720 c 257
 114 800 l 257
 185 800 185 800 248 816 c 128
 311 832 311 832 359 861 c 128
 407 890 407 890 436 930 c 128
 465 970 465 970 469 1019 c 257
 471 1045 471 1045 463.5 1069 c 128
 456 1093 456 1093 440 1111.5 c 128
 424 1130 424 1130 400.5 1141.5 c 128
 377 1153 377 1153 348 1153 c 257
 307 1153 307 1153 279 1144.5 c 128
 251 1136 251 1136 227 1120 c 257
 170 1120 l 257
 232 1470 l 257
 603 1470 l 257
 589 1390 l 257
 317 1390 l 257
 285 1211 l 257
EndSplineSet
EndChar
StartChar: threeeighths
Encoding: 521 8540 521
GlifName: threeeighths
Width: 1500
VWidth: 0
Flags: W
LayerCount: 2
Fore
SplineSet
454 0 m 257
 319 0 l 257
 1094 1500 l 257
 1220 1500 l 257
 454 0 l 257
225 1390 m 257
 247 1470 l 257
 612 1470 l 257
 599 1400 l 257
 590 1380 590 1380 572 1358 c 128
 554 1336 554 1336 530.5 1314 c 128
 507 1292 507 1292 480.5 1270.5 c 128
 454 1249 454 1249 428 1229 c 257
 355 1192 l 257
 360 1193 360 1193 368 1193 c 128
 376 1193 376 1193 383 1194 c 257
 420 1195 420 1195 456 1181.5 c 128
 492 1168 492 1168 519.5 1142 c 128
 547 1116 547 1116 562.5 1079 c 128
 578 1042 578 1042 572 996 c 257
 566 944 566 944 543.5 903 c 128
 521 862 521 862 486.5 831.5 c 128
 452 801 452 801 407.5 779.5 c 128
 363 758 363 758 312.5 745 c 128
 262 732 262 732 207.5 726 c 128
 153 720 153 720 100 720 c 257
 114 800 l 257
 153 800 153 800 194.5 804.5 c 128
 236 809 236 809 275 818 c 128
 314 827 314 827 349 841.5 c 128
 384 856 384 856 410.5 877 c 128
 437 898 437 898 453 926.5 c 128
 469 955 469 955 471 991 c 257
 473 1023 473 1023 461 1047 c 128
 449 1071 449 1071 425.5 1086.5 c 128
 402 1102 402 1102 369.5 1109 c 128
 337 1116 337 1116 297 1115 c 257
 281 1114 281 1114 262 1113.5 c 128
 243 1113 243 1113 228 1112 c 257
 242 1190 l 257
 265 1205 265 1205 292.5 1224 c 128
 320 1243 320 1243 348 1263.5 c 128
 376 1284 376 1284 403 1305.5 c 128
 430 1327 430 1327 452.5 1346 c 128
 475 1365 475 1365 491 1382 c 128
 507 1399 507 1399 513 1410 c 257
 433 1390 l 257
 225 1390 l 257
1292 758 m 257
 1335 756 1335 756 1369.5 743.5 c 128
 1404 731 1404 731 1427 708 c 128
 1450 685 1450 685 1460.5 652.5 c 128
 1471 620 1471 620 1467 577 c 257
 1464 547 1464 547 1452 524 c 128
 1440 501 1440 501 1422.5 483 c 128
 1405 465 1405 465 1382.5 450.5 c 128
 1360 436 1360 436 1336 423 c 257
 1370 406 1370 406 1393 385 c 128
 1416 364 1416 364 1430 337.5 c 128
 1444 311 1444 311 1448.5 278 c 128
 1453 245 1453 245 1450 205 c 257
 1446 167 1446 167 1432.5 136 c 128
 1419 105 1419 105 1397.5 80.5 c 128
 1376 56 1376 56 1348.5 38 c 128
 1321 20 1321 20 1290 8.5 c 128
 1259 -3 1259 -3 1225.5 -7 c 128
 1192 -11 1192 -11 1160 -9 c 257
 1113 -5 1113 -5 1073.5 9.5 c 128
 1034 24 1034 24 1007 51 c 128
 980 78 980 78 967 118 c 128
 954 158 954 158 959 212 c 257
 963 252 963 252 979 284.5 c 128
 995 317 995 317 1019.5 343 c 128
 1044 369 1044 369 1075.5 389 c 128
 1107 409 1107 409 1142 425 c 257
 1121 439 1121 439 1105 455 c 128
 1089 471 1089 471 1078.5 488.5 c 128
 1068 506 1068 506 1063.5 526.5 c 128
 1059 547 1059 547 1061 572 c 257
 1064 621 1064 621 1086 657 c 128
 1108 693 1108 693 1140.5 716 c 128
 1173 739 1173 739 1212.5 749.5 c 128
 1252 760 1252 760 1292 758 c 257
1220 380 m 257
 1186 366 1186 366 1156 350 c 128
 1126 334 1126 334 1103.5 313.5 c 128
 1081 293 1081 293 1067 267 c 128
 1053 241 1053 241 1052 207 c 257
 1050 176 1050 176 1058.5 152.5 c 128
 1067 129 1067 129 1083.5 112.5 c 128
 1100 96 1100 96 1123 86.5 c 128
 1146 77 1146 77 1174 73 c 257
 1206 69 1206 69 1238 77.5 c 128
 1270 86 1270 86 1296 103.5 c 128
 1322 121 1322 121 1338.5 147.5 c 128
 1355 174 1355 174 1356 207 c 257
 1357 242 1357 242 1346.5 268 c 128
 1336 294 1336 294 1317 314.5 c 128
 1298 335 1298 335 1273 351 c 128
 1248 367 1248 367 1220 380 c 257
1254 461 m 257
 1279 472 1279 472 1301 484 c 128
 1323 496 1323 496 1339.5 510.5 c 128
 1356 525 1356 525 1366 542.5 c 128
 1376 560 1376 560 1376 581 c 257
 1377 607 1377 607 1369.5 624 c 128
 1362 641 1362 641 1349 652 c 128
 1336 663 1336 663 1320 668.5 c 128
 1304 674 1304 674 1287 676 c 257
 1264 678 1264 678 1240.5 671.5 c 128
 1217 665 1217 665 1198 652 c 128
 1179 639 1179 639 1166.5 621 c 128
 1154 603 1154 603 1154 583 c 257
 1154 560 1154 560 1161.5 542 c 128
 1169 524 1169 524 1182 510 c 128
 1195 496 1195 496 1213.5 484 c 128
 1232 472 1232 472 1254 461 c 257
EndSplineSet
EndChar
StartChar: fiveeighths
Encoding: 271 8541 271
GlifName: fiveeighths
Width: 1500
VWidth: 0
Flags: W
LayerCount: 2
Fore
SplineSet
454 0 m 257
 319 0 l 257
 1094 1500 l 257
 1220 1500 l 257
 454 0 l 257
1292 758 m 257
 1335 756 1335 756 1369.5 743.5 c 128
 1404 731 1404 731 1427 708 c 128
 1450 685 1450 685 1460.5 652.5 c 128
 1471 620 1471 620 1467 577 c 257
 1464 547 1464 547 1452 524 c 128
 1440 501 1440 501 1422.5 483 c 128
 1405 465 1405 465 1382.5 450.5 c 128
 1360 436 1360 436 1336 423 c 257
 1370 406 1370 406 1393 385 c 128
 1416 364 1416 364 1430 337.5 c 128
 1444 311 1444 311 1448.5 278 c 128
 1453 245 1453 245 1450 205 c 257
 1446 167 1446 167 1432.5 136 c 128
 1419 105 1419 105 1397.5 80.5 c 128
 1376 56 1376 56 1348.5 38 c 128
 1321 20 1321 20 1290 8.5 c 128
 1259 -3 1259 -3 1225.5 -7 c 128
 1192 -11 1192 -11 1160 -9 c 257
 1113 -5 1113 -5 1073.5 9.5 c 128
 1034 24 1034 24 1007 51 c 128
 980 78 980 78 967 118 c 128
 954 158 954 158 959 212 c 257
 963 252 963 252 979 284.5 c 128
 995 317 995 317 1019.5 343 c 128
 1044 369 1044 369 1075.5 389 c 128
 1107 409 1107 409 1142 425 c 257
 1121 439 1121 439 1105 455 c 128
 1089 471 1089 471 1078.5 488.5 c 128
 1068 506 1068 506 1063.5 526.5 c 128
 1059 547 1059 547 1061 572 c 257
 1064 621 1064 621 1086 657 c 128
 1108 693 1108 693 1140.5 716 c 128
 1173 739 1173 739 1212.5 749.5 c 128
 1252 760 1252 760 1292 758 c 257
1220 380 m 257
 1186 366 1186 366 1156 350 c 128
 1126 334 1126 334 1103.5 313.5 c 128
 1081 293 1081 293 1067 267 c 128
 1053 241 1053 241 1052 207 c 257
 1050 176 1050 176 1058.5 152.5 c 128
 1067 129 1067 129 1083.5 112.5 c 128
 1100 96 1100 96 1123 86.5 c 128
 1146 77 1146 77 1174 73 c 257
 1206 69 1206 69 1238 77.5 c 128
 1270 86 1270 86 1296 103.5 c 128
 1322 121 1322 121 1338.5 147.5 c 128
 1355 174 1355 174 1356 207 c 257
 1357 242 1357 242 1346.5 268 c 128
 1336 294 1336 294 1317 314.5 c 128
 1298 335 1298 335 1273 351 c 128
 1248 367 1248 367 1220 380 c 257
1254 461 m 257
 1279 472 1279 472 1301 484 c 128
 1323 496 1323 496 1339.5 510.5 c 128
 1356 525 1356 525 1366 542.5 c 128
 1376 560 1376 560 1376 581 c 257
 1377 607 1377 607 1369.5 624 c 128
 1362 641 1362 641 1349 652 c 128
 1336 663 1336 663 1320 668.5 c 128
 1304 674 1304 674 1287 676 c 257
 1264 678 1264 678 1240.5 671.5 c 128
 1217 665 1217 665 1198 652 c 128
 1179 639 1179 639 1166.5 621 c 128
 1154 603 1154 603 1154 583 c 257
 1154 560 1154 560 1161.5 542 c 128
 1169 524 1169 524 1182 510 c 128
 1195 496 1195 496 1213.5 484 c 128
 1232 472 1232 472 1254 461 c 257
285 1211 m 257
 289 1213 289 1213 298 1217.5 c 128
 307 1222 307 1222 319 1226.5 c 128
 331 1231 331 1231 345 1234 c 128
 359 1237 359 1237 372 1237 c 257
 426 1237 426 1237 464.5 1221 c 128
 503 1205 503 1205 527 1177 c 128
 551 1149 551 1149 561 1111 c 128
 571 1073 571 1073 569 1029 c 257
 565 974 565 974 545 930 c 128
 525 886 525 886 491.5 851.5 c 128
 458 817 458 817 414 792 c 128
 370 767 370 767 319 751 c 128
 268 735 268 735 212 727.5 c 128
 156 720 156 720 100 720 c 257
 114 800 l 257
 185 800 185 800 248 816 c 128
 311 832 311 832 359 861 c 128
 407 890 407 890 436 930 c 128
 465 970 465 970 469 1019 c 257
 471 1045 471 1045 463.5 1069 c 128
 456 1093 456 1093 440 1111.5 c 128
 424 1130 424 1130 400.5 1141.5 c 128
 377 1153 377 1153 348 1153 c 257
 307 1153 307 1153 279 1144.5 c 128
 251 1136 251 1136 227 1120 c 257
 170 1120 l 257
 232 1470 l 257
 603 1470 l 257
 589 1390 l 257
 317 1390 l 257
 285 1211 l 257
EndSplineSet
EndChar
StartChar: fractionnumeratorone
Encoding: 286 8543 286
GlifName: fractionnumeratorone
Width: 1500
VWidth: 0
Flags: W
LayerCount: 2
Fore
SplineSet
454 0 m 257
 319 0 l 257
 1094 1500 l 257
 1220 1500 l 257
 454 0 l 257
175 720 m 257
 189 800 l 257
 311 800 l 257
 396 1283 l 257
 445 1396 l 257
 361 1303 l 257
 238 1209 l 257
 195 1270 l 257
 461 1480 l 257
 529 1470 l 257
 411 800 l 257
 534 800 l 257
 520 720 l 257
 175 720 l 257
EndSplineSet
EndChar
StartChar: oneroman
Encoding: 389 8560 389
GlifName: oneroman
Width: 600
VWidth: 0
Flags: W
LayerCount: 2
Fore
SplineSet
390 0 m 257
 200 0 l 257
 393 1100 l 257
 587 1120 l 257
 390 0 l 257
EndSplineSet
EndChar
StartChar: leftwardsarrowwithhook
Encoding: 333 8617 333
GlifName: leftwardsarrowwithhook
Width: 1400
VWidth: 0
Flags: W
LayerCount: 2
Fore
SplineSet
547 400 m 257
 443 412 l 257
 500 337 l 257
 500 100 l 257
 199 400 l 257
 80 500 l 257
 200 600 l 257
 500 900 l 257
 500 665 l 257
 443 590 l 257
 547 600 l 257
 1000 600 l 257
 1027 600 1027 600 1050.5 607.5 c 128
 1074 615 1074 615 1092 628.5 c 128
 1110 642 1110 642 1120 660.5 c 128
 1130 679 1130 679 1130 700 c 257
 1130 721 1130 721 1120 739 c 128
 1110 757 1110 757 1092 770.5 c 128
 1074 784 1074 784 1050.5 792 c 128
 1027 800 1027 800 1000 800 c 257
 1000 1000 l 257
 1056 1000 1056 1000 1110 981 c 128
 1164 962 1164 962 1206 924.5 c 128
 1248 887 1248 887 1274 831 c 128
 1300 775 1300 775 1300 700 c 257
 1300 625 1300 625 1274 568.5 c 128
 1248 512 1248 512 1206 474.5 c 128
 1164 437 1164 437 1110 418.5 c 128
 1056 400 1056 400 1000 400 c 257
 547 400 l 257
EndSplineSet
EndChar
StartChar: arrowdblleft
Encoding: 117 8656 117
GlifName: arrowdblleft
Width: 1600
VWidth: 0
Flags: W
LayerCount: 2
Fore
SplineSet
207 691 m 257
 573 1057 l 257
 743 1057 l 257
 498 813 l 257
 598 800 l 257
 1500 800 l 257
 1500 684 l 257
 748 684 l 257
 398 712 l 257
 267 600 l 257
 398 488 l 257
 748 516 l 257
 1500 516 l 257
 1500 400 l 257
 598 400 l 257
 498 388 l 257
 743 143 l 257
 573 143 l 257
 207 509 l 257
 100 600 l 257
 207 691 l 257
EndSplineSet
EndChar
StartChar: arrowdblup
Encoding: 124 8657 124
GlifName: arrowdblup
Width: 1200
VWidth: 0
Flags: W
LayerCount: 2
Fore
SplineSet
691 1393 m 257
 1057 1027 l 257
 1057 857 l 257
 813 1102 l 257
 800 1002 l 257
 800 0 l 257
 684 0 l 257
 684 852 l 257
 712 1202 l 257
 600 1333 l 257
 488 1202 l 257
 516 852 l 257
 516 0 l 257
 400 0 l 257
 400 1002 l 257
 388 1102 l 257
 143 857 l 257
 143 1027 l 257
 509 1393 l 257
 600 1500 l 257
 691 1393 l 257
EndSplineSet
EndChar
StartChar: partialdiff
Encoding: 408 8706 408
GlifName: partialdiff
Width: 1200
VWidth: 0
Flags: W
LayerCount: 2
Fore
SplineSet
882 644 m 257
 866 668 866 668 837 690 c 128
 808 712 808 712 772 728.5 c 128
 736 745 736 745 696 755 c 128
 656 765 656 765 620 765 c 257
 531 765 531 765 466.5 731 c 128
 402 697 402 697 359.5 641.5 c 128
 317 586 317 586 296.5 515.5 c 128
 276 445 276 445 276 373 c 257
 276 334 276 334 288.5 291 c 128
 301 248 301 248 330 211.5 c 128
 359 175 359 175 405.5 151.5 c 128
 452 128 452 128 521 128 c 257
 575 128 575 128 622.5 152.5 c 128
 670 177 670 177 709.5 217.5 c 128
 749 258 749 258 779.5 311 c 128
 810 364 810 364 832 421.5 c 128
 854 479 854 479 867 536.5 c 128
 880 594 880 594 882 644 c 257
1075 780 m 257
 1075 699 1075 699 1060.5 608.5 c 128
 1046 518 1046 518 1016 429.5 c 128
 986 341 986 341 940.5 260 c 128
 895 179 895 179 833.5 117.5 c 128
 772 56 772 56 694 19.5 c 128
 616 -17 616 -17 521 -17 c 257
 428 -17 428 -17 349 11 c 128
 270 39 270 39 212.5 89 c 128
 155 139 155 139 122.5 208.5 c 128
 90 278 90 278 90 361 c 257
 90 494 90 494 128 592.5 c 128
 166 691 166 691 230 756 c 128
 294 821 294 821 376 853 c 128
 458 885 458 885 547 885 c 257
 613 885 613 885 665 874 c 128
 717 863 717 863 758 845 c 128
 799 827 799 827 831 803 c 128
 863 779 863 779 889 753 c 257
 889 889 889 889 868 1001.5 c 128
 847 1114 847 1114 802.5 1193.5 c 128
 758 1273 758 1273 688 1317 c 128
 618 1361 618 1361 521 1361 c 257
 490 1361 490 1361 463.5 1358 c 128
 437 1355 437 1355 411.5 1348 c 128
 386 1341 386 1341 359 1329 c 128
 332 1317 332 1317 300 1300 c 257
 216 1431 l 257
 244 1449 244 1449 278 1464.5 c 128
 312 1480 312 1480 349.5 1491.5 c 128
 387 1503 387 1503 426.5 1510 c 128
 466 1517 466 1517 505 1517 c 257
 641 1517 641 1517 747 1470.5 c 128
 853 1424 853 1424 926 1332 c 128
 999 1240 999 1240 1037 1102 c 128
 1075 964 1075 964 1075 780 c 257
EndSplineSet
EndChar
StartChar: minus
Encoding: 349 8722 349
GlifName: minus
Width: 1200
VWidth: 0
Flags: W
LayerCount: 2
Fore
SplineSet
223 700 m 257
 1123 700 l 257
 1096 545 l 257
 196 545 l 257
 223 700 l 257
EndSplineSet
EndChar
StartChar: sphericalangle
Encoding: 501 8738 501
GlifName: sphericalangle
Width: 1400
VWidth: 0
Flags: W
LayerCount: 2
Fore
SplineSet
100 600 m 257
 1115 1187 l 257
 1237 1096 l 257
 965 939 l 257
 1021 846 1021 846 1049 746.5 c 128
 1077 647 1077 647 1077 544 c 257
 1077 443 1077 443 1050 342.5 c 128
 1023 242 1023 242 966 145 c 257
 1208 5 l 257
 1100 -81 l 257
 100 483 l 257
 100 600 l 257
862 205 m 257
 908 284 908 284 930 369 c 128
 952 454 952 454 952 540 c 257
 952 630 952 630 929 715.5 c 128
 906 801 906 801 861 879 c 257
 268 542 l 257
 862 205 l 257
EndSplineSet
EndChar
StartChar: logicalor
Encoding: 342 8744 342
GlifName: logicalor
Width: 1300
VWidth: 0
Flags: W
LayerCount: 2
Fore
SplineSet
522 0 m 257
 93 1300 l 257
 248 1320 l 257
 592 320 l 257
 657 80 l 257
 722 320 l 257
 1058 1300 l 257
 1229 1320 l 257
 787 0 l 257
 522 0 l 257
EndSplineSet
EndChar
StartChar: similar
Encoding: 480 8764 480
GlifName: similar
Width: 1000
VWidth: 0
Flags: W
LayerCount: 2
Fore
SplineSet
730 400 m 257
 695 400 695 400 666 412.5 c 128
 637 425 637 425 612 444 c 128
 587 463 587 463 564.5 485 c 128
 542 507 542 507 520 526 c 128
 498 545 498 545 474.5 557.5 c 128
 451 570 451 570 425 570 c 257
 394 570 394 570 365 562.5 c 128
 336 555 336 555 306.5 541 c 128
 277 527 277 527 246 506.5 c 128
 215 486 215 486 181 460 c 257
 198 560 l 257
 219 588 219 588 243.5 613 c 128
 268 638 268 638 299 657.5 c 128
 330 677 330 677 370 688.5 c 128
 410 700 410 700 463 700 c 257
 498 700 498 700 527 687.5 c 128
 556 675 556 675 581 656 c 128
 606 637 606 637 629 615 c 128
 652 593 652 593 674 574 c 128
 696 555 696 555 719 542.5 c 128
 742 530 742 530 768 530 c 257
 829 530 829 530 886 558.5 c 128
 943 587 943 587 1012 640 c 257
 995 540 l 257
 975 510 975 510 950.5 484.5 c 128
 926 459 926 459 894.5 440 c 128
 863 421 863 421 822.5 410.5 c 128
 782 400 782 400 730 400 c 257
EndSplineSet
EndChar
StartChar: asymptoticallyequal
Encoding: 139 8771 139
GlifName: asymptoticallyequal
Width: 1000
VWidth: 0
Flags: W
LayerCount: 2
Fore
SplineSet
170 400 m 257
 970 400 l 257
 945 260 l 257
 145 260 l 257
 170 400 l 257
747 500 m 257
 712 500 712 500 683 512.5 c 128
 654 525 654 525 629 544 c 128
 604 563 604 563 581.5 585 c 128
 559 607 559 607 537 626 c 128
 515 645 515 645 492 657.5 c 128
 469 670 469 670 442 670 c 257
 411 670 411 670 382 662.5 c 128
 353 655 353 655 323.5 641 c 128
 294 627 294 627 263 606.5 c 128
 232 586 232 586 198 560 c 257
 215 660 l 257
 236 688 236 688 260.5 713 c 128
 285 738 285 738 316 757.5 c 128
 347 777 347 777 387 788.5 c 128
 427 800 427 800 480 800 c 257
 515 800 515 800 544 787.5 c 128
 573 775 573 775 598 756 c 128
 623 737 623 737 646 715 c 128
 669 693 669 693 691 674 c 128
 713 655 713 655 736 642.5 c 128
 759 630 759 630 785 630 c 257
 846 630 846 630 903 658.5 c 128
 960 687 960 687 1029 740 c 257
 1012 640 l 257
 992 610 992 610 967.5 584.5 c 128
 943 559 943 559 911.5 540 c 128
 880 521 880 521 839.5 510.5 c 128
 799 500 799 500 747 500 c 257
EndSplineSet
EndChar
StartChar: congruent
Encoding: 207 8773 207
GlifName: congruent
Width: 1000
VWidth: 0
Flags: W
LayerCount: 2
Fore
SplineSet
205 600 m 257
 1005 600 l 257
 981 460 l 257
 181 460 l 257
 205 600 l 257
152 300 m 257
 952 300 l 257
 928 160 l 257
 128 160 l 257
 152 300 l 257
782 700 m 257
 747 700 747 700 718 712.5 c 128
 689 725 689 725 664 744 c 128
 639 763 639 763 616.5 785 c 128
 594 807 594 807 572 826 c 128
 550 845 550 845 526.5 857.5 c 128
 503 870 503 870 477 870 c 257
 446 870 446 870 417 862.5 c 128
 388 855 388 855 358.5 841 c 128
 329 827 329 827 298 806.5 c 128
 267 786 267 786 233 760 c 257
 250 860 l 257
 271 888 271 888 295.5 913 c 128
 320 938 320 938 351 957.5 c 128
 382 977 382 977 422 988.5 c 128
 462 1000 462 1000 515 1000 c 257
 550 1000 550 1000 579 987.5 c 128
 608 975 608 975 633 956 c 128
 658 937 658 937 681 915 c 128
 704 893 704 893 726 874 c 128
 748 855 748 855 771 842.5 c 128
 794 830 794 830 820 830 c 257
 881 830 881 830 938 858.5 c 128
 995 887 995 887 1064 940 c 257
 1047 840 l 257
 1027 810 1027 810 1002.5 784.5 c 128
 978 759 978 759 946.5 740 c 128
 915 721 915 721 874.5 710.5 c 128
 834 700 834 700 782 700 c 257
EndSplineSet
EndChar
StartChar: estimate
Encoding: 254 8793 254
GlifName: estimate
Width: 1000
VWidth: 0
Flags: W
LayerCount: 2
Fore
SplineSet
205 600 m 257
 1005 600 l 257
 981 460 l 257
 181 460 l 257
 205 600 l 257
152 300 m 257
 952 300 l 257
 928 160 l 257
 128 160 l 257
 152 300 l 257
1006 754 m 257
 885 754 l 257
 683 950 l 257
 668 1017 l 257
 630 952 l 257
 376 755 l 257
 236 755 l 257
 631 1107 l 257
 730 1117 l 257
 1006 754 l 257
EndSplineSet
EndChar
StartChar: lessequal
Encoding: 336 8804 336
GlifName: lessequal
Width: 1300
VWidth: 0
Flags: W
LayerCount: 2
Fore
SplineSet
223 135 m 257
 1123 135 l 257
 1080 0 l 257
 200 0 l 257
 223 135 l 257
1297 1119 m 257
 1272 979 l 257
 533 686 l 257
 453 670 l 257
 527 654 l 257
 1164 363 l 257
 1139 223 l 257
 303 588 l 257
 333 756 l 257
 1297 1119 l 257
EndSplineSet
EndChar
StartChar: greaterequal
Encoding: 295 8805 295
GlifName: greaterequal
Width: 1300
VWidth: 0
Flags: W
LayerCount: 2
Fore
SplineSet
223 135 m 257
 1123 135 l 257
 1080 0 l 257
 200 0 l 257
 223 135 l 257
1235 756 m 257
 1205 588 l 257
 241 223 l 257
 266 363 l 257
 1005 654 l 257
 1085 670 l 257
 1009 686 l 257
 374 979 l 257
 399 1119 l 257
 1235 756 l 257
EndSplineSet
EndChar
StartChar: circleplus
Encoding: 189 8853 189
GlifName: circleplus
Width: 1667
VWidth: 0
Flags: W
LayerCount: 2
Fore
SplineSet
83 750 m 257
 83 856 83 856 110.5 954 c 128
 138 1052 138 1052 188 1137 c 128
 238 1222 238 1222 308 1292 c 128
 378 1362 378 1362 463 1412 c 128
 548 1462 548 1462 646 1489.5 c 128
 744 1517 744 1517 850 1517 c 257
 956 1517 956 1517 1054 1489.5 c 128
 1152 1462 1152 1462 1237 1412 c 128
 1322 1362 1322 1362 1392 1292 c 128
 1462 1222 1462 1222 1512 1137 c 128
 1562 1052 1562 1052 1589.5 954 c 128
 1617 856 1617 856 1617 750 c 257
 1617 644 1617 644 1589.5 546 c 128
 1562 448 1562 448 1512 363 c 128
 1462 278 1462 278 1392 208 c 128
 1322 138 1322 138 1237 88 c 128
 1152 38 1152 38 1054 10.5 c 128
 956 -17 956 -17 850 -17 c 257
 744 -17 744 -17 646 10.5 c 128
 548 38 548 38 463 88 c 128
 378 138 378 138 308 208 c 128
 238 278 238 278 188 363 c 128
 138 448 138 448 110.5 546 c 128
 83 644 83 644 83 750 c 257
236 675 m 257
 249 570 249 570 295 477 c 128
 341 384 341 384 412.5 312.5 c 128
 484 241 484 241 577 195 c 128
 670 149 670 149 775 136 c 257
 775 675 l 257
 236 675 l 257
775 1362 m 257
 670 1349 670 1349 577 1303 c 128
 484 1257 484 1257 412.5 1186 c 128
 341 1115 341 1115 295 1022.5 c 128
 249 930 249 930 236 825 c 257
 775 825 l 257
 775 1362 l 257
925 136 m 257
 1030 149 1030 149 1122.5 195 c 128
 1215 241 1215 241 1286 312.5 c 128
 1357 384 1357 384 1403 477 c 128
 1449 570 1449 570 1462 675 c 257
 925 675 l 257
 925 136 l 257
1462 825 m 257
 1449 930 1449 930 1403 1022.5 c 128
 1357 1115 1357 1115 1286 1186 c 128
 1215 1257 1215 1257 1122.5 1303 c 128
 1030 1349 1030 1349 925 1362 c 257
 925 825 l 257
 1462 825 l 257
EndSplineSet
EndChar
StartChar: circlemultiply
Encoding: 188 8855 188
GlifName: circlemultiply
Width: 1667
VWidth: 0
Flags: W
LayerCount: 2
Fore
SplineSet
83 750 m 257
 83 856 83 856 110.5 954 c 128
 138 1052 138 1052 188 1137 c 128
 238 1222 238 1222 308 1292 c 128
 378 1362 378 1362 463 1412 c 128
 548 1462 548 1462 646 1489.5 c 128
 744 1517 744 1517 850 1517 c 257
 956 1517 956 1517 1054 1489.5 c 128
 1152 1462 1152 1462 1237 1412 c 128
 1322 1362 1322 1362 1392 1292 c 128
 1462 1222 1462 1222 1512 1137 c 128
 1562 1052 1562 1052 1589.5 954 c 128
 1617 856 1617 856 1617 750 c 257
 1617 644 1617 644 1589.5 546 c 128
 1562 448 1562 448 1512 363 c 128
 1462 278 1462 278 1392 208 c 128
 1322 138 1322 138 1237 88 c 128
 1152 38 1152 38 1054 10.5 c 128
 956 -17 956 -17 850 -17 c 257
 744 -17 744 -17 646 10.5 c 128
 548 38 548 38 463 88 c 128
 378 138 378 138 308 208 c 128
 238 278 238 278 188 363 c 128
 138 448 138 448 110.5 546 c 128
 83 644 83 644 83 750 c 257
232 750 m 257
 232 641 232 641 266.5 544.5 c 128
 301 448 301 448 363 369 c 257
 744 750 l 257
 363 1130 l 257
 301 1051 301 1051 266.5 954.5 c 128
 232 858 232 858 232 750 c 257
850 132 m 257
 958 132 958 132 1054.5 166.5 c 128
 1151 201 1151 201 1230 263 c 257
 850 644 l 257
 469 263 l 257
 548 201 548 201 644.5 166.5 c 128
 741 132 741 132 850 132 c 257
850 1367 m 257
 741 1367 741 1367 645 1332.5 c 128
 549 1298 549 1298 470 1236 c 257
 850 856 l 257
 1230 1236 l 257
 1151 1298 1151 1298 1054.5 1332.5 c 128
 958 1367 958 1367 850 1367 c 257
1467 750 m 257
 1467 858 1467 858 1432.5 954.5 c 128
 1398 1051 1398 1051 1336 1130 c 257
 956 750 l 257
 1336 370 l 257
 1398 449 1398 449 1432.5 545 c 128
 1467 641 1467 641 1467 750 c 257
EndSplineSet
EndChar
StartChar: staroperator
Encoding: 504 8902 504
GlifName: staroperator
Width: 1100
VWidth: 0
Flags: W
LayerCount: 2
Fore
SplineSet
740 697 m 257
 849 360 l 257
 618 519 l 257
 550 585 l 257
 482 519 l 257
 249 360 l 257
 357 697 l 257
 99 900 l 257
 429 900 l 257
 550 1206 l 257
 669 900 l 257
 999 900 l 257
 740 697 l 257
EndSplineSet
EndChar
StartChar: blackrightpointingtriangle
Encoding: 162 9654 162
GlifName: blackrightpointingtriangle
Width: 1000
VWidth: 0
Flags: W
LayerCount: 2
Fore
SplineSet
151 1135 m 257
 900 700 l 257
 151 266 l 257
 176 700 l 257
 151 1135 l 257
EndSplineSet
EndChar
StartChar: blackrightpointingsmall
Encoding: 161 9656 161
GlifName: blackrightpointingsmall
Width: 900
VWidth: 0
Flags: W
LayerCount: 2
Fore
SplineSet
199 991 m 257
 700 700 l 257
 199 410 l 257
 216 700 l 257
 199 991 l 257
EndSplineSet
EndChar
StartChar: bullseye
Encoding: 175 9678 175
GlifName: bullseye
Width: 1000
VWidth: 0
Flags: W
LayerCount: 2
Fore
SplineSet
500 821 m 257
 475 821 475 821 453.5 811.5 c 128
 432 802 432 802 415.5 785.5 c 128
 399 769 399 769 389.5 747.5 c 128
 380 726 380 726 380 701 c 257
 380 676 380 676 389.5 654.5 c 128
 399 633 399 633 415.5 616.5 c 128
 432 600 432 600 453.5 590.5 c 128
 475 581 475 581 500 581 c 257
 525 581 525 581 546.5 590.5 c 128
 568 600 568 600 584.5 616.5 c 128
 601 633 601 633 610.5 654.5 c 128
 620 676 620 676 620 701 c 257
 620 726 620 726 610.5 747.5 c 128
 601 769 601 769 584.5 785.5 c 128
 568 802 568 802 546.5 811.5 c 128
 525 821 525 821 500 821 c 257
84 701 m 257
 84 787 84 787 116.5 863 c 128
 149 939 149 939 205.5 995.5 c 128
 262 1052 262 1052 338 1084.5 c 128
 414 1117 414 1117 500 1117 c 257
 586 1117 586 1117 662 1084.5 c 128
 738 1052 738 1052 794.5 995.5 c 128
 851 939 851 939 883.5 863 c 128
 916 787 916 787 916 701 c 257
 916 615 916 615 883.5 539 c 128
 851 463 851 463 794.5 406.5 c 128
 738 350 738 350 662 317.5 c 128
 586 285 586 285 500 285 c 257
 414 285 414 285 338 317.5 c 128
 262 350 262 350 205.5 406.5 c 128
 149 463 149 463 116.5 539 c 128
 84 615 84 615 84 701 c 257
200 701 m 257
 200 639 200 639 223.5 584 c 128
 247 529 247 529 287.5 488.5 c 128
 328 448 328 448 383 424.5 c 128
 438 401 438 401 500 401 c 257
 562 401 562 401 617 424.5 c 128
 672 448 672 448 712.5 488.5 c 128
 753 529 753 529 776.5 584 c 128
 800 639 800 639 800 701 c 257
 800 763 800 763 776.5 818 c 128
 753 873 753 873 712.5 913.5 c 128
 672 954 672 954 617 977.5 c 128
 562 1001 562 1001 500 1001 c 257
 438 1001 438 1001 383 977.5 c 128
 328 954 328 954 287.5 913.5 c 128
 247 873 247 873 223.5 818 c 128
 200 763 200 763 200 701 c 257
300 701 m 257
 300 742 300 742 316 778.5 c 128
 332 815 332 815 359 842 c 128
 386 869 386 869 422.5 885 c 128
 459 901 459 901 500 901 c 257
 541 901 541 901 577.5 885 c 128
 614 869 614 869 641 842 c 128
 668 815 668 815 684 778.5 c 128
 700 742 700 742 700 701 c 257
 700 660 700 660 684 623.5 c 128
 668 587 668 587 641 560 c 128
 614 533 614 533 577.5 517 c 128
 541 501 541 501 500 501 c 257
 459 501 459 501 422.5 517 c 128
 386 533 386 533 359 560 c 128
 332 587 332 587 316 623.5 c 128
 300 660 300 660 300 701 c 257
EndSplineSet
EndChar
StartChar: circlewithupperhalfblack
Encoding: 193 9683 193
GlifName: circlewithupperhalfblack
Width: 1000
VWidth: 0
Flags: W
LayerCount: 2
Fore
SplineSet
500 285 m 257
 414 285 414 285 338 317.5 c 128
 262 350 262 350 205.5 406.5 c 128
 149 463 149 463 116.5 539 c 128
 84 615 84 615 84 701 c 257
 84 787 84 787 116.5 863 c 128
 149 939 149 939 205.5 995.5 c 128
 262 1052 262 1052 338 1084.5 c 128
 414 1117 414 1117 500 1117 c 257
 586 1117 586 1117 662 1084.5 c 128
 738 1052 738 1052 794.5 995.5 c 128
 851 939 851 939 883.5 863 c 128
 916 787 916 787 916 701 c 257
 916 615 916 615 883.5 539 c 128
 851 463 851 463 794.5 406.5 c 128
 738 350 738 350 662 317.5 c 128
 586 285 586 285 500 285 c 257
500 401 m 257
 562 401 562 401 617 424.5 c 128
 672 448 672 448 712.5 488.5 c 128
 753 529 753 529 776.5 584 c 128
 800 639 800 639 800 701 c 257
 200 701 l 257
 200 639 200 639 223.5 584 c 128
 247 529 247 529 287.5 488.5 c 128
 328 448 328 448 383 424.5 c 128
 438 401 438 401 500 401 c 257
EndSplineSet
EndChar
StartChar: umbrella
Encoding: 547 9730 547
GlifName: umbrella
Width: 1300
VWidth: 0
Flags: W
LayerCount: 2
Fore
SplineSet
785 90 m 257
 816 90 816 90 837.5 111.5 c 128
 859 133 859 133 859 164 c 257
 967 136 l 257
 967 107 967 107 953 79.5 c 128
 939 52 939 52 914.5 30.5 c 128
 890 9 890 9 856.5 -4 c 128
 823 -17 823 -17 785 -17 c 257
 744 -17 744 -17 710 -3.5 c 128
 676 10 676 10 651.5 34 c 128
 627 58 627 58 613.5 91 c 128
 600 124 600 124 600 164 c 257
 600 800 l 257
 449 800 449 800 353 794.5 c 128
 257 789 257 789 200 782 c 257
 134 774 134 774 100 764 c 257
 100 823 100 823 123.5 878 c 128
 147 933 147 933 187 981.5 c 128
 227 1030 227 1030 281 1070.5 c 128
 335 1111 335 1111 396 1139.5 c 128
 457 1168 457 1168 522 1184 c 128
 587 1200 587 1200 650 1200 c 257
 712 1200 712 1200 777.5 1184 c 128
 843 1168 843 1168 904 1139.5 c 128
 965 1111 965 1111 1019 1070.5 c 128
 1073 1030 1073 1030 1113 981.5 c 128
 1153 933 1153 933 1176.5 878 c 128
 1200 823 1200 823 1200 764 c 257
 1166 774 1166 774 1100 782 c 257
 1043 789 1043 789 947 794.5 c 128
 851 800 851 800 700 800 c 257
 700 174 l 257
 700 151 700 151 707.5 135 c 128
 715 119 715 119 727 109 c 128
 739 99 739 99 754 94.5 c 128
 769 90 769 90 785 90 c 257
EndSplineSet
EndChar
StartChar: snowman
Encoding: 496 9731 496
GlifName: snowman
Width: 1667
VWidth: 0
Flags: W
LayerCount: 2
Fore
SplineSet
800 749 m 257
 800 728 800 728 815 713 c 128
 830 698 830 698 851 698 c 257
 872 698 872 698 887 713 c 128
 902 728 902 728 902 749 c 257
 902 770 902 770 887 785 c 128
 872 800 872 800 851 800 c 257
 830 800 830 800 815 785 c 128
 800 770 800 770 800 749 c 257
800 349 m 257
 800 328 800 328 815 313 c 128
 830 298 830 298 851 298 c 257
 872 298 872 298 887 313 c 128
 902 328 902 328 902 349 c 257
 902 370 902 370 887 385 c 128
 872 400 872 400 851 400 c 257
 830 400 830 400 815 385 c 128
 800 370 800 370 800 349 c 257
600 1250 m 257
 600 1229 600 1229 614.5 1214.5 c 128
 629 1200 629 1200 650 1200 c 257
 671 1200 671 1200 685.5 1214.5 c 128
 700 1229 700 1229 700 1250 c 257
 700 1271 700 1271 685.5 1285.5 c 128
 671 1300 671 1300 650 1300 c 257
 629 1300 629 1300 614.5 1285.5 c 128
 600 1271 600 1271 600 1250 c 257
900 1260 m 257
 900 1257 900 1257 907.5 1250.5 c 128
 915 1244 915 1244 926 1237.5 c 128
 937 1231 937 1231 950 1226 c 128
 963 1221 963 1221 974 1221 c 257
 985 1221 985 1221 992.5 1227 c 128
 1000 1233 1000 1233 1000 1250 c 257
 1000 1271 1000 1271 985.5 1285.5 c 128
 971 1300 971 1300 950 1300 c 257
 929 1300 929 1300 914.5 1290.5 c 128
 900 1281 900 1281 900 1260 c 257
1232 783 m 257
 1252 752 1252 752 1268 698 c 128
 1284 644 1284 644 1295 583.5 c 128
 1306 523 1306 523 1311.5 465 c 128
 1317 407 1317 407 1317 368 c 257
 1317 261 1317 261 1276.5 187.5 c 128
 1236 114 1236 114 1165.5 68.5 c 128
 1095 23 1095 23 1001 3 c 128
 907 -17 907 -17 800 -17 c 257
 693 -17 693 -17 599 3 c 128
 505 23 505 23 434.5 68.5 c 128
 364 114 364 114 323.5 187.5 c 128
 283 261 283 261 283 368 c 257
 283 433 283 433 298.5 507 c 128
 314 581 314 581 342.5 654 c 128
 371 727 371 727 411 792.5 c 128
 451 858 451 858 500 906 c 257
 554 958 554 958 613 982 c 257
 587 1003 587 1003 566 1022.5 c 128
 545 1042 545 1042 530.5 1064.5 c 128
 516 1087 516 1087 508 1114 c 128
 500 1141 500 1141 500 1177 c 257
 500 1239 500 1239 523.5 1300 c 128
 547 1361 547 1361 587.5 1409 c 128
 628 1457 628 1457 683 1487 c 128
 738 1517 738 1517 800 1517 c 257
 862 1517 862 1517 917 1487 c 128
 972 1457 972 1457 1012.5 1409 c 128
 1053 1361 1053 1361 1076.5 1300 c 128
 1100 1239 1100 1239 1100 1177 c 257
 1100 1141 1100 1141 1092 1114 c 128
 1084 1087 1084 1087 1069.5 1064.5 c 128
 1055 1042 1055 1042 1034 1022.5 c 128
 1013 1003 1013 1003 987 982 c 257
 1007 974 1007 974 1032 961.5 c 128
 1057 949 1057 949 1084 931 c 128
 1111 913 1111 913 1138.5 890 c 128
 1166 867 1166 867 1190 839 c 257
 1173 962 l 257
 1315 1207 l 257
 1437 1137 l 257
 1232 783 l 257
800 549 m 257
 800 528 800 528 815 513 c 128
 830 498 830 498 851 498 c 257
 872 498 872 498 887 513 c 128
 902 528 902 528 902 549 c 257
 902 570 902 570 887 585 c 128
 872 600 872 600 851 600 c 257
 830 600 830 600 815 585 c 128
 800 570 800 570 800 549 c 257
777 1208 m 257
 770 1197 770 1197 770 1183 c 257
 770 1170 770 1170 776.5 1158.5 c 128
 783 1147 783 1147 795 1140 c 257
 802 1135 802 1135 825.5 1125 c 128
 849 1115 849 1115 877.5 1104.5 c 128
 906 1094 906 1094 933.5 1086 c 128
 961 1078 961 1078 978 1078 c 257
 990 1078 990 1078 993 1083 c 257
 994 1084 994 1084 994 1087 c 257
 994 1099 994 1099 974 1120.5 c 128
 954 1142 954 1142 928 1164 c 128
 902 1186 902 1186 878 1204 c 128
 854 1222 854 1222 845 1227 c 257
 834 1234 834 1234 820 1234 c 257
 807 1234 807 1234 795.5 1227.5 c 128
 784 1221 784 1221 777 1208 c 257
EndSplineSet
EndChar
StartChar: emptybox
Encoding: 244 9744 244
GlifName: emptybox
Width: 1100
VWidth: 0
Flags: W
LayerCount: 2
Fore
SplineSet
1100 0 m 257
 0 0 l 257
 0 1100 l 257
 1100 1100 l 257
 1100 0 l 257
165 165 m 257
 935 165 l 257
 935 935 l 257
 165 935 l 257
 165 165 l 257
EndSplineSet
EndChar
StartChar: frowningface
Encoding: 287 9785 287
GlifName: frowningface
Width: 1300
VWidth: 0
Flags: W
LayerCount: 2
Fore
SplineSet
750 600 m 257
 729 600 729 600 714.5 614 c 128
 700 628 700 628 700 649 c 257
 700 750 l 257
 700 771 700 771 714.5 785.5 c 128
 729 800 729 800 750 800 c 257
 771 800 771 800 785.5 785.5 c 128
 800 771 800 771 800 750 c 257
 800 649 l 257
 800 628 800 628 785.5 614 c 128
 771 600 771 600 750 600 c 257
550 600 m 257
 529 600 529 600 514.5 614 c 128
 500 628 500 628 500 649 c 257
 500 750 l 257
 500 771 500 771 514.5 785.5 c 128
 529 800 529 800 550 800 c 257
 571 800 571 800 585.5 785.5 c 128
 600 771 600 771 600 750 c 257
 600 649 l 257
 600 628 600 628 585.5 614 c 128
 571 600 571 600 550 600 c 257
83 550 m 257
 83 667 83 667 127.5 770.5 c 128
 172 874 172 874 249 951 c 128
 326 1028 326 1028 429.5 1072.5 c 128
 533 1117 533 1117 650 1117 c 257
 767 1117 767 1117 870.5 1072.5 c 128
 974 1028 974 1028 1051 951 c 128
 1128 874 1128 874 1172.5 770.5 c 128
 1217 667 1217 667 1217 550 c 257
 1217 433 1217 433 1172.5 329.5 c 128
 1128 226 1128 226 1051 149 c 128
 974 72 974 72 870.5 27.5 c 128
 767 -17 767 -17 650 -17 c 257
 533 -17 533 -17 429.5 27.5 c 128
 326 72 326 72 249 149 c 128
 172 226 172 226 127.5 329.5 c 128
 83 433 83 433 83 550 c 257
200 550 m 257
 200 457 200 457 235.5 375 c 128
 271 293 271 293 332 232 c 128
 393 171 393 171 475 135.5 c 128
 557 100 557 100 650 100 c 257
 743 100 743 100 825 135.5 c 128
 907 171 907 171 968 232 c 128
 1029 293 1029 293 1064.5 375 c 128
 1100 457 1100 457 1100 550 c 257
 1100 643 1100 643 1064.5 725 c 128
 1029 807 1029 807 968 868 c 128
 907 929 907 929 825 964.5 c 128
 743 1000 743 1000 650 1000 c 257
 557 1000 557 1000 475 964.5 c 128
 393 929 393 929 332 868 c 128
 271 807 271 807 235.5 725 c 128
 200 643 200 643 200 550 c 257
950 255 m 257
 922 295 922 295 880 327 c 257
 844 354 844 354 787.5 376.5 c 128
 731 399 731 399 650 399 c 257
 569 399 569 399 512.5 376.5 c 128
 456 354 456 354 420 327 c 257
 378 295 378 295 350 255 c 257
 350 309 350 309 376 354 c 128
 402 399 402 399 444 431.5 c 128
 486 464 486 464 540 482 c 128
 594 500 594 500 650 500 c 257
 706 500 706 500 760 482 c 128
 814 464 814 464 856 431.5 c 128
 898 399 898 399 924 354 c 128
 950 309 950 309 950 255 c 257
EndSplineSet
EndChar
StartChar: sun
Encoding: 509 9788 509
GlifName: sun
Width: 1800
VWidth: 0
Flags: W
LayerCount: 2
Fore
SplineSet
1429 456 m 257
 1424 428 1424 428 1417 401 c 128
 1410 374 1410 374 1400 347 c 257
 1528 245 l 257
 1510 206 l 257
 1350 244 l 257
 1304 172 1304 172 1239 114 c 257
 1329 -75 l 257
 1298 -96 l 257
 1147 47 l 257
 1123 33 1123 33 1097.5 20.5 c 128
 1072 8 1072 8 1045 -1 c 257
 1067 -247 l 257
 1036 -254 l 257
 941 -27 l 257
 919 -30 919 -30 897 -32 c 128
 875 -34 875 -34 852 -34 c 257
 846 -34 846 -34 840.5 -34 c 128
 835 -34 835 -34 829 -33 c 257
 770 -188 l 257
 727 -182 l 257
 713 -18 l 257
 630 5 630 5 556 47 c 257
 405 -96 l 257
 375 -75 l 257
 464 114 l 257
 443 133 443 133 423 153.5 c 128
 403 174 403 174 386 197 c 257
 160 100 l 257
 143 127 l 257
 330 287 l 257
 317 313 317 313 307 339 c 128
 297 365 297 365 289 393 c 257
 124 400 l 257
 117 442 l 257
 269 507 l 257
 269 518 269 518 268.5 528.5 c 128
 268 539 268 539 268 551 c 257
 268 618 268 618 281 676 c 257
 99 776 l 257
 110 811 l 257
 316 784 l 257
 339 837 339 837 372 884 c 257
 210 1069 l 257
 231 1094 l 257
 441 966 l 257
 461 986 461 986 483 1003.5 c 128
 505 1021 505 1021 528 1037 c 257
 484 1197 l 257
 522 1216 l 257
 630 1092 l 257
 706 1123 706 1123 795 1132 c 257
 833 1337 l 257
 871 1337 l 257
 909 1132 l 257
 938 1129 938 1129 966 1123.5 c 128
 994 1118 994 1118 1021 1110 c 257
 1146 1322 l 257
 1176 1310 l 257
 1120 1070 l 257
 1170 1044 1170 1044 1214 1009 c 257
 1353 1100 l 257
 1383 1070 l 257
 1297 929 l 257
 1325 896 1325 896 1348 860 c 128
 1371 824 1371 824 1388 784 c 257
 1594 811 l 257
 1605 776 l 257
 1423 676 l 257
 1428 649 1428 649 1431.5 621 c 128
 1435 593 1435 593 1436 564 c 257
 1675 509 l 257
 1675 477 l 257
 1429 456 l 257
1171 231 m 257
 1236 296 1236 296 1269.5 378 c 128
 1303 460 1303 460 1303 551 c 257
 1303 642 1303 642 1269.5 723.5 c 128
 1236 805 1236 805 1171 870 c 257
 1107 934 1107 934 1025 968 c 128
 943 1002 943 1002 852 1002 c 257
 761 1002 761 1002 679 968 c 128
 597 934 597 934 533 870 c 257
 468 805 468 805 434.5 723.5 c 128
 401 642 401 642 401 551 c 257
 401 460 401 460 434.5 378 c 128
 468 296 468 296 533 231 c 257
 597 167 597 167 679 133 c 128
 761 99 761 99 852 99 c 257
 943 99 943 99 1025 133 c 128
 1107 167 1107 167 1171 231 c 257
EndSplineSet
EndChar
StartChar: club
Encoding: 200 9827 200
GlifName: club
Width: 1400
VWidth: 0
Flags: W
LayerCount: 2
Fore
SplineSet
763 441 m 257
 763 401 763 401 767 360.5 c 128
 771 320 771 320 784 282.5 c 128
 797 245 797 245 821.5 213 c 128
 846 181 846 181 885.5 157 c 128
 925 133 925 133 982.5 119.5 c 128
 1040 106 1040 106 1120 106 c 257
 1120 0 l 257
 280 0 l 257
 280 106 l 257
 400 106 400 106 470.5 135.5 c 128
 541 165 541 165 578 213 c 128
 615 261 615 261 625.5 321 c 128
 636 381 636 381 636 441 c 257
 437 273 l 257
 366 274 366 274 301 282.5 c 128
 236 291 236 291 186 321 c 128
 136 351 136 351 106 410 c 128
 76 469 76 469 76 570 c 257
 76 629 76 629 98.5 680 c 128
 121 731 121 731 156 769 c 128
 191 807 191 807 235 829 c 128
 279 851 279 851 323 851 c 257
 600 700 l 257
 525 775 525 775 484.5 824.5 c 128
 444 874 444 874 425 905.5 c 128
 406 937 406 937 403 952.5 c 128
 400 968 400 968 400 976 c 257
 400 1013 400 1013 403.5 1051.5 c 128
 407 1090 407 1090 417.5 1126 c 128
 428 1162 428 1162 448 1193.5 c 128
 468 1225 468 1225 501.5 1249 c 128
 535 1273 535 1273 583.5 1286.5 c 128
 632 1300 632 1300 700 1300 c 257
 802 1300 802 1300 861.5 1270 c 128
 921 1240 921 1240 952 1193 c 128
 983 1146 983 1146 991.5 1088 c 128
 1000 1030 1000 1030 1000 975 c 257
 1000 968 1000 968 997 952 c 128
 994 936 994 936 975 905 c 128
 956 874 956 874 915.5 824.5 c 128
 875 775 875 775 800 700 c 257
 1077 851 l 257
 1118 851 1118 851 1162 829.5 c 128
 1206 808 1206 808 1242 770.5 c 128
 1278 733 1278 733 1301.5 681.5 c 128
 1325 630 1325 630 1325 570 c 257
 1325 469 1325 469 1295.5 410 c 128
 1266 351 1266 351 1216 320.5 c 128
 1166 290 1166 290 1101 281.5 c 128
 1036 273 1036 273 965 273 c 257
 763 441 l 257
EndSplineSet
EndChar
StartChar: highvoltage
Encoding: 304 9889 304
GlifName: highvoltage
Width: 1000
VWidth: 0
Flags: W
LayerCount: 2
Fore
SplineSet
600 1500 m 257
 700 1500 l 257
 440 900 l 257
 400 864 l 257
 453 872 l 257
 900 900 l 257
 400 0 l 257
 300 0 l 257
 560 600 l 257
 600 634 l 257
 548 624 l 257
 100 600 l 257
 600 1500 l 257
EndSplineSet
EndChar
StartChar: whitecircledthree
Encoding: 568 10114 568
GlifName: whitecircledthree
Width: 1700
VWidth: 0
Flags: W
LayerCount: 2
Fore
SplineSet
83 750 m 257
 83 856 83 856 110.5 954 c 128
 138 1052 138 1052 188 1137 c 128
 238 1222 238 1222 308 1292 c 128
 378 1362 378 1362 463 1412 c 128
 548 1462 548 1462 646 1489.5 c 128
 744 1517 744 1517 850 1517 c 257
 956 1517 956 1517 1054 1489.5 c 128
 1152 1462 1152 1462 1237 1412 c 128
 1322 1362 1322 1362 1392 1292 c 128
 1462 1222 1462 1222 1512 1137 c 128
 1562 1052 1562 1052 1589.5 954 c 128
 1617 856 1617 856 1617 750 c 257
 1617 644 1617 644 1589.5 546 c 128
 1562 448 1562 448 1512 363 c 128
 1462 278 1462 278 1392 208 c 128
 1322 138 1322 138 1237 88 c 128
 1152 38 1152 38 1054 10.5 c 128
 956 -17 956 -17 850 -17 c 257
 744 -17 744 -17 646 10.5 c 128
 548 38 548 38 463 88 c 128
 378 138 378 138 308 208 c 128
 238 278 238 278 188 363 c 128
 138 448 138 448 110.5 546 c 128
 83 644 83 644 83 750 c 257
201 750 m 257
 201 616 201 616 252 497.5 c 128
 303 379 303 379 391 291 c 128
 479 203 479 203 597.5 152 c 128
 716 101 716 101 850 101 c 257
 939 101 939 101 1022 124 c 128
 1105 147 1105 147 1177 189.5 c 128
 1249 232 1249 232 1308 291.5 c 128
 1367 351 1367 351 1409.5 423 c 128
 1452 495 1452 495 1475 577.5 c 128
 1498 660 1498 660 1498 750 c 257
 1498 884 1498 884 1447 1002 c 128
 1396 1120 1396 1120 1308 1208 c 128
 1220 1296 1220 1296 1102 1347 c 128
 984 1398 984 1398 850 1398 c 257
 760 1398 760 1398 677.5 1375 c 128
 595 1352 595 1352 523 1309.5 c 128
 451 1267 451 1267 391.5 1208 c 128
 332 1149 332 1149 289.5 1077 c 128
 247 1005 247 1005 224 922 c 128
 201 839 201 839 201 750 c 257
706 1104 m 257
 731 1200 l 257
 1169 1200 l 257
 1154 1116 l 257
 1143 1092 1143 1092 1121.5 1066 c 128
 1100 1040 1100 1040 1072 1013.5 c 128
 1044 987 1044 987 1012 961 c 128
 980 935 980 935 949 911 c 257
 862 867 l 257
 868 868 868 868 877.5 868 c 128
 887 868 887 868 895 869 c 257
 939 871 939 871 982 854.5 c 128
 1025 838 1025 838 1058.5 806.5 c 128
 1092 775 1092 775 1110.5 730.5 c 128
 1129 686 1129 686 1122 632 c 257
 1114 569 1114 569 1087.5 520 c 128
 1061 471 1061 471 1019 434 c 128
 977 397 977 397 924 371.5 c 128
 871 346 871 346 810 330 c 128
 749 314 749 314 684 307 c 128
 619 300 619 300 555 300 c 257
 572 396 l 257
 619 397 619 397 668.5 402 c 128
 718 407 718 407 765 417.5 c 128
 812 428 812 428 854 445.5 c 128
 896 463 896 463 927.5 488.5 c 128
 959 514 959 514 978.5 548 c 128
 998 582 998 582 1001 626 c 257
 1003 664 1003 664 988.5 693 c 128
 974 722 974 722 946 740.5 c 128
 918 759 918 759 878.5 767.5 c 128
 839 776 839 776 792 774 c 257
 773 773 773 773 750 772.5 c 128
 727 772 727 772 709 771 c 257
 725 864 l 257
 753 882 753 882 786 905 c 128
 819 928 819 928 852.5 952.5 c 128
 886 977 886 977 919 1002.5 c 128
 952 1028 952 1028 978.5 1051.5 c 128
 1005 1075 1005 1075 1024 1095 c 128
 1043 1115 1043 1115 1051 1128 c 257
 955 1104 l 257
 706 1104 l 257
EndSplineSet
EndChar
StartChar: whitecircledfive
Encoding: 562 10116 562
GlifName: whitecircledfive
Width: 1700
VWidth: 0
Flags: W
LayerCount: 2
Fore
SplineSet
83 750 m 257
 83 856 83 856 110.5 954 c 128
 138 1052 138 1052 188 1137 c 128
 238 1222 238 1222 308 1292 c 128
 378 1362 378 1362 463 1412 c 128
 548 1462 548 1462 646 1489.5 c 128
 744 1517 744 1517 850 1517 c 257
 956 1517 956 1517 1054 1489.5 c 128
 1152 1462 1152 1462 1237 1412 c 128
 1322 1362 1322 1362 1392 1292 c 128
 1462 1222 1462 1222 1512 1137 c 128
 1562 1052 1562 1052 1589.5 954 c 128
 1617 856 1617 856 1617 750 c 257
 1617 644 1617 644 1589.5 546 c 128
 1562 448 1562 448 1512 363 c 128
 1462 278 1462 278 1392 208 c 128
 1322 138 1322 138 1237 88 c 128
 1152 38 1152 38 1054 10.5 c 128
 956 -17 956 -17 850 -17 c 257
 744 -17 744 -17 646 10.5 c 128
 548 38 548 38 463 88 c 128
 378 138 378 138 308 208 c 128
 238 278 238 278 188 363 c 128
 138 448 138 448 110.5 546 c 128
 83 644 83 644 83 750 c 257
201 750 m 257
 201 616 201 616 252 497.5 c 128
 303 379 303 379 391 291 c 128
 479 203 479 203 597.5 152 c 128
 716 101 716 101 850 101 c 257
 939 101 939 101 1022 124 c 128
 1105 147 1105 147 1177 189.5 c 128
 1249 232 1249 232 1308 291.5 c 128
 1367 351 1367 351 1409.5 423 c 128
 1452 495 1452 495 1475 577.5 c 128
 1498 660 1498 660 1498 750 c 257
 1498 884 1498 884 1447 1002 c 128
 1396 1120 1396 1120 1308 1208 c 128
 1220 1296 1220 1296 1102 1347 c 128
 984 1398 984 1398 850 1398 c 257
 760 1398 760 1398 677.5 1375 c 128
 595 1352 595 1352 523 1309.5 c 128
 451 1267 451 1267 391.5 1208 c 128
 332 1149 332 1149 289.5 1077 c 128
 247 1005 247 1005 224 922 c 128
 201 839 201 839 201 750 c 257
778 889 m 257
 782 892 782 892 793 897 c 128
 804 902 804 902 818.5 907.5 c 128
 833 913 833 913 849.5 917 c 128
 866 921 866 921 882 921 c 257
 947 921 947 921 993 902 c 128
 1039 883 1039 883 1068 849 c 128
 1097 815 1097 815 1109 769.5 c 128
 1121 724 1121 724 1118 671 c 257
 1114 605 1114 605 1089.5 552 c 128
 1065 499 1065 499 1025 457.5 c 128
 985 416 985 416 932 386.5 c 128
 879 357 879 357 818 338 c 128
 757 319 757 319 690 309.5 c 128
 623 300 623 300 555 300 c 257
 572 396 l 257
 658 396 658 396 733.5 415 c 128
 809 434 809 434 866.5 469 c 128
 924 504 924 504 959 552.5 c 128
 994 601 994 601 998 659 c 257
 1001 690 1001 690 991.5 719 c 128
 982 748 982 748 963 770.5 c 128
 944 793 944 793 916 806.5 c 128
 888 820 888 820 853 820 c 257
 804 820 804 820 770 809.5 c 128
 736 799 736 799 708 780 c 257
 640 780 l 257
 713 1200 l 257
 1159 1200 l 257
 1142 1104 l 257
 815 1104 l 257
 778 889 l 257
EndSplineSet
EndChar
StartChar: whitecircledsix
Encoding: 567 10117 567
GlifName: whitecircledsix
Width: 1700
VWidth: 0
Flags: W
LayerCount: 2
Fore
SplineSet
83 750 m 257
 83 856 83 856 110.5 954 c 128
 138 1052 138 1052 188 1137 c 128
 238 1222 238 1222 308 1292 c 128
 378 1362 378 1362 463 1412 c 128
 548 1462 548 1462 646 1489.5 c 128
 744 1517 744 1517 850 1517 c 257
 956 1517 956 1517 1054 1489.5 c 128
 1152 1462 1152 1462 1237 1412 c 128
 1322 1362 1322 1362 1392 1292 c 128
 1462 1222 1462 1222 1512 1137 c 128
 1562 1052 1562 1052 1589.5 954 c 128
 1617 856 1617 856 1617 750 c 257
 1617 644 1617 644 1589.5 546 c 128
 1562 448 1562 448 1512 363 c 128
 1462 278 1462 278 1392 208 c 128
 1322 138 1322 138 1237 88 c 128
 1152 38 1152 38 1054 10.5 c 128
 956 -17 956 -17 850 -17 c 257
 744 -17 744 -17 646 10.5 c 128
 548 38 548 38 463 88 c 128
 378 138 378 138 308 208 c 128
 238 278 238 278 188 363 c 128
 138 448 138 448 110.5 546 c 128
 83 644 83 644 83 750 c 257
201 750 m 257
 201 616 201 616 252 497.5 c 128
 303 379 303 379 391 291 c 128
 479 203 479 203 597.5 152 c 128
 716 101 716 101 850 101 c 257
 939 101 939 101 1022 124 c 128
 1105 147 1105 147 1177 189.5 c 128
 1249 232 1249 232 1308 291.5 c 128
 1367 351 1367 351 1409.5 423 c 128
 1452 495 1452 495 1475 577.5 c 128
 1498 660 1498 660 1498 750 c 257
 1498 884 1498 884 1447 1002 c 128
 1396 1120 1396 1120 1308 1208 c 128
 1220 1296 1220 1296 1102 1347 c 128
 984 1398 984 1398 850 1398 c 257
 760 1398 760 1398 677.5 1375 c 128
 595 1352 595 1352 523 1309.5 c 128
 451 1267 451 1267 391.5 1208 c 128
 332 1149 332 1149 289.5 1077 c 128
 247 1005 247 1005 224 922 c 128
 201 839 201 839 201 750 c 257
1111 1106 m 257
 1107 1108 1107 1108 1099 1108 c 128
 1091 1108 1091 1108 1085 1108 c 257
 1032 1108 1032 1108 985.5 1094.5 c 128
 939 1081 939 1081 898.5 1056.5 c 128
 858 1032 858 1032 824.5 998 c 128
 791 964 791 964 763.5 922.5 c 128
 736 881 736 881 715.5 834.5 c 128
 695 788 695 788 681 738 c 257
 743 808 l 257
 760 818 760 818 781.5 827 c 128
 803 836 803 836 826.5 843 c 128
 850 850 850 850 873.5 854 c 128
 897 858 897 858 917 856 c 257
 969 853 969 853 1010.5 838.5 c 128
 1052 824 1052 824 1081 795 c 128
 1110 766 1110 766 1125 720 c 128
 1140 674 1140 674 1138 608 c 257
 1137 564 1137 564 1123.5 522.5 c 128
 1110 481 1110 481 1087 444 c 128
 1064 407 1064 407 1032 377 c 128
 1000 347 1000 347 961.5 326.5 c 128
 923 306 923 306 878.5 296 c 128
 834 286 834 286 786 290 c 257
 732 294 732 294 693.5 314.5 c 128
 655 335 655 335 628.5 366 c 128
 602 397 602 397 586 436 c 128
 570 475 570 475 562 516 c 128
 554 557 554 557 553 597.5 c 128
 552 638 552 638 555 672 c 257
 561 744 561 744 584 812 c 128
 607 880 607 880 643.5 939.5 c 128
 680 999 680 999 729.5 1049 c 128
 779 1099 779 1099 838 1134.5 c 128
 897 1170 897 1170 965.5 1190 c 128
 1034 1210 1034 1210 1108 1210 c 257
 1117 1210 1117 1210 1128 1210 c 128
 1139 1210 1139 1210 1144 1208 c 257
 1111 1106 l 257
672 658 m 257
 669 641 669 641 667 627.5 c 128
 665 614 665 614 664 600.5 c 128
 663 587 663 587 663 573.5 c 128
 663 560 663 560 665 544 c 257
 666 517 666 517 676 492 c 128
 686 467 686 467 703 446 c 128
 720 425 720 425 745.5 411 c 128
 771 397 771 397 805 392 c 257
 846 386 846 386 883 399 c 128
 920 412 920 412 948.5 439.5 c 128
 977 467 977 467 995 508.5 c 128
 1013 550 1013 550 1018 602 c 257
 1023 665 1023 665 990 706.5 c 128
 957 748 957 748 890 754 c 257
 822 761 822 761 767 737 c 128
 712 713 712 713 672 658 c 257
EndSplineSet
EndChar
StartChar: whitecircledseven
Encoding: 566 10118 566
GlifName: whitecircledseven
Width: 1700
VWidth: 0
Flags: W
LayerCount: 2
Fore
SplineSet
83 750 m 257
 83 856 83 856 110.5 954 c 128
 138 1052 138 1052 188 1137 c 128
 238 1222 238 1222 308 1292 c 128
 378 1362 378 1362 463 1412 c 128
 548 1462 548 1462 646 1489.5 c 128
 744 1517 744 1517 850 1517 c 257
 956 1517 956 1517 1054 1489.5 c 128
 1152 1462 1152 1462 1237 1412 c 128
 1322 1362 1322 1362 1392 1292 c 128
 1462 1222 1462 1222 1512 1137 c 128
 1562 1052 1562 1052 1589.5 954 c 128
 1617 856 1617 856 1617 750 c 257
 1617 644 1617 644 1589.5 546 c 128
 1562 448 1562 448 1512 363 c 128
 1462 278 1462 278 1392 208 c 128
 1322 138 1322 138 1237 88 c 128
 1152 38 1152 38 1054 10.5 c 128
 956 -17 956 -17 850 -17 c 257
 744 -17 744 -17 646 10.5 c 128
 548 38 548 38 463 88 c 128
 378 138 378 138 308 208 c 128
 238 278 238 278 188 363 c 128
 138 448 138 448 110.5 546 c 128
 83 644 83 644 83 750 c 257
201 750 m 257
 201 616 201 616 252 497.5 c 128
 303 379 303 379 391 291 c 128
 479 203 479 203 597.5 152 c 128
 716 101 716 101 850 101 c 257
 939 101 939 101 1022 124 c 128
 1105 147 1105 147 1177 189.5 c 128
 1249 232 1249 232 1308 291.5 c 128
 1367 351 1367 351 1409.5 423 c 128
 1452 495 1452 495 1475 577.5 c 128
 1498 660 1498 660 1498 750 c 257
 1498 884 1498 884 1447 1002 c 128
 1396 1120 1396 1120 1308 1208 c 128
 1220 1296 1220 1296 1102 1347 c 128
 984 1398 984 1398 850 1398 c 257
 760 1398 760 1398 677.5 1375 c 128
 595 1352 595 1352 523 1309.5 c 128
 451 1267 451 1267 391.5 1208 c 128
 332 1149 332 1149 289.5 1077 c 128
 247 1005 247 1005 224 922 c 128
 201 839 201 839 201 750 c 257
642 1200 m 257
 1178 1200 l 257
 1164 1122 l 257
 1160 1097 1160 1097 1133.5 1059.5 c 128
 1107 1022 1107 1022 1069 975 c 128
 1031 928 1031 928 985 872.5 c 128
 939 817 939 817 896.5 755.5 c 128
 854 694 854 694 818.5 629 c 128
 783 564 783 564 765 497 c 257
 759 473 759 473 752.5 446.5 c 128
 746 420 746 420 740.5 394.5 c 128
 735 369 735 369 730.5 344.5 c 128
 726 320 726 320 723 300 c 257
 604 300 l 257
 607 318 607 318 613 348 c 128
 619 378 619 378 626.5 411.5 c 128
 634 445 634 445 642.5 478 c 128
 651 511 651 511 659 535 c 257
 680 601 680 601 713.5 663.5 c 128
 747 726 747 726 786 783.5 c 128
 825 841 825 841 865.5 891 c 128
 906 941 906 941 941 982.5 c 128
 976 1024 976 1024 1001 1055 c 128
 1026 1086 1026 1086 1033 1104 c 257
 626 1104 l 257
 642 1200 l 257
EndSplineSet
EndChar
StartChar: whitecircledeight
Encoding: 561 10119 561
GlifName: whitecircledeight
Width: 1700
VWidth: 0
Flags: W
LayerCount: 2
Fore
SplineSet
83 750 m 257
 83 856 83 856 110.5 954 c 128
 138 1052 138 1052 188 1137 c 128
 238 1222 238 1222 308 1292 c 128
 378 1362 378 1362 463 1412 c 128
 548 1462 548 1462 646 1489.5 c 128
 744 1517 744 1517 850 1517 c 257
 956 1517 956 1517 1054 1489.5 c 128
 1152 1462 1152 1462 1237 1412 c 128
 1322 1362 1322 1362 1392 1292 c 128
 1462 1222 1462 1222 1512 1137 c 128
 1562 1052 1562 1052 1589.5 954 c 128
 1617 856 1617 856 1617 750 c 257
 1617 644 1617 644 1589.5 546 c 128
 1562 448 1562 448 1512 363 c 128
 1462 278 1462 278 1392 208 c 128
 1322 138 1322 138 1237 88 c 128
 1152 38 1152 38 1054 10.5 c 128
 956 -17 956 -17 850 -17 c 257
 744 -17 744 -17 646 10.5 c 128
 548 38 548 38 463 88 c 128
 378 138 378 138 308 208 c 128
 238 278 238 278 188 363 c 128
 138 448 138 448 110.5 546 c 128
 83 644 83 644 83 750 c 257
201 750 m 257
 201 616 201 616 252 497.5 c 128
 303 379 303 379 391 291 c 128
 479 203 479 203 597.5 152 c 128
 716 101 716 101 850 101 c 257
 939 101 939 101 1022 124 c 128
 1105 147 1105 147 1177 189.5 c 128
 1249 232 1249 232 1308 291.5 c 128
 1367 351 1367 351 1409.5 423 c 128
 1452 495 1452 495 1475 577.5 c 128
 1498 660 1498 660 1498 750 c 257
 1498 884 1498 884 1447 1002 c 128
 1396 1120 1396 1120 1308 1208 c 128
 1220 1296 1220 1296 1102 1347 c 128
 984 1398 984 1398 850 1398 c 257
 760 1398 760 1398 677.5 1375 c 128
 595 1352 595 1352 523 1309.5 c 128
 451 1267 451 1267 391.5 1208 c 128
 332 1149 332 1149 289.5 1077 c 128
 247 1005 247 1005 224 922 c 128
 201 839 201 839 201 750 c 257
943 1210 m 257
 995 1208 995 1208 1036 1193 c 128
 1077 1178 1077 1178 1104.5 1150.5 c 128
 1132 1123 1132 1123 1145 1083.5 c 128
 1158 1044 1158 1044 1153 993 c 257
 1149 957 1149 957 1135 929 c 128
 1121 901 1121 901 1099.5 879.5 c 128
 1078 858 1078 858 1051 840.5 c 128
 1024 823 1024 823 996 808 c 257
 1036 788 1036 788 1064 762.5 c 128
 1092 737 1092 737 1109 705 c 128
 1126 673 1126 673 1131.5 633.5 c 128
 1137 594 1137 594 1132 546 c 257
 1128 501 1128 501 1112 463.5 c 128
 1096 426 1096 426 1070 396.5 c 128
 1044 367 1044 367 1011 345.5 c 128
 978 324 978 324 940.5 310.5 c 128
 903 297 903 297 863 292 c 128
 823 287 823 287 784 290 c 257
 728 294 728 294 681 311.5 c 128
 634 329 634 329 601.5 361.5 c 128
 569 394 569 394 553.5 442 c 128
 538 490 538 490 544 554 c 257
 548 603 548 603 567 642 c 128
 586 681 586 681 616 712 c 128
 646 743 646 743 683.5 767 c 128
 721 791 721 791 763 810 c 257
 738 827 738 827 719 846 c 128
 700 865 700 865 687.5 886.5 c 128
 675 908 675 908 669.5 932.5 c 128
 664 957 664 957 666 986 c 257
 670 1045 670 1045 696 1088.5 c 128
 722 1132 722 1132 761 1159.5 c 128
 800 1187 800 1187 847.5 1199.5 c 128
 895 1212 895 1212 943 1210 c 257
856 756 m 257
 816 740 816 740 780 720.5 c 128
 744 701 744 701 717 676.5 c 128
 690 652 690 652 673.5 620.5 c 128
 657 589 657 589 655 548 c 257
 653 511 653 511 663 483 c 128
 673 455 673 455 692.5 435 c 128
 712 415 712 415 740 403.5 c 128
 768 392 768 392 802 388 c 257
 840 383 840 383 878 393 c 128
 916 403 916 403 947.5 424.5 c 128
 979 446 979 446 999 477.5 c 128
 1019 509 1019 509 1020 549 c 257
 1021 590 1021 590 1008.5 621.5 c 128
 996 653 996 653 973.5 678 c 128
 951 703 951 703 920.5 721.5 c 128
 890 740 890 740 856 756 c 257
898 854 m 257
 928 866 928 866 954.5 880.5 c 128
 981 895 981 895 1000.5 912.5 c 128
 1020 930 1020 930 1032 951.5 c 128
 1044 973 1044 973 1044 998 c 257
 1045 1028 1045 1028 1036 1049 c 128
 1027 1070 1027 1070 1011.5 1083 c 128
 996 1096 996 1096 976.5 1102.5 c 128
 957 1109 957 1109 937 1111 c 257
 909 1114 909 1114 881 1106.5 c 128
 853 1099 853 1099 830 1083 c 128
 807 1067 807 1067 792.5 1045.5 c 128
 778 1024 778 1024 778 1000 c 257
 778 972 778 972 786.5 950.5 c 128
 795 929 795 929 810.5 912 c 128
 826 895 826 895 848.5 881 c 128
 871 867 871 867 898 854 c 257
EndSplineSet
EndChar
StartChar: whitecirclednine
Encoding: 564 10120 564
GlifName: whitecirclednine
Width: 1700
VWidth: 0
Flags: W
LayerCount: 2
Fore
SplineSet
83 750 m 257
 83 856 83 856 110.5 954 c 128
 138 1052 138 1052 188 1137 c 128
 238 1222 238 1222 308 1292 c 128
 378 1362 378 1362 463 1412 c 128
 548 1462 548 1462 646 1489.5 c 128
 744 1517 744 1517 850 1517 c 257
 956 1517 956 1517 1054 1489.5 c 128
 1152 1462 1152 1462 1237 1412 c 128
 1322 1362 1322 1362 1392 1292 c 128
 1462 1222 1462 1222 1512 1137 c 128
 1562 1052 1562 1052 1589.5 954 c 128
 1617 856 1617 856 1617 750 c 257
 1617 644 1617 644 1589.5 546 c 128
 1562 448 1562 448 1512 363 c 128
 1462 278 1462 278 1392 208 c 128
 1322 138 1322 138 1237 88 c 128
 1152 38 1152 38 1054 10.5 c 128
 956 -17 956 -17 850 -17 c 257
 744 -17 744 -17 646 10.5 c 128
 548 38 548 38 463 88 c 128
 378 138 378 138 308 208 c 128
 238 278 238 278 188 363 c 128
 138 448 138 448 110.5 546 c 128
 83 644 83 644 83 750 c 257
201 750 m 257
 201 616 201 616 252 497.5 c 128
 303 379 303 379 391 291 c 128
 479 203 479 203 597.5 152 c 128
 716 101 716 101 850 101 c 257
 939 101 939 101 1022 124 c 128
 1105 147 1105 147 1177 189.5 c 128
 1249 232 1249 232 1308 291.5 c 128
 1367 351 1367 351 1409.5 423 c 128
 1452 495 1452 495 1475 577.5 c 128
 1498 660 1498 660 1498 750 c 257
 1498 884 1498 884 1447 1002 c 128
 1396 1120 1396 1120 1308 1208 c 128
 1220 1296 1220 1296 1102 1347 c 128
 984 1398 984 1398 850 1398 c 257
 760 1398 760 1398 677.5 1375 c 128
 595 1352 595 1352 523 1309.5 c 128
 451 1267 451 1267 391.5 1208 c 128
 332 1149 332 1149 289.5 1077 c 128
 247 1005 247 1005 224 922 c 128
 201 839 201 839 201 750 c 257
999 698 m 257
 980 684 980 684 961 674 c 128
 942 664 942 664 923 657 c 128
 904 650 904 650 884 646.5 c 128
 864 643 864 643 842 644 c 257
 789 645 789 645 746.5 663.5 c 128
 704 682 704 682 673.5 716.5 c 128
 643 751 643 751 627 802 c 128
 611 853 611 853 613 919 c 257
 615 985 615 985 643 1042 c 128
 671 1099 671 1099 718 1138.5 c 128
 765 1178 765 1178 826 1198 c 128
 887 1218 887 1218 955 1210 c 257
 1014 1204 1014 1204 1054.5 1183 c 128
 1095 1162 1095 1162 1121.5 1132 c 128
 1148 1102 1148 1102 1162 1064.5 c 128
 1176 1027 1176 1027 1181.5 987 c 128
 1187 947 1187 947 1186.5 906 c 128
 1186 865 1186 865 1184 828 c 257
 1178 757 1178 757 1155 689.5 c 128
 1132 622 1132 622 1094 562 c 128
 1056 502 1056 502 1006 452 c 128
 956 402 956 402 897 366 c 128
 838 330 838 330 771.5 310 c 128
 705 290 705 290 636 290 c 257
 635 390 l 257
 710 392 710 392 780.5 419 c 128
 851 446 851 446 908.5 495.5 c 128
 966 545 966 545 1006 614 c 128
 1046 683 1046 683 1060 768 c 257
 999 698 l 257
1071 872 m 257
 1073 916 1073 916 1069 957 c 128
 1065 998 1065 998 1050.5 1030 c 128
 1036 1062 1036 1062 1009 1083 c 128
 982 1104 982 1104 939 1108 c 257
 896 1112 896 1112 860 1099.5 c 128
 824 1087 824 1087 796.5 1062 c 128
 769 1037 769 1037 752 1002.5 c 128
 735 968 735 968 731 929 c 257
 727 890 727 890 732 858 c 128
 737 826 737 826 752.5 802.5 c 128
 768 779 768 779 795 764.5 c 128
 822 750 822 750 863 746 c 257
 894 742 894 742 925.5 750 c 128
 957 758 957 758 984.5 775.5 c 128
 1012 793 1012 793 1034.5 817.5 c 128
 1057 842 1057 842 1071 872 c 257
EndSplineSet
EndChar
StartChar: blackcircledone
Encoding: 153 10122 153
GlifName: blackcircledone
Width: 1700
VWidth: 0
Flags: W
LayerCount: 2
Fore
SplineSet
83 750 m 257
 83 856 83 856 110.5 954 c 128
 138 1052 138 1052 188 1137 c 128
 238 1222 238 1222 308 1292 c 128
 378 1362 378 1362 463 1412 c 128
 548 1462 548 1462 646 1489.5 c 128
 744 1517 744 1517 850 1517 c 257
 956 1517 956 1517 1054 1489.5 c 128
 1152 1462 1152 1462 1237 1412 c 128
 1322 1362 1322 1362 1392 1292 c 128
 1462 1222 1462 1222 1512 1137 c 128
 1562 1052 1562 1052 1589.5 954 c 128
 1617 856 1617 856 1617 750 c 257
 1617 644 1617 644 1589.5 546 c 128
 1562 448 1562 448 1512 363 c 128
 1462 278 1462 278 1392 208 c 128
 1322 138 1322 138 1237 88 c 128
 1152 38 1152 38 1054 10.5 c 128
 956 -17 956 -17 850 -17 c 257
 744 -17 744 -17 646 10.5 c 128
 548 38 548 38 463 88 c 128
 378 138 378 138 308 208 c 128
 238 278 238 278 188 363 c 128
 138 448 138 448 110.5 546 c 128
 83 644 83 644 83 750 c 257
1022 300 m 257
 1039 396 l 257
 892 396 l 257
 1033 1200 l 257
 952 1212 l 257
 632 960 l 257
 684 887 l 257
 831 1000 l 257
 933 1112 l 257
 874 976 l 257
 772 396 l 257
 625 396 l 257
 608 300 l 257
 1022 300 l 257
EndSplineSet
EndChar
StartChar: blackcircledtwo
Encoding: 157 10123 157
GlifName: blackcircledtwo
Width: 1700
VWidth: 0
Flags: W
LayerCount: 2
Fore
SplineSet
83 750 m 257
 83 856 83 856 110.5 954 c 128
 138 1052 138 1052 188 1137 c 128
 238 1222 238 1222 308 1292 c 128
 378 1362 378 1362 463 1412 c 128
 548 1462 548 1462 646 1489.5 c 128
 744 1517 744 1517 850 1517 c 257
 956 1517 956 1517 1054 1489.5 c 128
 1152 1462 1152 1462 1237 1412 c 128
 1322 1362 1322 1362 1392 1292 c 128
 1462 1222 1462 1222 1512 1137 c 128
 1562 1052 1562 1052 1589.5 954 c 128
 1617 856 1617 856 1617 750 c 257
 1617 644 1617 644 1589.5 546 c 128
 1562 448 1562 448 1512 363 c 128
 1462 278 1462 278 1392 208 c 128
 1322 138 1322 138 1237 88 c 128
 1152 38 1152 38 1054 10.5 c 128
 956 -17 956 -17 850 -17 c 257
 744 -17 744 -17 646 10.5 c 128
 548 38 548 38 463 88 c 128
 378 138 378 138 308 208 c 128
 238 278 238 278 188 363 c 128
 138 448 138 448 110.5 546 c 128
 83 644 83 644 83 750 c 257
1057 300 m 257
 1073 396 l 257
 671 396 l 257
 695 432 695 432 725 466 c 128
 755 500 755 500 789.5 533 c 128
 824 566 824 566 861.5 598.5 c 128
 899 631 899 631 936 663 c 257
 969 692 969 692 1007 724.5 c 128
 1045 757 1045 757 1077.5 794.5 c 128
 1110 832 1110 832 1132.5 874 c 128
 1155 916 1155 916 1157 962 c 257
 1160 1006 1160 1006 1148.5 1048.5 c 128
 1137 1091 1137 1091 1111 1126 c 128
 1085 1161 1085 1161 1044 1184 c 128
 1003 1207 1003 1207 946 1210 c 257
 896 1214 896 1214 851 1203 c 128
 806 1192 806 1192 768.5 1169.5 c 128
 731 1147 731 1147 700.5 1112 c 128
 670 1077 670 1077 649 1032 c 257
 727 996 l 257
 742 1021 742 1021 760.5 1043.5 c 128
 779 1066 779 1066 803 1083 c 128
 827 1100 827 1100 856 1107.5 c 128
 885 1115 885 1115 919 1109 c 257
 983 1097 983 1097 1012 1060.5 c 128
 1041 1024 1041 1024 1042 969 c 257
 1042 934 1042 934 1026.5 903.5 c 128
 1011 873 1011 873 984 843.5 c 128
 957 814 957 814 921 784.5 c 128
 885 755 885 755 845 721 c 257
 813 695 813 695 773.5 662 c 128
 734 629 734 629 692.5 589 c 128
 651 549 651 549 609.5 502 c 128
 568 455 568 455 532 401 c 257
 514 300 l 257
 1057 300 l 257
EndSplineSet
EndChar
StartChar: blackcircledthree
Encoding: 156 10124 156
GlifName: blackcircledthree
Width: 1700
VWidth: 0
Flags: W
LayerCount: 2
Fore
SplineSet
83 750 m 257
 83 856 83 856 110.5 954 c 128
 138 1052 138 1052 188 1137 c 128
 238 1222 238 1222 308 1292 c 128
 378 1362 378 1362 463 1412 c 128
 548 1462 548 1462 646 1489.5 c 128
 744 1517 744 1517 850 1517 c 257
 956 1517 956 1517 1054 1489.5 c 128
 1152 1462 1152 1462 1237 1412 c 128
 1322 1362 1322 1362 1392 1292 c 128
 1462 1222 1462 1222 1512 1137 c 128
 1562 1052 1562 1052 1589.5 954 c 128
 1617 856 1617 856 1617 750 c 257
 1617 644 1617 644 1589.5 546 c 128
 1562 448 1562 448 1512 363 c 128
 1462 278 1462 278 1392 208 c 128
 1322 138 1322 138 1237 88 c 128
 1152 38 1152 38 1054 10.5 c 128
 956 -17 956 -17 850 -17 c 257
 744 -17 744 -17 646 10.5 c 128
 548 38 548 38 463 88 c 128
 378 138 378 138 308 208 c 128
 238 278 238 278 188 363 c 128
 138 448 138 448 110.5 546 c 128
 83 644 83 644 83 750 c 257
975 1104 m 257
 1071 1128 l 257
 1063 1115 1063 1115 1044 1095 c 128
 1025 1075 1025 1075 998.5 1051.5 c 128
 972 1028 972 1028 939 1002.5 c 128
 906 977 906 977 872.5 952.5 c 128
 839 928 839 928 806 905 c 128
 773 882 773 882 745 864 c 257
 729 771 l 257
 747 772 747 772 770 772.5 c 128
 793 773 793 773 812 774 c 257
 859 776 859 776 898.5 767.5 c 128
 938 759 938 759 966 740.5 c 128
 994 722 994 722 1008.5 693 c 128
 1023 664 1023 664 1021 626 c 257
 1018 582 1018 582 998.5 548 c 128
 979 514 979 514 947.5 488.5 c 128
 916 463 916 463 874 445.5 c 128
 832 428 832 428 785 417.5 c 128
 738 407 738 407 688.5 402 c 128
 639 397 639 397 592 396 c 257
 575 300 l 257
 639 300 639 300 704 307 c 128
 769 314 769 314 830 330 c 128
 891 346 891 346 944 371.5 c 128
 997 397 997 397 1039 434 c 128
 1081 471 1081 471 1107.5 520 c 128
 1134 569 1134 569 1142 632 c 257
 1149 686 1149 686 1130.5 730.5 c 128
 1112 775 1112 775 1078.5 806.5 c 128
 1045 838 1045 838 1002 854.5 c 128
 959 871 959 871 915 869 c 257
 907 868 907 868 897.5 868 c 128
 888 868 888 868 882 867 c 257
 969 911 l 257
 1000 935 1000 935 1032 961 c 128
 1064 987 1064 987 1092 1013.5 c 128
 1120 1040 1120 1040 1141.5 1066 c 128
 1163 1092 1163 1092 1174 1116 c 257
 1189 1200 l 257
 751 1200 l 257
 726 1104 l 257
 975 1104 l 257
EndSplineSet
EndChar
StartChar: blackcircledfive
Encoding: 150 10126 150
GlifName: blackcircledfive
Width: 1700
VWidth: 0
Flags: W
LayerCount: 2
Fore
SplineSet
83 750 m 257
 83 856 83 856 110.5 954 c 128
 138 1052 138 1052 188 1137 c 128
 238 1222 238 1222 308 1292 c 128
 378 1362 378 1362 463 1412 c 128
 548 1462 548 1462 646 1489.5 c 128
 744 1517 744 1517 850 1517 c 257
 956 1517 956 1517 1054 1489.5 c 128
 1152 1462 1152 1462 1237 1412 c 128
 1322 1362 1322 1362 1392 1292 c 128
 1462 1222 1462 1222 1512 1137 c 128
 1562 1052 1562 1052 1589.5 954 c 128
 1617 856 1617 856 1617 750 c 257
 1617 644 1617 644 1589.5 546 c 128
 1562 448 1562 448 1512 363 c 128
 1462 278 1462 278 1392 208 c 128
 1322 138 1322 138 1237 88 c 128
 1152 38 1152 38 1054 10.5 c 128
 956 -17 956 -17 850 -17 c 257
 744 -17 744 -17 646 10.5 c 128
 548 38 548 38 463 88 c 128
 378 138 378 138 308 208 c 128
 238 278 238 278 188 363 c 128
 138 448 138 448 110.5 546 c 128
 83 644 83 644 83 750 c 257
817 1104 m 257
 1144 1104 l 257
 1161 1200 l 257
 715 1200 l 257
 642 780 l 257
 710 780 l 257
 738 799 738 799 772 809.5 c 128
 806 820 806 820 855 820 c 257
 890 820 890 820 918 806.5 c 128
 946 793 946 793 965 770.5 c 128
 984 748 984 748 993.5 719 c 128
 1003 690 1003 690 1000 659 c 257
 996 601 996 601 961 552.5 c 128
 926 504 926 504 868.5 469 c 128
 811 434 811 434 735.5 415 c 128
 660 396 660 396 574 396 c 257
 557 300 l 257
 625 300 625 300 692 309.5 c 128
 759 319 759 319 820 338 c 128
 881 357 881 357 934 386.5 c 128
 987 416 987 416 1027 457.5 c 128
 1067 499 1067 499 1091.5 552 c 128
 1116 605 1116 605 1120 671 c 257
 1123 724 1123 724 1111 769.5 c 128
 1099 815 1099 815 1070 849 c 128
 1041 883 1041 883 995 902 c 128
 949 921 949 921 884 921 c 257
 868 921 868 921 851.5 917 c 128
 835 913 835 913 820.5 907.5 c 128
 806 902 806 902 795 897 c 128
 784 892 784 892 780 889 c 257
 817 1104 l 257
EndSplineSet
EndChar
StartChar: blackcircledeight
Encoding: 149 10129 149
GlifName: blackcircledeight
Width: 1700
VWidth: 0
Flags: W
LayerCount: 2
Fore
SplineSet
83 750 m 257
 83 856 83 856 110.5 954 c 128
 138 1052 138 1052 188 1137 c 128
 238 1222 238 1222 308 1292 c 128
 378 1362 378 1362 463 1412 c 128
 548 1462 548 1462 646 1489.5 c 128
 744 1517 744 1517 850 1517 c 257
 956 1517 956 1517 1054 1489.5 c 128
 1152 1462 1152 1462 1237 1412 c 128
 1322 1362 1322 1362 1392 1292 c 128
 1462 1222 1462 1222 1512 1137 c 128
 1562 1052 1562 1052 1589.5 954 c 128
 1617 856 1617 856 1617 750 c 257
 1617 644 1617 644 1589.5 546 c 128
 1562 448 1562 448 1512 363 c 128
 1462 278 1462 278 1392 208 c 128
 1322 138 1322 138 1237 88 c 128
 1152 38 1152 38 1054 10.5 c 128
 956 -17 956 -17 850 -17 c 257
 744 -17 744 -17 646 10.5 c 128
 548 38 548 38 463 88 c 128
 378 138 378 138 308 208 c 128
 238 278 238 278 188 363 c 128
 138 448 138 448 110.5 546 c 128
 83 644 83 644 83 750 c 257
920 1210 m 257
 872 1212 872 1212 824.5 1199.5 c 128
 777 1187 777 1187 738 1159.5 c 128
 699 1132 699 1132 673 1088.5 c 128
 647 1045 647 1045 643 986 c 257
 641 957 641 957 646.5 932.5 c 128
 652 908 652 908 664.5 886.5 c 128
 677 865 677 865 696 846 c 128
 715 827 715 827 740 810 c 257
 698 791 698 791 660.5 767 c 128
 623 743 623 743 593 712 c 128
 563 681 563 681 544 642 c 128
 525 603 525 603 521 554 c 257
 515 490 515 490 530.5 442 c 128
 546 394 546 394 578.5 361.5 c 128
 611 329 611 329 658 311.5 c 128
 705 294 705 294 761 290 c 257
 800 287 800 287 840 292 c 128
 880 297 880 297 917.5 310.5 c 128
 955 324 955 324 988 345.5 c 128
 1021 367 1021 367 1047 396.5 c 128
 1073 426 1073 426 1089 463.5 c 128
 1105 501 1105 501 1109 546 c 257
 1114 594 1114 594 1108.5 633.5 c 128
 1103 673 1103 673 1086 705 c 128
 1069 737 1069 737 1041 762.5 c 128
 1013 788 1013 788 973 808 c 257
 1001 823 1001 823 1028 840.5 c 128
 1055 858 1055 858 1076.5 879.5 c 128
 1098 901 1098 901 1112 929 c 128
 1126 957 1126 957 1130 993 c 257
 1135 1044 1135 1044 1122 1083.5 c 128
 1109 1123 1109 1123 1081.5 1150.5 c 128
 1054 1178 1054 1178 1013 1193 c 128
 972 1208 972 1208 920 1210 c 257
833 756 m 257
 867 740 867 740 897.5 721.5 c 128
 928 703 928 703 950.5 678 c 128
 973 653 973 653 985.5 621.5 c 128
 998 590 998 590 997 549 c 257
 996 509 996 509 976 477.5 c 128
 956 446 956 446 924.5 424.5 c 128
 893 403 893 403 855 393 c 128
 817 383 817 383 779 388 c 257
 745 392 745 392 717 403.5 c 128
 689 415 689 415 669.5 435 c 128
 650 455 650 455 640 483 c 128
 630 511 630 511 632 548 c 257
 634 589 634 589 650.5 620.5 c 128
 667 652 667 652 694 676.5 c 128
 721 701 721 701 757 720.5 c 128
 793 740 793 740 833 756 c 257
875 854 m 257
 848 867 848 867 825.5 881 c 128
 803 895 803 895 787.5 912 c 128
 772 929 772 929 763.5 950.5 c 128
 755 972 755 972 755 1000 c 257
 755 1024 755 1024 769.5 1045.5 c 128
 784 1067 784 1067 807 1083 c 128
 830 1099 830 1099 858 1106.5 c 128
 886 1114 886 1114 914 1111 c 257
 934 1109 934 1109 953.5 1102.5 c 128
 973 1096 973 1096 988.5 1083 c 128
 1004 1070 1004 1070 1013 1049 c 128
 1022 1028 1022 1028 1021 998 c 257
 1021 973 1021 973 1009 951.5 c 128
 997 930 997 930 977.5 912.5 c 128
 958 895 958 895 931.5 880.5 c 128
 905 866 905 866 875 854 c 257
EndSplineSet
EndChar
StartChar: takeoff
Encoding: 512 57344 512
GlifName: takeoff
Width: 2600
VWidth: 0
Flags: W
LayerCount: 2
Fore
SplineSet
80 -200 m 257
 100 0 l 257
 1900 0 l 257
 1900 -200 l 257
 80 -200 l 257
2300 -200 m 257
 2300 0 l 257
 2400 0 l 257
 2400 -200 l 257
 2300 -200 l 257
2000 -200 m 257
 2000 0 l 257
 2200 0 l 257
 2200 -200 l 257
 2000 -200 l 257
1495 1138 m 257
 2051 1378 l 257
 2090 1392 2090 1392 2133.5 1399.5 c 128
 2177 1407 2177 1407 2221 1407 c 257
 2264 1407 2264 1407 2313.5 1396.5 c 128
 2363 1386 2363 1386 2405 1362.5 c 128
 2447 1339 2447 1339 2474.5 1302 c 128
 2502 1265 2502 1265 2502 1211 c 257
 2502 1167 2502 1167 2480 1123.5 c 128
 2458 1080 2458 1080 2423.5 1042.5 c 128
 2389 1005 2389 1005 2346 975.5 c 128
 2303 946 2303 946 2261 928 c 257
 1213 499 l 257
 1208 499 1208 499 1201 499.5 c 128
 1194 500 1194 500 1186 500 c 257
 1148 500 1148 500 1087.5 496.5 c 128
 1027 493 1027 493 956.5 488 c 128
 886 483 886 483 812.5 476 c 128
 739 469 739 469 676 462 c 128
 613 455 613 455 567 448 c 128
 521 441 521 441 506 436 c 257
 458 568 l 257
 120 767 l 257
 344 849 l 257
 678 768 l 257
 1013 907 l 257
 562 1266 l 257
 897 1388 l 257
 1495 1138 l 257
EndSplineSet
EndChar
StartChar: landing
Encoding: 330 57348 330
GlifName: landing
Width: 2600
VWidth: 0
Flags: W
LayerCount: 2
Fore
SplineSet
2400 -200 m 257
 600 -200 l 257
 600 0 l 257
 2400 0 l 257
 2400 -200 l 257
200 -200 m 257
 80 -200 l 257
 100 0 l 257
 200 0 l 257
 200 -200 l 257
500 -200 m 257
 300 -200 l 257
 300 0 l 257
 500 0 l 257
 500 -200 l 257
1504 1021 m 257
 2097 898 l 257
 2152 883 2152 883 2206.5 853.5 c 128
 2261 824 2261 824 2304 784.5 c 128
 2347 745 2347 745 2373.5 697.5 c 128
 2400 650 2400 650 2400 599 c 257
 2400 546 2400 546 2372.5 508 c 128
 2345 470 2345 470 2302.5 446 c 128
 2260 422 2260 422 2208 411 c 128
 2156 400 2156 400 2108 400 c 257
 2082 400 2082 400 2058 402.5 c 128
 2034 405 2034 405 2011 410 c 257
 907 659 l 257
 886 676 886 676 836.5 707.5 c 128
 787 739 787 739 724 777 c 128
 661 815 661 815 592 854.5 c 128
 523 894 523 894 461.5 928 c 128
 400 962 400 962 353.5 985 c 128
 307 1008 307 1008 291 1013 c 257
 328 1149 l 257
 165 1506 l 257
 396 1444 l 257
 623 1187 l 257
 978 1108 l 257
 813 1661 l 257
 1158 1568 l 257
 1504 1021 l 257
EndSplineSet
EndChar
StartChar: levelup
Encoding: 338 57349 338
GlifName: levelup
Width: 2000
VWidth: 0
Flags: W
LayerCount: 2
Fore
SplineSet
68 100 m 257
 268 100 l 257
 362 100 362 100 427 118.5 c 128
 492 137 492 137 539.5 168.5 c 128
 587 200 587 200 623 242 c 128
 659 284 659 284 694 330 c 257
 731 379 731 379 772 427 c 128
 813 475 813 475 871 513 c 257
 937 558 937 558 1018 579 c 128
 1099 600 1099 600 1200 600 c 257
 1744 600 l 257
 1500 800 l 257
 1646 800 l 257
 1830 639 l 257
 1946 551 l 257
 1828 459 l 257
 1646 300 l 257
 1500 300 l 257
 1744 500 l 257
 1200 500 l 257
 1105 500 1105 500 1040 481.5 c 128
 975 463 975 463 927.5 431.5 c 128
 880 400 880 400 844 358 c 128
 808 316 808 316 773 270 c 257
 736 221 736 221 695 173 c 128
 654 125 654 125 596 87 c 257
 530 42 530 42 449.5 21 c 128
 369 0 369 0 268 0 c 257
 68 0 l 257
 68 100 l 257
1300 100 m 257
 1500 100 l 257
 1500 0 l 257
 1300 0 l 257
 1300 100 l 257
1600 100 m 257
 1800 100 l 257
 1800 0 l 257
 1600 0 l 257
 1600 100 l 257
1000 100 m 257
 1200 100 l 257
 1200 0 l 257
 1000 0 l 257
 1000 100 l 257
800 100 m 257
 900 100 l 257
 900 0 l 257
 700 0 l 257
 800 100 l 257
EndSplineSet
EndChar
StartChar: slashedzero
Encoding: 492 57351 492
GlifName: slashedzero
Width: 1300
VWidth: 0
Flags: W
LayerCount: 2
Fore
SplineSet
597 -17 m 257
 512 -17 512 -17 446.5 15.5 c 128
 381 48 381 48 334.5 104 c 128
 288 160 288 160 258.5 235 c 128
 229 310 229 310 215.5 395.5 c 128
 202 481 202 481 204 572 c 128
 206 663 206 663 222 750 c 257
 238 840 238 840 266 932 c 128
 294 1024 294 1024 335 1109 c 128
 376 1194 376 1194 429.5 1268.5 c 128
 483 1343 483 1343 549.5 1398 c 128
 616 1453 616 1453 695 1485 c 128
 774 1517 774 1517 867 1517 c 257
 952 1517 952 1517 1017.5 1484.5 c 128
 1083 1452 1083 1452 1129.5 1396 c 128
 1176 1340 1176 1340 1205 1265 c 128
 1234 1190 1234 1190 1247.5 1104.5 c 128
 1261 1019 1261 1019 1259 928 c 128
 1257 837 1257 837 1242 750 c 257
 1226 660 1226 660 1197.5 568 c 128
 1169 476 1169 476 1128 391 c 128
 1087 306 1087 306 1033.5 231.5 c 128
 980 157 980 157 914 102 c 128
 848 47 848 47 768.5 15 c 128
 689 -17 689 -17 597 -17 c 257
635 157 m 257
 697 157 697 157 747 180.5 c 128
 797 204 797 204 837.5 244 c 128
 878 284 878 284 909 338 c 128
 940 392 940 392 963 453 c 128
 986 514 986 514 1002.5 579 c 128
 1019 644 1019 644 1030 707 c 257
 1036 741 1036 741 1040.5 771.5 c 128
 1045 802 1045 802 1048.5 833 c 128
 1052 864 1052 864 1054 896 c 128
 1056 928 1056 928 1058 965 c 257
 1126 1182 l 257
 445 277 l 257
 470 220 470 220 515.5 188.5 c 128
 561 157 561 157 635 157 c 257
828 1341 m 257
 766 1341 766 1341 716 1318 c 128
 666 1295 666 1295 626 1255 c 128
 586 1215 586 1215 555 1161.5 c 128
 524 1108 524 1108 500.5 1047 c 128
 477 986 477 986 460.5 921 c 128
 444 856 444 856 433 793 c 257
 421 725 421 725 414.5 665.5 c 128
 408 606 408 606 406 532 c 257
 339 320 l 257
 1017 1221 l 257
 992 1278 992 1278 946 1309.5 c 128
 900 1341 900 1341 828 1341 c 257
EndSplineSet
EndChar
StartChar: cold
Encoding: 201 57377 201
GlifName: cold
Width: 1900
VWidth: 0
Flags: W
LayerCount: 2
Fore
SplineSet
500 291 m 257
 510 288 510 288 516 284 c 257
 554 265 554 265 577 230 c 128
 600 195 600 195 600 150 c 257
 600 119 600 119 588 91.5 c 128
 576 64 576 64 556 44 c 128
 536 24 536 24 508.5 12 c 128
 481 0 481 0 450 0 c 257
 419 0 419 0 392 12 c 128
 365 24 365 24 344.5 44.5 c 128
 324 65 324 65 312 92.5 c 128
 300 120 300 120 300 151 c 257
 300 200 300 200 328 238 c 128
 356 276 356 276 400 291 c 257
 400 500 l 257
 400 521 400 521 414.5 535.5 c 128
 429 550 429 550 450 550 c 257
 471 550 471 550 485.5 535.5 c 128
 500 521 500 521 500 500 c 257
 500 291 l 257
450 -100 m 257
 502 -100 502 -100 547.5 -80.5 c 128
 593 -61 593 -61 627 -27 c 128
 661 7 661 7 680.5 52.5 c 128
 700 98 700 98 700 150 c 257
 700 212 700 212 672.5 264 c 128
 645 316 645 316 600 350 c 257
 600 1252 l 257
 600 1283 600 1283 587.5 1310 c 128
 575 1337 575 1337 554.5 1357 c 128
 534 1377 534 1377 507 1388.5 c 128
 480 1400 480 1400 450 1400 c 257
 420 1400 420 1400 393 1388 c 128
 366 1376 366 1376 345 1356 c 128
 324 1336 324 1336 312 1308.5 c 128
 300 1281 300 1281 300 1250 c 257
 300 350 l 257
 255 316 255 316 227.5 264 c 128
 200 212 200 212 200 150 c 257
 200 98 200 98 219.5 52.5 c 128
 239 7 239 7 273 -27 c 128
 307 -61 307 -61 352.5 -80.5 c 128
 398 -100 398 -100 450 -100 c 257
450 -200 m 257
 378 -200 378 -200 314.5 -172 c 128
 251 -144 251 -144 203 -96.5 c 128
 155 -49 155 -49 127.5 14.5 c 128
 100 78 100 78 100 150 c 257
 100 219 100 219 126 285 c 128
 152 351 152 351 200 400 c 257
 200 1252 l 257
 200 1304 200 1304 220 1349 c 128
 240 1394 240 1394 274.5 1427.5 c 128
 309 1461 309 1461 354.5 1480.5 c 128
 400 1500 400 1500 450 1500 c 257
 501 1500 501 1500 546 1480.5 c 128
 591 1461 591 1461 625.5 1427 c 128
 660 1393 660 1393 680 1347.5 c 128
 700 1302 700 1302 700 1250 c 257
 700 400 l 257
 748 351 748 351 774 285 c 128
 800 219 800 219 800 150 c 257
 800 78 800 78 772.5 14.5 c 128
 745 -49 745 -49 697 -97 c 128
 649 -145 649 -145 585.5 -172.5 c 128
 522 -200 522 -200 450 -200 c 257
900 170 m 257
 1000 228 l 257
 1000 613 l 257
 800 495 l 257
 800 611 l 257
 950 700 l 257
 800 785 l 257
 800 900 l 257
 1000 786 l 257
 1000 1171 l 257
 816 1279 l 257
 866 1365 l 257
 1000 1287 l 257
 1000 1500 l 257
 1100 1520 l 257
 1100 1288 l 257
 1233 1365 l 257
 1283 1279 l 257
 1100 1172 l 257
 1100 786 l 257
 1434 979 l 257
 1434 1191 l 257
 1534 1211 l 257
 1534 1037 l 257
 1717 1143 l 257
 1767 1057 l 257
 1583 951 l 257
 1717 873 l 257
 1667 787 l 257
 1484 893 l 257
 1149 700 l 257
 1484 506 l 257
 1667 613 l 257
 1717 527 l 257
 1583 449 l 257
 1767 343 l 257
 1717 257 l 257
 1534 362 l 257
 1534 209 l 257
 1434 189 l 257
 1434 420 l 257
 1100 613 l 257
 1100 227 l 257
 1283 121 l 257
 1233 35 l 257
 1100 111 l 257
 1100 -100 l 257
 1000 -120 l 257
 1000 112 l 257
 900 55 l 257
 900 170 l 257
EndSplineSet
EndChar
StartChar: counterclockwiseclock
Encoding: 211 57411 211
GlifName: counterclockwiseclock
Width: 1900
VWidth: 0
Flags: W
LayerCount: 2
Fore
SplineSet
43 800 m 257
 283 800 l 257
 283 959 283 959 343.5 1090.5 c 128
 404 1222 404 1222 508 1317 c 128
 612 1412 612 1412 751.5 1464.5 c 128
 891 1517 891 1517 1050 1517 c 257
 1156 1517 1156 1517 1254 1489.5 c 128
 1352 1462 1352 1462 1437 1412 c 128
 1522 1362 1522 1362 1592 1292 c 128
 1662 1222 1662 1222 1712 1137 c 128
 1762 1052 1762 1052 1789.5 954 c 128
 1817 856 1817 856 1817 750 c 257
 1817 644 1817 644 1789.5 546 c 128
 1762 448 1762 448 1712 363 c 128
 1662 278 1662 278 1592 208 c 128
 1522 138 1522 138 1437 88 c 128
 1352 38 1352 38 1254 10.5 c 128
 1156 -17 1156 -17 1050 -17 c 257
 920 -17 920 -17 804 23.5 c 128
 688 64 688 64 591 136 c 257
 659 271 l 257
 726 217 726 217 805.5 182 c 128
 885 147 885 147 975 136 c 257
 995 300 l 257
 1105 300 l 257
 1125 136 l 257
 1230 149 1230 149 1322.5 195 c 128
 1415 241 1415 241 1486 312.5 c 128
 1557 384 1557 384 1603 477 c 128
 1649 570 1649 570 1662 675 c 257
 1501 695 l 257
 1501 805 l 257
 1662 825 l 257
 1649 930 1649 930 1603 1022.5 c 128
 1557 1115 1557 1115 1486 1186 c 128
 1415 1257 1415 1257 1322.5 1303 c 128
 1230 1349 1230 1349 1125 1362 c 257
 1105 1200 l 257
 995 1200 l 257
 975 1362 l 257
 870 1349 870 1349 774 1305.5 c 128
 678 1262 678 1262 604 1190.5 c 128
 530 1119 530 1119 485 1020.5 c 128
 440 922 440 922 436 800 c 257
 673 800 l 257
 359 250 l 257
 43 800 l 257
1025 677 m 257
 1005 685 1005 685 990.5 704.5 c 128
 976 724 976 724 976 750 c 257
 976 773 976 773 985 790 c 257
 1018 1056 l 257
 1020 1068 1020 1068 1028.5 1076.5 c 128
 1037 1085 1037 1085 1049 1085 c 257
 1062 1085 1062 1085 1070.5 1077 c 128
 1079 1069 1079 1069 1081 1056 c 257
 1113 794 l 257
 1122 782 1122 782 1124 765 c 257
 1357 486 l 257
 1365 476 1365 476 1365 465 c 257
 1365 450 1365 450 1354 441 c 257
 1344 433 1344 433 1334 433 c 257
 1323 433 1323 433 1313 441 c 257
 1032 676 l 257
 1030 677 1030 677 1025 677 c 257
EndSplineSet
EndChar
StartChar: slashedphone
Encoding: 488 57442 488
GlifName: slashedphone
Width: 1300
VWidth: 0
Flags: W
LayerCount: 2
Fore
SplineSet
1044 1236 m 257
 1044 1189 1044 1189 1032.5 1128.5 c 128
 1021 1068 1021 1068 999.5 999 c 128
 978 930 978 930 947 856 c 128
 916 782 916 782 876 708 c 257
 746 896 l 257
 772 934 772 934 790 962 c 128
 808 990 808 990 808 999 c 257
 808 1011 808 1011 785 1027 c 128
 762 1043 762 1043 734.5 1059.5 c 128
 707 1076 707 1076 684 1092.5 c 128
 661 1109 661 1109 661 1123 c 257
 661 1144 661 1144 672.5 1176.5 c 128
 684 1209 684 1209 703 1246 c 128
 722 1283 722 1283 745 1319.5 c 128
 768 1356 768 1356 791.5 1386 c 128
 815 1416 815 1416 835.5 1434.5 c 128
 856 1453 856 1453 870 1453 c 257
 885 1453 885 1453 914 1432.5 c 128
 943 1412 943 1412 972 1380 c 128
 1001 1348 1001 1348 1022.5 1310 c 128
 1044 1272 1044 1272 1044 1236 c 257
457 448 m 257
 461 450 461 450 470 462 c 128
 479 474 479 474 490.5 493 c 128
 502 512 502 512 516 536 c 128
 530 560 530 560 545 587 c 257
 668 408 l 257
 625 358 625 358 581.5 315 c 128
 538 272 538 272 496 236.5 c 128
 454 201 454 201 414.5 174.5 c 128
 375 148 375 148 341 132 c 257
 328 126 328 126 312.5 123.5 c 128
 297 121 297 121 280 121 c 257
 247 121 247 121 212.5 129 c 128
 178 137 178 137 148 149 c 128
 118 161 118 161 97 174.5 c 128
 76 188 76 188 71 199 c 257
 69 205 69 205 69 211 c 257
 69 228 69 228 80 256 c 128
 91 284 91 284 108.5 316.5 c 128
 126 349 126 349 149 383 c 128
 172 417 172 417 195.5 446.5 c 128
 219 476 219 476 241.5 498 c 128
 264 520 264 520 282 528 c 257
 286 530 286 530 290 530 c 257
 304 530 304 530 326 517 c 128
 348 504 348 504 371.5 488.5 c 128
 395 473 395 473 416 460 c 128
 437 447 437 447 450 447 c 257
 455 447 455 447 457 448 c 257
39 1500 m 257
 206 1500 l 257
 1247 0 l 257
 1069 0 l 257
 39 1500 l 257
EndSplineSet
EndChar
StartChar: wifiin
Encoding: 576 57446 576
GlifName: wifiin
Width: 2000
VWidth: 0
Flags: W
LayerCount: 2
Fore
SplineSet
344 549 m 257
 421 519 l 257
 400 585 l 257
 400 800 l 257
 800 449 l 257
 400 99 l 257
 400 312 l 257
 421 377 l 257
 344 349 l 257
 100 349 l 257
 100 549 l 257
 344 549 l 257
1100 1350 m 257
 1214 1350 1214 1350 1321.5 1328.5 c 128
 1429 1307 1429 1307 1528 1266 c 128
 1627 1225 1627 1225 1715.5 1166.5 c 128
 1804 1108 1804 1108 1880 1035 c 257
 1759 914 l 257
 1695 976 1695 976 1620 1025 c 128
 1545 1074 1545 1074 1461.5 1108.5 c 128
 1378 1143 1378 1143 1287 1161.5 c 128
 1196 1180 1196 1180 1100 1180 c 257
 1004 1180 1004 1180 913 1161.5 c 128
 822 1143 822 1143 738 1108.5 c 128
 654 1074 654 1074 579 1025 c 128
 504 976 504 976 440 914 c 257
 319 1035 l 257
 395 1108 395 1108 484 1166.5 c 128
 573 1225 573 1225 672 1266 c 128
 771 1307 771 1307 878.5 1328.5 c 128
 986 1350 986 1350 1100 1350 c 257
552 802 m 257
 660 904 660 904 800 961.5 c 128
 940 1019 940 1019 1100 1019 c 257
 1259 1019 1259 1019 1399 961.5 c 128
 1539 904 1539 904 1647 802 c 257
 1542 697 l 257
 1454 778 1454 778 1341 824 c 128
 1228 870 1228 870 1100 870 c 257
 971 870 971 870 858 824 c 128
 745 778 745 778 657 697 c 257
 552 802 l 257
776 579 m 257
 839 639 839 639 922 672.5 c 128
 1005 706 1005 706 1100 706 c 257
 1194 706 1194 706 1277 672.5 c 128
 1360 639 1360 639 1424 579 c 257
 1310 465 l 257
 1269 506 1269 506 1215.5 529 c 128
 1162 552 1162 552 1100 552 c 257
 1037 552 1037 552 983.5 529 c 128
 930 506 930 506 889 465 c 257
 776 579 l 257
1100 412 m 257
 1129 412 1129 412 1155 401 c 128
 1181 390 1181 390 1200 370.5 c 128
 1219 351 1219 351 1230 325 c 128
 1241 299 1241 299 1241 270 c 257
 1241 241 1241 241 1230 215.5 c 128
 1219 190 1219 190 1200 171 c 128
 1181 152 1181 152 1155 141 c 128
 1129 130 1129 130 1100 130 c 257
 1071 130 1071 130 1045 141 c 128
 1019 152 1019 152 1000 171 c 128
 981 190 981 190 970 215.5 c 128
 959 241 959 241 959 270 c 257
 959 299 959 299 970 325 c 128
 981 351 981 351 999.5 370.5 c 128
 1018 390 1018 390 1044 401 c 128
 1070 412 1070 412 1100 412 c 257
EndSplineSet
EndChar
